G04*
G04 #@! TF.GenerationSoftware,Altium Limited,Altium Designer,20.0.10 (225)*
G04*
G04 Layer_Color=16711935*
%FSLAX25Y25*%
%MOIN*%
G70*
G01*
G75*
%ADD10C,0.00787*%
%ADD13C,0.00500*%
%ADD16C,0.00800*%
%ADD92C,0.00100*%
%ADD93C,0.00197*%
G36*
X9691Y70875D02*
X10870D01*
Y68910D01*
X9691D01*
Y70875D01*
D02*
G37*
G36*
X14809Y70875D02*
X15995D01*
Y68910D01*
X14809D01*
Y70875D01*
D02*
G37*
G36*
X9691Y77577D02*
X10870D01*
Y75602D01*
X9691D01*
Y77577D01*
D02*
G37*
G36*
X12250Y77575D02*
X13432D01*
Y75602D01*
X12250D01*
Y77575D01*
D02*
G37*
G36*
X14809Y77578D02*
X15996D01*
Y75602D01*
X14809D01*
Y77578D01*
D02*
G37*
D10*
X64650Y158012D02*
X63862D01*
X64650D01*
X79150Y173012D02*
X78362D01*
X79150D01*
X78587Y107772D02*
X77799D01*
X78587D01*
X104760Y219238D02*
X103972D01*
X104760D01*
D13*
X46626Y105626D02*
X62374D01*
Y121374D01*
X46626D02*
X62374D01*
X46626Y105626D02*
Y121374D01*
X105390Y60642D02*
Y67571D01*
X101610Y60642D02*
Y67571D01*
X105390D01*
X101610Y60642D02*
X105390D01*
X58744Y154469D02*
X64256D01*
X58744Y150531D02*
Y154469D01*
Y150531D02*
X64256D01*
Y154469D01*
X78756Y165532D02*
Y169468D01*
X73244Y165532D02*
X78756D01*
X73244D02*
Y169468D01*
X78756D01*
X97110Y202189D02*
Y225811D01*
X110890D01*
Y202189D02*
Y225811D01*
X97110Y202189D02*
X110890D01*
X67563Y102850D02*
Y109150D01*
X75437Y102850D02*
Y109150D01*
X67563D02*
X75437D01*
X67563Y102850D02*
X75437D01*
X72610Y224689D02*
Y248311D01*
X86390D01*
Y224689D02*
Y248311D01*
X72610Y224689D02*
X86390D01*
X102791Y212900D02*
X114209D01*
X102791Y206601D02*
X114209D01*
X102791D02*
Y212900D01*
X114209Y206601D02*
Y212900D01*
D16*
X8510Y70878D02*
X17172D01*
X8510Y75602D02*
X17172D01*
D92*
X84010Y125784D02*
X89010Y128284D01*
X84010Y125784D02*
Y130783D01*
X89010Y128284D01*
X113610Y122397D02*
Y163697D01*
X90010D02*
X113610D01*
X90010Y122397D02*
Y163697D01*
Y122397D02*
X113610D01*
D93*
X34995Y209566D02*
Y213503D01*
X33026Y211535D02*
X36963D01*
M02*
