M48
;Layer_Color=9474304
;FILE_FORMAT=2:4
INCH,TZ
;TYPE=PLATED
T1F00S00C0.0120
T2F00S00C0.0140
T3F00S00C0.0300
T4F00S00C0.0350
T5F00S00C0.0402
T6F00S00C0.0630
;TYPE=NON_PLATED
T7F00S00C0.1260
T8F00S00C0.1420
%
T01
X10350Y5400
Y7400
X11150Y11700
X8223Y11673
X7600Y12150
X8262Y13662
X6100Y14550
X5350Y14200
X5723Y12777
X4750Y12500
X4350Y12250
X4550Y13100
X3150Y13900
X1900Y14000
X1200
X1600Y16000
X500
X550Y16400
X3250Y16350
X4800
X6069Y16250
X6550Y16050
X6786Y15550
X5700Y11550
Y11100
X5200
Y11550
X4950Y10240
X3700Y11078
X4000Y8950
X2062Y8812
X2100Y8150
X2000Y6950
X450Y6500
X550Y7700
X2021Y9500
X1500Y11400
X700Y11450
X1300Y4700
X7050Y5150
X8400Y9550
X8469Y17519
X7963
X7456
X6950
X6861Y19150
X6843Y19850
Y20500
X6850Y21500
X7350Y21800
X7100Y22200
X8650Y21700
X9100Y21250
X9300Y22950
X9150Y23800
X9200Y19150
X8550Y19130
X7700Y19450
X9700Y17450
X10650
X11150Y18450
X11300Y22100
Y23550
T02
X6884Y10807
T03
X9550Y12828
Y13419
Y14009
Y14600
Y15191
Y15781
T04
X4700Y7079
X5700
X6700
X7700
X7200Y8079
X6200
X5200
X4200
T05
X3460Y3248
X4450Y2650
X7450Y3248
X8440Y2650
T06
X2850Y5780
X9050
T07
X3700Y4579
X8200
T08
X1300Y1300
X10500
X10550Y24950
M30
