G04*
G04 #@! TF.GenerationSoftware,Altium Limited,Altium Designer,20.0.10 (225)*
G04*
G04 Layer_Color=65535*
%FSLAX25Y25*%
%MOIN*%
G70*
G01*
G75*
%ADD10C,0.00787*%
%ADD11C,0.02953*%
%ADD12C,0.00000*%
%ADD13C,0.00500*%
%ADD14C,0.00600*%
%ADD15C,0.00591*%
%ADD16C,0.00800*%
D10*
X47610Y103854D02*
X46823D01*
X47610D01*
X64650Y158012D02*
X63862D01*
X64650D01*
X79150Y173012D02*
X78362D01*
X79150D01*
X104394Y190000D02*
X103606D01*
X104394D01*
X78587Y107772D02*
X77799D01*
X78587D01*
X79894Y212500D02*
X79106D01*
X79894D01*
X84953Y210193D02*
X91646D01*
Y196807D02*
X93614Y198382D01*
X91646Y210193D02*
X93614Y208618D01*
X84953Y196807D02*
X91646D01*
X93614Y198382D02*
Y208618D01*
X71567Y196807D02*
Y210193D01*
X79047D01*
X71567Y196807D02*
X79047D01*
X84937Y188028D02*
X91630D01*
X91630Y178972D02*
X93598Y180547D01*
X91630Y188028D02*
X93598Y186453D01*
X84937Y178972D02*
X91630D01*
X93598Y180547D02*
Y186453D01*
X69583Y178972D02*
Y188028D01*
X77063D01*
X69583Y178972D02*
X77063D01*
D11*
X69050Y163700D02*
X68558Y164552D01*
X67574D01*
X67082Y163700D01*
X67574Y162848D01*
X68558D01*
X69050Y163700D01*
D12*
X15991Y74224D02*
X15400Y74815D01*
X14809Y74224D01*
X15400Y73634D01*
X15991Y74224D01*
D13*
X86272Y156409D02*
Y157591D01*
X82728Y156409D02*
Y157591D01*
X72909Y138772D02*
X74090D01*
X72909Y135228D02*
X74090D01*
X60799Y105626D02*
X62374D01*
Y107201D01*
X60799Y121374D02*
X62374D01*
Y119799D02*
Y121374D01*
X46626D02*
X48201D01*
X46626Y119799D02*
Y121374D01*
Y105626D02*
X48201D01*
X46626D02*
Y107201D01*
X57799Y150531D02*
Y154469D01*
X65201Y150531D02*
Y154469D01*
X79701Y165532D02*
Y169468D01*
X72299Y165532D02*
Y169468D01*
X97110Y202189D02*
Y225811D01*
X110890D01*
Y202189D02*
Y225811D01*
X97110Y202189D02*
X110890D01*
X72610Y224689D02*
Y248311D01*
X86390D01*
Y224689D02*
Y248311D01*
X72610Y224689D02*
X86390D01*
D14*
X84010Y125784D02*
X89010Y128284D01*
X84010Y125784D02*
Y130783D01*
X89010Y128284D01*
X114110Y121897D02*
Y164197D01*
X89510D02*
X114110D01*
X89510Y121897D02*
Y164197D01*
Y121897D02*
X114110D01*
X87600Y166200D02*
X88400D01*
X87600Y171800D02*
X88400D01*
X73100Y147800D02*
X73900D01*
X73100Y142200D02*
X73900D01*
X81200Y104100D02*
Y104900D01*
X86800Y104100D02*
Y104900D01*
X90200Y106600D02*
Y107400D01*
X95800Y106600D02*
Y107400D01*
X42333Y98600D02*
Y99400D01*
X36733Y98600D02*
Y99400D01*
X33832Y98600D02*
Y99400D01*
X28232Y98600D02*
Y99400D01*
X42800Y150624D02*
Y151424D01*
X37200Y150624D02*
Y151424D01*
X51128Y150624D02*
Y151424D01*
X45528Y150624D02*
Y151424D01*
X10200Y81200D02*
X11000D01*
X10200Y86800D02*
X11000D01*
X28700Y150600D02*
Y151400D01*
X34300Y150600D02*
Y151400D01*
X20200Y150663D02*
Y151463D01*
X25800Y150663D02*
Y151463D01*
X8800Y150663D02*
Y151463D01*
X3200Y150663D02*
Y151463D01*
X11700Y150663D02*
Y151463D01*
X17300Y150663D02*
Y151463D01*
X10200Y103800D02*
X11000D01*
X10200Y98200D02*
X11000D01*
X10200Y95246D02*
X11000D01*
X10200Y89646D02*
X11000D01*
X14100Y65800D02*
X14900D01*
X14100Y60200D02*
X14900D01*
X72100Y99300D02*
X72900D01*
X72100Y93700D02*
X72900D01*
X59100Y62679D02*
X59900D01*
X59100Y57079D02*
X59900D01*
X59100Y54179D02*
X59900D01*
X59100Y48579D02*
X59900D01*
X59100Y40079D02*
X59900D01*
X59100Y45679D02*
X59900D01*
X77400Y154700D02*
X76800Y155299D01*
X75601D01*
X75001Y154700D01*
Y152300D01*
X75601Y151701D01*
X76800D01*
X77400Y152300D01*
X78600Y155299D02*
X80999D01*
Y154700D01*
X78600Y152300D01*
Y151701D01*
X62900Y138200D02*
X62300Y138799D01*
X61101D01*
X60501Y138200D01*
Y135800D01*
X61101Y135201D01*
X62300D01*
X62900Y135800D01*
X66499Y138799D02*
X65299Y138200D01*
X64100Y137000D01*
Y135800D01*
X64700Y135201D01*
X65899D01*
X66499Y135800D01*
Y136400D01*
X65899Y137000D01*
X64100D01*
X95501Y167201D02*
Y170799D01*
X97300D01*
X97900Y170200D01*
Y169000D01*
X97300Y168400D01*
X95501D01*
X96701D02*
X97900Y167201D01*
X101499Y170799D02*
X99100D01*
Y169000D01*
X100299Y169600D01*
X100899D01*
X101499Y169000D01*
Y167800D01*
X100899Y167201D01*
X99700D01*
X99100Y167800D01*
X111200Y157579D02*
Y161178D01*
Y159379D01*
X108800D01*
Y157579D01*
Y161178D01*
X75400Y162200D02*
X74800Y162799D01*
X73601D01*
X73001Y162200D01*
Y161600D01*
X73601Y161000D01*
X74800D01*
X75400Y160400D01*
Y159800D01*
X74800Y159201D01*
X73601D01*
X73001Y159800D01*
X78999Y159201D02*
X76600D01*
X78999Y161600D01*
Y162200D01*
X78399Y162799D01*
X77200D01*
X76600Y162200D01*
X57000Y160200D02*
X56400Y160799D01*
X55201D01*
X54601Y160200D01*
Y159600D01*
X55201Y159000D01*
X56400D01*
X57000Y158400D01*
Y157800D01*
X56400Y157201D01*
X55201D01*
X54601Y157800D01*
X58200Y157201D02*
X59399D01*
X58799D01*
Y160799D01*
X58200Y160200D01*
X81001Y143201D02*
Y146799D01*
X82800D01*
X83400Y146200D01*
Y145000D01*
X82800Y144400D01*
X81001D01*
X82201D02*
X83400Y143201D01*
X86999Y146799D02*
X85799Y146200D01*
X84600Y145000D01*
Y143800D01*
X85200Y143201D01*
X86399D01*
X86999Y143800D01*
Y144400D01*
X86399Y145000D01*
X84600D01*
X63800Y123799D02*
Y120201D01*
Y121400D01*
X66200Y123799D01*
X64400Y122000D01*
X66200Y120201D01*
X66732Y255700D02*
X69132Y253300D01*
X66732D02*
X69132Y255700D01*
X66732Y254500D02*
X69132D01*
X67932Y253300D02*
Y255700D01*
X54702Y34701D02*
Y38299D01*
X56501D01*
X57101Y37700D01*
Y36500D01*
X56501Y35900D01*
X54702D01*
X55901D02*
X57101Y34701D01*
X58300Y38299D02*
X60700D01*
Y37700D01*
X58300Y35300D01*
Y34701D01*
X63699D02*
Y38299D01*
X61899Y36500D01*
X64298D01*
X69101Y61200D02*
X68501Y61799D01*
X67301D01*
X66702Y61200D01*
Y58800D01*
X67301Y58201D01*
X68501D01*
X69101Y58800D01*
X72700Y61799D02*
X70300D01*
Y60000D01*
X71500Y60600D01*
X72100D01*
X72700Y60000D01*
Y58800D01*
X72100Y58201D01*
X70900D01*
X70300Y58800D01*
X73899Y61200D02*
X74499Y61799D01*
X75699D01*
X76298Y61200D01*
Y60600D01*
X75699Y60000D01*
X76298Y59400D01*
Y58800D01*
X75699Y58201D01*
X74499D01*
X73899Y58800D01*
Y59400D01*
X74499Y60000D01*
X73899Y60600D01*
Y61200D01*
X74499Y60000D02*
X75699D01*
X49300Y49101D02*
X48701Y48501D01*
Y47301D01*
X49300Y46701D01*
X51700D01*
X52299Y47301D01*
Y48501D01*
X51700Y49101D01*
X48701Y52700D02*
Y50300D01*
X50500D01*
X49900Y51500D01*
Y52100D01*
X50500Y52700D01*
X51700D01*
X52299Y52100D01*
Y50900D01*
X51700Y50300D01*
X48701Y53899D02*
Y56299D01*
X49300D01*
X51700Y53899D01*
X52299D01*
X30299Y134702D02*
X26701D01*
Y136501D01*
X27300Y137101D01*
X28500D01*
X29100Y136501D01*
Y134702D01*
Y135901D02*
X30299Y137101D01*
X26701Y140700D02*
Y138300D01*
X28500D01*
X27900Y139500D01*
Y140100D01*
X28500Y140700D01*
X29700D01*
X30299Y140100D01*
Y138900D01*
X29700Y138300D01*
X30299Y143699D02*
X26701D01*
X28500Y141899D01*
Y144299D01*
X50299Y134202D02*
X46701D01*
Y136001D01*
X47300Y136601D01*
X48500D01*
X49100Y136001D01*
Y134202D01*
Y135401D02*
X50299Y136601D01*
X46701Y140200D02*
Y137800D01*
X48500D01*
X47900Y139000D01*
Y139600D01*
X48500Y140200D01*
X49700D01*
X50299Y139600D01*
Y138400D01*
X49700Y137800D01*
X47300Y141399D02*
X46701Y141999D01*
Y143199D01*
X47300Y143798D01*
X47900D01*
X48500Y143199D01*
Y142599D01*
Y143199D01*
X49100Y143798D01*
X49700D01*
X50299Y143199D01*
Y141999D01*
X49700Y141399D01*
X41799Y134202D02*
X38201D01*
Y136001D01*
X38800Y136601D01*
X40000D01*
X40600Y136001D01*
Y134202D01*
Y135401D02*
X41799Y136601D01*
X38201Y140200D02*
Y137800D01*
X40000D01*
X39400Y139000D01*
Y139600D01*
X40000Y140200D01*
X41200D01*
X41799Y139600D01*
Y138400D01*
X41200Y137800D01*
X41799Y143798D02*
Y141399D01*
X39400Y143798D01*
X38800D01*
X38201Y143199D01*
Y141999D01*
X38800Y141399D01*
X17299Y135801D02*
X13701D01*
Y137601D01*
X14300Y138201D01*
X15500D01*
X16100Y137601D01*
Y135801D01*
Y137001D02*
X17299Y138201D01*
X13701Y141799D02*
Y139400D01*
X15500D01*
X14900Y140600D01*
Y141200D01*
X15500Y141799D01*
X16700D01*
X17299Y141200D01*
Y140000D01*
X16700Y139400D01*
X17299Y142999D02*
Y144199D01*
Y143599D01*
X13701D01*
X14300Y142999D01*
X7799Y134202D02*
X4201D01*
Y136001D01*
X4800Y136601D01*
X6000D01*
X6600Y136001D01*
Y134202D01*
Y135401D02*
X7799Y136601D01*
Y139600D02*
X4201D01*
X6000Y137800D01*
Y140200D01*
X7200Y141399D02*
X7799Y141999D01*
Y143199D01*
X7200Y143798D01*
X4800D01*
X4201Y143199D01*
Y141999D01*
X4800Y141399D01*
X5400D01*
X6000Y141999D01*
Y143798D01*
X24799Y134702D02*
X21201D01*
Y136501D01*
X21800Y137101D01*
X23000D01*
X23600Y136501D01*
Y134702D01*
Y135901D02*
X24799Y137101D01*
Y140100D02*
X21201D01*
X23000Y138300D01*
Y140700D01*
X21800Y141899D02*
X21201Y142499D01*
Y143699D01*
X21800Y144299D01*
X22400D01*
X23000Y143699D01*
X23600Y144299D01*
X24200D01*
X24799Y143699D01*
Y142499D01*
X24200Y141899D01*
X23600D01*
X23000Y142499D01*
X22400Y141899D01*
X21800D01*
X23000Y142499D02*
Y143699D01*
X6202Y105701D02*
Y109299D01*
X8001D01*
X8601Y108700D01*
Y107500D01*
X8001Y106900D01*
X6202D01*
X7401D02*
X8601Y105701D01*
X12200Y109299D02*
X9800D01*
Y107500D01*
X11000Y108100D01*
X11600D01*
X12200Y107500D01*
Y106300D01*
X11600Y105701D01*
X10400D01*
X9800Y106300D01*
X15798Y109299D02*
X13399D01*
Y107500D01*
X14599Y108100D01*
X15199D01*
X15798Y107500D01*
Y106300D01*
X15199Y105701D01*
X13999D01*
X13399Y106300D01*
X76500Y91700D02*
X75900Y92299D01*
X74701D01*
X74101Y91700D01*
Y89300D01*
X74701Y88701D01*
X75900D01*
X76500Y89300D01*
X77700Y88701D02*
X78899D01*
X78299D01*
Y92299D01*
X77700Y91700D01*
X76800Y105299D02*
Y104700D01*
X78000Y103500D01*
X79200Y104700D01*
Y105299D01*
X78000Y103500D02*
Y101701D01*
X80201Y200501D02*
X83799D01*
Y202300D01*
X83200Y202900D01*
X80800D01*
X80201Y202300D01*
Y200501D01*
X80800Y204100D02*
X80201Y204700D01*
Y205899D01*
X80800Y206499D01*
X81400D01*
X82000Y205899D01*
Y205299D01*
Y205899D01*
X82600Y206499D01*
X83200D01*
X83799Y205899D01*
Y204700D01*
X83200Y204100D01*
X79201Y180501D02*
X82799D01*
Y182300D01*
X82200Y182900D01*
X79800D01*
X79201Y182300D01*
Y180501D01*
X82799Y186499D02*
Y184100D01*
X80400Y186499D01*
X79800D01*
X79201Y185899D01*
Y184700D01*
X79800Y184100D01*
X44800Y92101D02*
X44201Y91501D01*
Y90301D01*
X44800Y89701D01*
X47200D01*
X47799Y90301D01*
Y91501D01*
X47200Y92101D01*
X47799Y95100D02*
X44201D01*
X46000Y93300D01*
Y95700D01*
X44201Y99299D02*
Y96899D01*
X46000D01*
X45400Y98099D01*
Y98699D01*
X46000Y99299D01*
X47200D01*
X47799Y98699D01*
Y97499D01*
X47200Y96899D01*
X18800Y75799D02*
Y72800D01*
X19400Y72201D01*
X20600D01*
X21200Y72800D01*
Y75799D01*
X101299Y102201D02*
X97701D01*
Y104001D01*
X98300Y104601D01*
X99500D01*
X100100Y104001D01*
Y102201D01*
Y103401D02*
X101299Y104601D01*
X97701Y108200D02*
X98300Y107000D01*
X99500Y105800D01*
X100700D01*
X101299Y106400D01*
Y107600D01*
X100700Y108200D01*
X100100D01*
X99500Y107600D01*
Y105800D01*
X98300Y109399D02*
X97701Y109999D01*
Y111199D01*
X98300Y111799D01*
X100700D01*
X101299Y111199D01*
Y109999D01*
X100700Y109399D01*
X98300D01*
X17702Y83201D02*
Y86799D01*
X19501D01*
X20101Y86200D01*
Y85000D01*
X19501Y84400D01*
X17702D01*
X18901D02*
X20101Y83201D01*
X23700Y86799D02*
X21300D01*
Y85000D01*
X22500Y85600D01*
X23100D01*
X23700Y85000D01*
Y83800D01*
X23100Y83201D01*
X21900D01*
X21300Y83800D01*
X24899D02*
X25499Y83201D01*
X26699D01*
X27299Y83800D01*
Y86200D01*
X26699Y86799D01*
X25499D01*
X24899Y86200D01*
Y85600D01*
X25499Y85000D01*
X27299D01*
X17502Y90201D02*
Y93799D01*
X19301D01*
X19901Y93200D01*
Y92000D01*
X19301Y91400D01*
X17502D01*
X18701D02*
X19901Y90201D01*
X21100D02*
X22300D01*
X21700D01*
Y93799D01*
X21100Y93200D01*
X24099D02*
X24699Y93799D01*
X25899D01*
X26499Y93200D01*
Y92600D01*
X25899Y92000D01*
X25299D01*
X25899D01*
X26499Y91400D01*
Y90800D01*
X25899Y90201D01*
X24699D01*
X24099Y90800D01*
X9001Y55201D02*
Y58799D01*
X10800D01*
X11400Y58200D01*
Y57000D01*
X10800Y56400D01*
X9001D01*
X10201D02*
X11400Y55201D01*
X12600Y55800D02*
X13200Y55201D01*
X14399D01*
X14999Y55800D01*
Y58200D01*
X14399Y58799D01*
X13200D01*
X12600Y58200D01*
Y57600D01*
X13200Y57000D01*
X14999D01*
X96400Y67299D02*
X94001D01*
Y65500D01*
X95201D01*
X94001D01*
Y63701D01*
X97600Y67299D02*
Y63701D01*
X99999D01*
X29800Y108601D02*
X29201Y108001D01*
Y106801D01*
X29800Y106202D01*
X32200D01*
X32799Y106801D01*
Y108001D01*
X32200Y108601D01*
X32799Y111600D02*
X29201D01*
X31000Y109800D01*
Y112200D01*
X29201Y113399D02*
Y115798D01*
X29800D01*
X32200Y113399D01*
X32799D01*
X83400Y114700D02*
X82800Y115299D01*
X81601D01*
X81001Y114700D01*
Y112300D01*
X81601Y111701D01*
X82800D01*
X83400Y112300D01*
X86999Y111701D02*
X84600D01*
X86999Y114100D01*
Y114700D01*
X86399Y115299D01*
X85200D01*
X84600Y114700D01*
X101701Y211001D02*
X105299D01*
Y212800D01*
X104700Y213400D01*
X104100D01*
X103500Y212800D01*
Y211001D01*
Y212800D01*
X102900Y213400D01*
X102300D01*
X101701Y212800D01*
Y211001D01*
X105299Y216999D02*
Y214600D01*
X102900Y216999D01*
X102300D01*
X101701Y216399D01*
Y215200D01*
X102300Y214600D01*
X77701Y233601D02*
X81299D01*
Y235400D01*
X80700Y236000D01*
X80100D01*
X79500Y235400D01*
Y233601D01*
Y235400D01*
X78900Y236000D01*
X78300D01*
X77701Y235400D01*
Y233601D01*
X81299Y237200D02*
Y238399D01*
Y237799D01*
X77701D01*
X78300Y237200D01*
D15*
X5861Y255432D02*
X15901D01*
X54089D02*
X64129D01*
X54089Y167637D02*
X64129D01*
X5861D02*
X15901D01*
X64129D02*
Y168818D01*
Y254251D02*
Y255432D01*
X5861Y254251D02*
Y255432D01*
Y167637D02*
Y168818D01*
D16*
X8510Y70878D02*
Y75602D01*
X17172Y70878D02*
Y75602D01*
M02*
