G04*
G04 #@! TF.GenerationSoftware,Altium Limited,Altium Designer,20.0.10 (225)*
G04*
G04 Layer_Color=32896*
%FSLAX25Y25*%
%MOIN*%
G70*
G01*
G75*
%ADD10C,0.00787*%
%ADD13C,0.00500*%
%ADD14C,0.00600*%
%ADD89C,0.00781*%
D10*
X104760Y219238D02*
X103972D01*
X104760D01*
D13*
X27492Y3291D02*
Y88291D01*
X91508D01*
Y3291D02*
Y88291D01*
X27492Y3291D02*
X91508D01*
X102791Y208451D02*
Y211050D01*
X107181Y206601D02*
X109819D01*
X114209Y208451D02*
Y211050D01*
X104059Y225153D02*
X108941D01*
X104059Y231846D02*
X108941D01*
X105847Y188559D02*
Y193441D01*
X99154Y188559D02*
Y193441D01*
D14*
X100700Y157100D02*
Y157900D01*
X106300Y157100D02*
Y157900D01*
X72100Y130972D02*
X72900D01*
X72100Y125372D02*
X72900D01*
X72100Y139300D02*
X72900D01*
X72100Y133700D02*
X72900D01*
X46700Y98300D02*
Y99100D01*
X52300Y98300D02*
Y99100D01*
X43972Y98300D02*
Y99100D01*
X38372Y98300D02*
Y99100D01*
X38700Y159600D02*
Y160400D01*
X44300Y159600D02*
Y160400D01*
X51700Y158600D02*
Y159400D01*
X57300Y158600D02*
Y159400D01*
X23100Y162200D02*
X23900D01*
X23100Y167800D02*
X23900D01*
X10200Y72100D02*
Y72900D01*
X15800Y72100D02*
Y72900D01*
X35100Y129700D02*
X35900D01*
X35100Y135300D02*
X35900D01*
X114800Y157100D02*
Y157900D01*
X109200Y157100D02*
Y157900D01*
X74200Y227600D02*
Y228400D01*
X79800Y227600D02*
Y228400D01*
X87600Y186300D02*
X88400D01*
X87600Y180700D02*
X88400D01*
X114500Y193269D02*
Y194069D01*
X108900Y193269D02*
Y194069D01*
X15800Y57749D02*
Y58549D01*
X10200Y57749D02*
Y58549D01*
X93600Y113700D02*
X94400D01*
X93600Y119300D02*
X94400D01*
X15500Y121500D02*
X16500D01*
Y124000D01*
X19500Y119000D02*
Y119500D01*
Y120000D01*
Y120500D01*
Y121000D01*
Y122000D02*
Y122500D01*
Y123000D01*
Y123500D01*
Y124000D01*
X13200Y125100D02*
X22600D01*
X11400Y117900D02*
X13200D01*
X16500Y121500D02*
X20500D01*
X16500Y119000D02*
Y121500D01*
X19500Y119000D01*
X16500Y121500D02*
X19500Y119500D01*
X16500Y121500D02*
X19500Y120000D01*
X16500Y121500D02*
X19500Y120500D01*
X16500Y121500D02*
X19500Y121000D01*
X16500Y121500D02*
X19500Y124000D01*
X16500Y121500D02*
X19500Y123500D01*
X16500Y121500D02*
X19500Y123000D01*
X16500Y121500D02*
X19500Y122500D01*
X16500Y121500D02*
X19500Y122000D01*
Y121000D02*
Y122000D01*
X12400Y118700D02*
X13200Y117900D01*
X12400Y124300D02*
X13200Y125100D01*
X11400D02*
X13200D01*
Y117900D02*
X22600D01*
X15500Y130500D02*
X16500D01*
Y133000D01*
X19500Y128000D02*
Y128500D01*
Y129000D01*
Y129500D01*
Y130000D01*
Y131000D02*
Y131500D01*
Y132000D01*
Y132500D01*
Y133000D01*
X13200Y134100D02*
X22600D01*
X11400Y126900D02*
X13200D01*
X16500Y130500D02*
X20500D01*
X16500Y128000D02*
Y130500D01*
X19500Y128000D01*
X16500Y130500D02*
X19500Y128500D01*
X16500Y130500D02*
X19500Y129000D01*
X16500Y130500D02*
X19500Y129500D01*
X16500Y130500D02*
X19500Y130000D01*
X16500Y130500D02*
X19500Y133000D01*
X16500Y130500D02*
X19500Y132500D01*
X16500Y130500D02*
X19500Y132000D01*
X16500Y130500D02*
X19500Y131500D01*
X16500Y130500D02*
X19500Y131000D01*
Y130000D02*
Y131000D01*
X12400Y127700D02*
X13200Y126900D01*
X12400Y133300D02*
X13200Y134100D01*
X11400D02*
X13200D01*
Y126900D02*
X22600D01*
X82700Y227600D02*
Y228400D01*
X88300Y227600D02*
Y228400D01*
X88600Y196500D02*
X89400D01*
X88600Y202100D02*
X89400D01*
X57200Y96101D02*
X57799Y95501D01*
Y94301D01*
X57200Y93701D01*
X54800D01*
X54201Y94301D01*
Y95501D01*
X54800Y96101D01*
X54201Y99100D02*
X57799D01*
X56000Y97300D01*
Y99700D01*
X57200Y100899D02*
X57799Y101499D01*
Y102699D01*
X57200Y103298D01*
X56600D01*
X56000Y102699D01*
Y102099D01*
Y102699D01*
X55400Y103298D01*
X54800D01*
X54201Y102699D01*
Y101499D01*
X54800Y100899D01*
X35501Y9700D02*
X36101Y10299D01*
X37301D01*
X37901Y9700D01*
Y7300D01*
X37301Y6701D01*
X36101D01*
X35501Y7300D01*
X34302Y6701D02*
Y10299D01*
X31903Y6701D01*
Y10299D01*
X6299Y118501D02*
X2701D01*
Y120300D01*
X3300Y120900D01*
X5700D01*
X6299Y120300D01*
Y118501D01*
X3300Y122100D02*
X2701Y122700D01*
Y123899D01*
X3300Y124499D01*
X5700D01*
X6299Y123899D01*
Y122700D01*
X5700Y122100D01*
X5100D01*
X4500Y122700D01*
Y124499D01*
X6299Y127501D02*
X2701D01*
Y129300D01*
X3300Y129900D01*
X5700D01*
X6299Y129300D01*
Y127501D01*
X5700Y131100D02*
X6299Y131700D01*
Y132899D01*
X5700Y133499D01*
X5100D01*
X4500Y132899D01*
X3900Y133499D01*
X3300D01*
X2701Y132899D01*
Y131700D01*
X3300Y131100D01*
X3900D01*
X4500Y131700D01*
X5100Y131100D01*
X5700D01*
X4500Y131700D02*
Y132899D01*
X100700Y208201D02*
Y211799D01*
X98900D01*
X98300Y211200D01*
Y210000D01*
X98900Y209400D01*
X100700D01*
X99500D02*
X98300Y208201D01*
X110201Y140701D02*
X113799D01*
Y142501D01*
X113200Y143101D01*
X112000D01*
X111400Y142501D01*
Y140701D01*
Y141901D02*
X110201Y143101D01*
X113200Y144300D02*
X113799Y144900D01*
Y146100D01*
X113200Y146700D01*
X112600D01*
X112000Y146100D01*
X111400Y146700D01*
X110800D01*
X110201Y146100D01*
Y144900D01*
X110800Y144300D01*
X111400D01*
X112000Y144900D01*
X112600Y144300D01*
X113200D01*
X112000Y144900D02*
Y146100D01*
X113200Y147899D02*
X113799Y148499D01*
Y149699D01*
X113200Y150299D01*
X112600D01*
X112000Y149699D01*
Y149099D01*
Y149699D01*
X111400Y150299D01*
X110800D01*
X110201Y149699D01*
Y148499D01*
X110800Y147899D01*
X59298Y148201D02*
Y151799D01*
X57499D01*
X56899Y151200D01*
Y150000D01*
X57499Y149400D01*
X59298D01*
X58099D02*
X56899Y148201D01*
X55700Y151200D02*
X55100Y151799D01*
X53900D01*
X53300Y151200D01*
Y150600D01*
X53900Y150000D01*
X53300Y149400D01*
Y148800D01*
X53900Y148201D01*
X55100D01*
X55700Y148800D01*
Y149400D01*
X55100Y150000D01*
X55700Y150600D01*
Y151200D01*
X55100Y150000D02*
X53900D01*
X52101Y151200D02*
X51501Y151799D01*
X50301D01*
X49701Y151200D01*
Y148800D01*
X50301Y148201D01*
X51501D01*
X52101Y148800D01*
Y151200D01*
X28819Y156756D02*
X28777Y160354D01*
X26978Y160334D01*
X26385Y159727D01*
X26399Y158528D01*
X27006Y157935D01*
X28805Y157955D01*
X27606Y157942D02*
X26420Y156728D01*
X22780Y160285D02*
X25179Y160313D01*
X25199Y158514D01*
X23993Y159100D01*
X23393Y159093D01*
X22801Y158486D01*
X22814Y157287D01*
X23421Y156694D01*
X24621Y156708D01*
X25213Y157314D01*
X21580Y160272D02*
X19181Y160244D01*
X19188Y159644D01*
X21615Y157273D01*
X21622Y156673D01*
X39799Y124701D02*
Y128299D01*
X37999D01*
X37399Y127700D01*
Y126500D01*
X37999Y125900D01*
X39799D01*
X38599D02*
X37399Y124701D01*
X33800Y128299D02*
X36200D01*
Y126500D01*
X35000Y127100D01*
X34400D01*
X33800Y126500D01*
Y125300D01*
X34400Y124701D01*
X35600D01*
X36200Y125300D01*
X30202Y128299D02*
X31401Y127700D01*
X32601Y126500D01*
Y125300D01*
X32001Y124701D01*
X30801D01*
X30202Y125300D01*
Y125900D01*
X30801Y126500D01*
X32601D01*
X101201Y140701D02*
X104799D01*
Y142501D01*
X104200Y143101D01*
X103000D01*
X102400Y142501D01*
Y140701D01*
Y141901D02*
X101201Y143101D01*
Y146100D02*
X104799D01*
X103000Y144300D01*
Y146700D01*
X104799Y147899D02*
Y150299D01*
X104200D01*
X101800Y147899D01*
X101201D01*
X89002Y111799D02*
Y108201D01*
X90801D01*
X91401Y108800D01*
Y110000D01*
X90801Y110600D01*
X89002D01*
X90201D02*
X91401Y111799D01*
X94400D02*
Y108201D01*
X92600Y110000D01*
X95000D01*
X98598Y108201D02*
X97399Y108800D01*
X96199Y110000D01*
Y111200D01*
X96799Y111799D01*
X97999D01*
X98598Y111200D01*
Y110600D01*
X97999Y110000D01*
X96199D01*
X43999Y149201D02*
Y152799D01*
X42200D01*
X41600Y152200D01*
Y151000D01*
X42200Y150400D01*
X43999D01*
X42799D02*
X41600Y149201D01*
X40400Y152200D02*
X39800Y152799D01*
X38601D01*
X38001Y152200D01*
Y151600D01*
X38601Y151000D01*
X38001Y150400D01*
Y149800D01*
X38601Y149201D01*
X39800D01*
X40400Y149800D01*
Y150400D01*
X39800Y151000D01*
X40400Y151600D01*
Y152200D01*
X39800Y151000D02*
X38601D01*
X87999Y235701D02*
Y239299D01*
X86200D01*
X85600Y238700D01*
Y237500D01*
X86200Y236900D01*
X87999D01*
X86799D02*
X85600Y235701D01*
X82601D02*
Y239299D01*
X84400Y237500D01*
X82001D01*
X80171Y235701D02*
Y239299D01*
X78372D01*
X77772Y238700D01*
Y237500D01*
X78372Y236900D01*
X80171D01*
X78972D02*
X77772Y235701D01*
X76572Y238700D02*
X75973Y239299D01*
X74773D01*
X74173Y238700D01*
Y238100D01*
X74773Y237500D01*
X75373D01*
X74773D01*
X74173Y236900D01*
Y236300D01*
X74773Y235701D01*
X75973D01*
X76572Y236300D01*
X80999Y181701D02*
Y185299D01*
X79200D01*
X78600Y184700D01*
Y183500D01*
X79200Y182900D01*
X80999D01*
X79799D02*
X78600Y181701D01*
X75001D02*
X77400D01*
X75001Y184100D01*
Y184700D01*
X75601Y185299D01*
X76800D01*
X77400Y184700D01*
X88899Y203701D02*
Y207299D01*
X87100D01*
X86500Y206700D01*
Y205500D01*
X87100Y204900D01*
X88899D01*
X87700D02*
X86500Y203701D01*
X85300D02*
X84101D01*
X84701D01*
Y207299D01*
X85300Y206700D01*
X35700Y96101D02*
X36299Y95501D01*
Y94301D01*
X35700Y93701D01*
X33300D01*
X32701Y94301D01*
Y95501D01*
X33300Y96101D01*
X32701Y99100D02*
X36299D01*
X34500Y97300D01*
Y99700D01*
X32701Y102699D02*
X36299D01*
X34500Y100899D01*
Y103298D01*
X62399Y137700D02*
X62999Y138299D01*
X64199D01*
X64798Y137700D01*
Y135300D01*
X64199Y134701D01*
X62999D01*
X62399Y135300D01*
X59400Y134701D02*
Y138299D01*
X61200Y136500D01*
X58800D01*
X55202Y134701D02*
X57601D01*
X55202Y137100D01*
Y137700D01*
X55801Y138299D01*
X57001D01*
X57601Y137700D01*
X7700Y55701D02*
X8299Y55101D01*
Y53901D01*
X7700Y53301D01*
X5300D01*
X4701Y53901D01*
Y55101D01*
X5300Y55701D01*
X4701Y58700D02*
X8299D01*
X6500Y56900D01*
Y59299D01*
X4701Y60499D02*
Y61699D01*
Y61099D01*
X8299D01*
X7700Y60499D01*
X14200Y82101D02*
X14799Y81501D01*
Y80301D01*
X14200Y79702D01*
X11800D01*
X11201Y80301D01*
Y81501D01*
X11800Y82101D01*
X11201Y85100D02*
X14799D01*
X13000Y83300D01*
Y85700D01*
X14200Y86899D02*
X14799Y87499D01*
Y88699D01*
X14200Y89298D01*
X11800D01*
X11201Y88699D01*
Y87499D01*
X11800Y86899D01*
X14200D01*
X68899Y123200D02*
X69499Y123799D01*
X70699D01*
X71298Y123200D01*
Y120800D01*
X70699Y120201D01*
X69499D01*
X68899Y120800D01*
X67700Y123200D02*
X67100Y123799D01*
X65900D01*
X65300Y123200D01*
Y122600D01*
X65900Y122000D01*
X66500D01*
X65900D01*
X65300Y121400D01*
Y120800D01*
X65900Y120201D01*
X67100D01*
X67700Y120800D01*
X64101Y123200D02*
X63501Y123799D01*
X62301D01*
X61702Y123200D01*
Y122600D01*
X62301Y122000D01*
X62901D01*
X62301D01*
X61702Y121400D01*
Y120800D01*
X62301Y120201D01*
X63501D01*
X64101Y120800D01*
X112600Y180700D02*
X113200Y181299D01*
X114399D01*
X114999Y180700D01*
Y178300D01*
X114399Y177701D01*
X113200D01*
X112600Y178300D01*
X109001Y181299D02*
X111400D01*
Y179500D01*
X110201Y180100D01*
X109601D01*
X109001Y179500D01*
Y178300D01*
X109601Y177701D01*
X110800D01*
X111400Y178300D01*
X103100Y180700D02*
X103700Y181299D01*
X104899D01*
X105499Y180700D01*
Y178300D01*
X104899Y177701D01*
X103700D01*
X103100Y178300D01*
X100101Y177701D02*
Y181299D01*
X101900Y179500D01*
X99501D01*
X99100Y223200D02*
X99700Y223799D01*
X100899D01*
X101499Y223200D01*
Y220800D01*
X100899Y220201D01*
X99700D01*
X99100Y220800D01*
X97900Y223200D02*
X97300Y223799D01*
X96101D01*
X95501Y223200D01*
Y222600D01*
X96101Y222000D01*
X96701D01*
X96101D01*
X95501Y221400D01*
Y220800D01*
X96101Y220201D01*
X97300D01*
X97900Y220800D01*
D89*
X34663Y21465D02*
Y27791D01*
X31500Y24628D02*
X37826D01*
X43962Y20556D02*
X50288D01*
X79500Y32128D02*
X85826D01*
X85663Y15465D02*
Y21791D01*
X82500Y18628D02*
X88826D01*
M02*
