G04*
G04 #@! TF.GenerationSoftware,Altium Limited,Altium Designer,20.0.10 (225)*
G04*
G04 Layer_Physical_Order=4*
G04 Layer_Color=16711680*
%FSLAX25Y25*%
%MOIN*%
G70*
G01*
G75*
%ADD16C,0.00800*%
%ADD33R,0.05000X0.05000*%
%ADD34C,0.05000*%
%ADD43R,0.04000X0.05500*%
%ADD44R,0.05500X0.04000*%
%ADD59C,0.01000*%
%ADD61C,0.12598*%
%ADD62C,0.06024*%
%ADD63C,0.09449*%
%ADD64C,0.05504*%
%ADD65R,0.05504X0.05504*%
%ADD66C,0.02400*%
G04:AMPARAMS|DCode=81|XSize=47.64mil|YSize=23.23mil|CornerRadius=5.81mil|HoleSize=0mil|Usage=FLASHONLY|Rotation=270.000|XOffset=0mil|YOffset=0mil|HoleType=Round|Shape=RoundedRectangle|*
%AMROUNDEDRECTD81*
21,1,0.04764,0.01161,0,0,270.0*
21,1,0.03602,0.02323,0,0,270.0*
1,1,0.01161,-0.00581,-0.01801*
1,1,0.01161,-0.00581,0.01801*
1,1,0.01161,0.00581,0.01801*
1,1,0.01161,0.00581,-0.01801*
%
%ADD81ROUNDEDRECTD81*%
%ADD82R,0.06772X0.04134*%
%ADD83R,0.04800X0.03000*%
%ADD84R,0.04134X0.06772*%
D16*
X95250Y145750D02*
X95500Y146000D01*
X61250Y145750D02*
X95250D01*
X61000Y145500D02*
X61250Y145750D01*
X111500Y153300D02*
X112000Y153800D01*
X111500Y117000D02*
Y153300D01*
X103500Y153800D02*
X112000D01*
X103500D02*
X103700Y154000D01*
D33*
X95500Y128284D02*
D03*
D34*
Y151906D02*
D03*
Y157811D02*
D03*
Y140094D02*
D03*
Y134189D02*
D03*
Y146000D02*
D03*
D43*
X76200Y128172D02*
D03*
X68800D02*
D03*
X76200Y136500D02*
D03*
X68800D02*
D03*
X31800Y132500D02*
D03*
X39200D02*
D03*
X19800Y165000D02*
D03*
X27200D02*
D03*
X84300Y183500D02*
D03*
X91700D02*
D03*
X97700Y116500D02*
D03*
X90300D02*
D03*
X92700Y199300D02*
D03*
X85300D02*
D03*
D44*
X103500Y153800D02*
D03*
Y161200D02*
D03*
X49500Y95000D02*
D03*
Y102400D02*
D03*
X41172Y95000D02*
D03*
Y102400D02*
D03*
X41500Y156300D02*
D03*
Y163700D02*
D03*
X54500Y155300D02*
D03*
Y162700D02*
D03*
X13000Y68800D02*
D03*
Y76200D02*
D03*
X112000Y161200D02*
D03*
Y153800D02*
D03*
X77000Y231700D02*
D03*
Y224300D02*
D03*
X111700Y197369D02*
D03*
Y189969D02*
D03*
X13000Y54449D02*
D03*
Y61849D02*
D03*
X85500Y231700D02*
D03*
Y224300D02*
D03*
D59*
X41172Y95000D02*
X48750D01*
X49500D01*
X43250Y89500D02*
X48750Y95000D01*
X40000Y89500D02*
X43250D01*
X97000Y174500D02*
Y175000D01*
X97000Y175000D01*
X97000Y174500D02*
Y192567D01*
X97000Y175000D02*
X109300Y162700D01*
X74500Y175194D02*
Y216714D01*
X73500Y217714D02*
Y218000D01*
Y217714D02*
X74500Y216714D01*
X69500Y185748D02*
X71000Y187248D01*
X69500Y174948D02*
Y185748D01*
X13611Y131500D02*
X37836Y155725D01*
X40925D02*
X41500Y156300D01*
X37836Y155725D02*
X40925D01*
X15000Y81500D02*
X21000D01*
X13000Y79500D02*
X15000Y81500D01*
X13000Y76200D02*
Y79500D01*
X13200Y76000D02*
X57209D01*
X13000Y76200D02*
X13200Y76000D01*
X90074Y116726D02*
X90300Y116500D01*
X82226Y116726D02*
X90074D01*
X97700Y118000D02*
X99000Y119300D01*
Y164500D01*
X94000Y169500D02*
X99000Y164500D01*
X97500Y171000D02*
X103000Y165500D01*
X5500Y164000D02*
X12500Y171000D01*
X97500D01*
X5000Y160000D02*
X14500Y169500D01*
X94000D01*
X71000Y187248D02*
Y222000D01*
X15000Y114000D02*
X15200D01*
X22700Y121500D01*
X12000Y140000D02*
X19000D01*
X20214Y99214D02*
X43500Y122500D01*
X20214Y95000D02*
Y99214D01*
X76000Y121500D02*
Y127972D01*
X76200Y128172D01*
X57226Y127774D02*
X67401D01*
X67628Y128000D01*
X68128Y127500D01*
X45500Y131000D02*
Y134000D01*
X53500Y142000D01*
X68128Y127500D02*
X68800Y128172D01*
Y136500D01*
X76000Y128372D02*
Y136300D01*
X7000Y119000D02*
X9500Y121500D01*
X7000Y114500D02*
Y119000D01*
X40700Y129350D02*
X45050Y125000D01*
X47500D01*
X40700Y129350D02*
Y131000D01*
X39200Y132500D02*
X40700Y131000D01*
X23600Y121500D02*
Y130500D01*
X41500Y155800D02*
X54000D01*
X11400Y131500D02*
X13611D01*
X10400Y130500D02*
X11400Y131500D01*
X31500Y132800D02*
Y139000D01*
Y132800D02*
X31800Y132500D01*
X37000Y108000D02*
Y110779D01*
X20617Y88117D02*
Y91617D01*
X37000Y108000D01*
X22700Y121500D02*
X23600D01*
X9500D02*
X10400D01*
X41172Y102400D02*
X49500D01*
X109300Y162700D02*
X111500D01*
X112000Y162200D01*
X97000Y192567D02*
X101181Y196748D01*
X103000Y161000D02*
Y165500D01*
X54000Y155800D02*
X54500Y155300D01*
X41500Y162700D02*
X42300Y163500D01*
X48000D01*
X54800Y162500D02*
X60689D01*
X54500Y162200D02*
X54800Y162500D01*
X16000Y160000D02*
X16268Y160268D01*
Y160718D01*
X19800Y164250D01*
Y165500D01*
X92000Y183800D02*
Y191500D01*
X91700Y183500D02*
X92000Y183800D01*
X27700Y163500D02*
X32500D01*
X91000Y212500D02*
X92700Y210800D01*
Y199300D02*
Y210800D01*
X13304Y54753D02*
X14428Y53967D01*
X13239Y54798D02*
X13242Y54796D01*
X24715Y65215D02*
X51423D01*
X13115Y54252D02*
X14215Y53662D01*
X14485Y53392D02*
X15250D01*
X15449Y55949D02*
X24715Y65215D01*
X13000Y54449D02*
X13115Y54252D01*
X14736Y53751D02*
X15250Y53392D01*
X14428Y53967D02*
X14736Y53751D01*
X13304Y54753D02*
X14500Y55949D01*
X51423Y65215D02*
X57000Y70791D01*
X12499Y55304D02*
X13239Y54798D01*
X12499Y55304D02*
X13000Y54449D01*
X14500Y55949D02*
X15449D01*
X13000Y47000D02*
Y54449D01*
X104612Y213619D02*
Y214691D01*
X77000Y194500D02*
Y224300D01*
X85500Y231700D02*
X90800D01*
X93000Y229500D01*
X7651Y61849D02*
X13000D01*
X4500Y65000D02*
X7651Y61849D01*
X8300Y68800D02*
X13000D01*
X4500Y65000D02*
X8300Y68800D01*
X57209Y76000D02*
X62000Y80791D01*
X113000Y229252D02*
Y235500D01*
X112248Y228500D02*
X113000Y229252D01*
X104760Y198315D02*
Y204809D01*
X103000Y196748D02*
X103193D01*
X104760Y198315D01*
X101181Y196748D02*
X102500D01*
X93000Y229500D02*
X99752D01*
X100752Y228500D01*
X77000Y231700D02*
X85500D01*
X76800Y231500D02*
X77000Y231700D01*
X85500Y224300D02*
X86500Y223300D01*
Y217000D02*
Y223300D01*
X85500Y191300D02*
Y198600D01*
Y184000D02*
Y191300D01*
X68500Y206000D02*
Y215000D01*
X103252Y184500D02*
X111500D01*
X102500Y185252D02*
X103252Y184500D01*
X111500D02*
Y189769D01*
X111700Y189969D01*
X112240Y214691D02*
Y219861D01*
X113000Y220621D01*
X112240Y214691D02*
X112240Y214691D01*
X113000Y220621D02*
Y221000D01*
X68466Y191534D02*
X68500Y191500D01*
X68466Y191534D02*
Y198466D01*
X68432Y198500D02*
X68466Y198466D01*
X112248Y227181D02*
Y228500D01*
X108500Y223433D02*
X112248Y227181D01*
X100752D02*
X104760Y223173D01*
X112240Y197460D02*
Y204809D01*
Y197460D02*
X112500Y197200D01*
X104760Y214691D02*
Y223173D01*
X108500Y214691D02*
Y223433D01*
D61*
X82000Y45791D02*
D03*
X37000D02*
D03*
X105500Y249500D02*
D03*
X13000Y13000D02*
D03*
X105000D02*
D03*
D62*
X34598Y32484D02*
D03*
X74500D02*
D03*
X44500Y26500D02*
D03*
X84402D02*
D03*
D63*
X90504Y57799D02*
D03*
X28496D02*
D03*
D64*
X42000Y80791D02*
D03*
X47000Y70791D02*
D03*
X52000Y80791D02*
D03*
X57000Y70791D02*
D03*
X62000Y80791D02*
D03*
X67000Y70791D02*
D03*
X72000Y80791D02*
D03*
D65*
X77000Y70791D02*
D03*
D66*
X40000Y89500D02*
D03*
X68843Y108067D02*
D03*
X97000Y174500D02*
D03*
X74565Y175194D02*
D03*
X69500D02*
D03*
X79629D02*
D03*
X84694D02*
D03*
X20000Y69500D02*
D03*
X21000Y81500D02*
D03*
X82226Y116726D02*
D03*
X67862Y155500D02*
D03*
X61000Y145500D02*
D03*
X106500Y174500D02*
D03*
X71000Y222000D02*
D03*
X82615Y136615D02*
D03*
X12000Y140000D02*
D03*
X43500Y122500D02*
D03*
X76000Y121500D02*
D03*
X84000Y95500D02*
D03*
X57226Y127774D02*
D03*
X53500Y142000D02*
D03*
X45500Y131000D02*
D03*
X7000Y114500D02*
D03*
X15000Y114000D02*
D03*
X47500Y125000D02*
D03*
X19000Y140000D02*
D03*
X31500Y139000D02*
D03*
X37000Y110779D02*
D03*
X20214Y95000D02*
D03*
X20617Y88117D02*
D03*
X57000Y115500D02*
D03*
X52000D02*
D03*
X57000Y111000D02*
D03*
X52000D02*
D03*
X49500Y102400D02*
D03*
X103500Y54000D02*
D03*
Y74000D02*
D03*
X111500Y117000D02*
D03*
X48000Y163500D02*
D03*
X60689Y162500D02*
D03*
X16000Y160000D02*
D03*
X68432Y205000D02*
D03*
X73500Y218000D02*
D03*
X5000Y160000D02*
D03*
X32500Y163500D02*
D03*
X77000Y194500D02*
D03*
X68432Y198500D02*
D03*
X5500Y164000D02*
D03*
X65500Y160500D02*
D03*
X92000Y191500D02*
D03*
X91000Y212500D02*
D03*
X13000Y47000D02*
D03*
X4500Y65000D02*
D03*
X5500Y77000D02*
D03*
X70500Y51500D02*
D03*
X113000Y235500D02*
D03*
X93000Y229500D02*
D03*
X91500Y238000D02*
D03*
X86500Y217000D02*
D03*
X85500Y191300D02*
D03*
X68500Y215000D02*
D03*
X111500Y184500D02*
D03*
X113000Y221000D02*
D03*
X68610Y191500D02*
D03*
D81*
X104760Y204809D02*
D03*
X112240Y214691D02*
D03*
X104760D02*
D03*
X108500D02*
D03*
X112240Y204809D02*
D03*
D82*
X102500Y196748D02*
D03*
Y185252D02*
D03*
D83*
X10400Y121500D02*
D03*
X23600D02*
D03*
X10400Y130500D02*
D03*
X23600D02*
D03*
D84*
X112248Y228500D02*
D03*
X100752D02*
D03*
M02*
