G04*
G04 #@! TF.GenerationSoftware,Altium Limited,Altium Designer,20.0.10 (225)*
G04*
G04 Layer_Color=16711935*
%FSLAX25Y25*%
%MOIN*%
G70*
G01*
G75*
%ADD12C,0.00000*%
%ADD59C,0.01000*%
%ADD90C,0.00394*%
D12*
X86300Y166200D02*
Y171800D01*
X83800D02*
X86300D01*
X83800Y166200D02*
X86300D01*
X89700D02*
Y171800D01*
Y166200D02*
X92200D01*
X89700Y171800D02*
X92200D01*
X86300Y166200D02*
X89700D01*
X92200D02*
Y171800D01*
X86300D02*
X89700D01*
X83800Y166200D02*
Y171800D01*
X69300Y142200D02*
Y147800D01*
X71800D02*
X75200D01*
X77700Y142200D02*
Y147800D01*
X71800Y142200D02*
X75200D01*
Y147800D02*
X77700D01*
X75200Y142200D02*
X77700D01*
X75200D02*
Y147800D01*
X69300Y142200D02*
X71800D01*
X69300Y147800D02*
X71800D01*
Y142200D02*
Y147800D01*
X100700Y155800D02*
X106300D01*
Y153300D02*
Y155800D01*
X100700Y153300D02*
Y155800D01*
Y159200D02*
X106300D01*
X100700D02*
Y161700D01*
X106300Y159200D02*
Y161700D01*
X100700Y155800D02*
Y159200D01*
Y161700D02*
X106300D01*
Y155800D02*
Y159200D01*
X100700Y153300D02*
X106300D01*
X81200Y106200D02*
X86800D01*
Y108700D01*
X81200Y106200D02*
Y108700D01*
Y102800D02*
X86800D01*
X81200Y100300D02*
Y102800D01*
X86800Y100300D02*
Y102800D01*
X81200D02*
Y106200D01*
Y100300D02*
X86800D01*
Y102800D02*
Y106200D01*
X81200Y108700D02*
X86800D01*
X90200Y102800D02*
X95800D01*
X90200Y105300D02*
Y108700D01*
Y111200D02*
X95800D01*
Y105300D02*
Y108700D01*
X90200D02*
Y111200D01*
X95800Y108700D02*
Y111200D01*
X90200Y108700D02*
X95800D01*
Y102800D02*
Y105300D01*
X90200Y102800D02*
Y105300D01*
X95800D01*
X76700Y125372D02*
Y130972D01*
X70800D02*
X74200D01*
X68300Y125372D02*
Y130972D01*
X70800Y125372D02*
X74200D01*
X68300Y130972D02*
X70800D01*
X68300Y125372D02*
X70800D01*
Y130972D01*
X74200Y125372D02*
X76700D01*
X74200Y130972D02*
X76700D01*
X74200Y125372D02*
Y130972D01*
X76700Y133700D02*
Y139300D01*
X70800D02*
X74200D01*
X68300Y133700D02*
Y139300D01*
X70800Y133700D02*
X74200D01*
X68300Y139300D02*
X70800D01*
X68300Y133700D02*
X70800D01*
Y139300D01*
X74200Y133700D02*
X76700D01*
X74200Y139300D02*
X76700D01*
X74200Y133700D02*
Y139300D01*
X46700Y97000D02*
X52300D01*
Y94500D02*
Y97000D01*
X46700Y94500D02*
Y97000D01*
Y100400D02*
X52300D01*
X46700D02*
Y102900D01*
X52300Y100400D02*
Y102900D01*
X46700Y97000D02*
Y100400D01*
Y102900D02*
X52300D01*
Y97000D02*
Y100400D01*
X46700Y94500D02*
X52300D01*
X38372D02*
X43972D01*
Y97000D02*
Y100400D01*
X38372Y102900D02*
X43972D01*
X38372Y97000D02*
Y100400D01*
X43972D02*
Y102900D01*
X38372Y100400D02*
Y102900D01*
Y100400D02*
X43972D01*
X38372Y94500D02*
Y97000D01*
X43972Y94500D02*
Y97000D01*
X38372D02*
X43972D01*
X36733Y97300D02*
X42333D01*
X36733Y94800D02*
Y97300D01*
X42333Y94800D02*
Y97300D01*
X36733Y100700D02*
X42333D01*
Y103200D01*
X36733Y100700D02*
Y103200D01*
X42333Y97300D02*
Y100700D01*
X36733Y103200D02*
X42333D01*
X36733Y97300D02*
Y100700D01*
Y94800D02*
X42333D01*
X28232Y97300D02*
X33832D01*
X28232Y94800D02*
Y97300D01*
X33832Y94800D02*
Y97300D01*
X28232Y100700D02*
X33832D01*
Y103200D01*
X28232Y100700D02*
Y103200D01*
X33832Y97300D02*
Y100700D01*
X28232Y103200D02*
X33832D01*
X28232Y97300D02*
Y100700D01*
Y94800D02*
X33832D01*
X37200Y149324D02*
X42800D01*
X37200Y146824D02*
Y149324D01*
X42800Y146824D02*
Y149324D01*
X37200Y152724D02*
X42800D01*
Y155224D01*
X37200Y152724D02*
Y155224D01*
X42800Y149324D02*
Y152724D01*
X37200Y155224D02*
X42800D01*
X37200Y149324D02*
Y152724D01*
Y146824D02*
X42800D01*
X38700Y158300D02*
X44300D01*
Y155800D02*
Y158300D01*
X38700Y155800D02*
Y158300D01*
Y161700D02*
X44300D01*
X38700D02*
Y164200D01*
X44300Y161700D02*
Y164200D01*
X38700Y158300D02*
Y161700D01*
Y164200D02*
X44300D01*
Y158300D02*
Y161700D01*
X38700Y155800D02*
X44300D01*
X51700Y157300D02*
X57300D01*
Y154800D02*
Y157300D01*
X51700Y154800D02*
Y157300D01*
Y160700D02*
X57300D01*
X51700D02*
Y163200D01*
X57300Y160700D02*
Y163200D01*
X51700Y157300D02*
Y160700D01*
Y163200D02*
X57300D01*
Y157300D02*
Y160700D01*
X51700Y154800D02*
X57300D01*
X45528Y149324D02*
X51128D01*
X45528Y146824D02*
Y149324D01*
X51128Y146824D02*
Y149324D01*
X45528Y152724D02*
X51128D01*
Y155224D01*
X45528Y152724D02*
Y155224D01*
X51128Y149324D02*
Y152724D01*
X45528Y155224D02*
X51128D01*
X45528Y149324D02*
Y152724D01*
Y146824D02*
X51128D01*
X19300Y162200D02*
Y167800D01*
X21800Y162200D02*
X25200D01*
X27700D02*
Y167800D01*
X21800D02*
X25200D01*
Y162200D02*
X27700D01*
X25200Y167800D02*
X27700D01*
X25200Y162200D02*
Y167800D01*
X19300D02*
X21800D01*
X19300Y162200D02*
X21800D01*
Y167800D01*
X8900Y81200D02*
Y86800D01*
X6400D02*
X8900D01*
X6400Y81200D02*
X8900D01*
X12300D02*
Y86800D01*
Y81200D02*
X14800D01*
X12300Y86800D02*
X14800D01*
X8900Y81200D02*
X12300D01*
X14800D02*
Y86800D01*
X8900D02*
X12300D01*
X6400Y81200D02*
Y86800D01*
X10200Y70800D02*
X15800D01*
Y68300D02*
Y70800D01*
X10200Y68300D02*
Y70800D01*
Y74200D02*
X15800D01*
X10200D02*
Y76700D01*
X15800Y74200D02*
Y76700D01*
X10200Y70800D02*
Y74200D01*
Y76700D02*
X15800D01*
Y70800D02*
Y74200D01*
X10200Y68300D02*
X15800D01*
X28700Y146800D02*
X34300D01*
X28700Y149300D02*
Y152700D01*
Y155200D02*
X34300D01*
Y149300D02*
Y152700D01*
X28700D02*
Y155200D01*
X34300Y152700D02*
Y155200D01*
X28700Y152700D02*
X34300D01*
Y146800D02*
Y149300D01*
X28700Y146800D02*
Y149300D01*
X34300D01*
X20200Y152763D02*
X25800D01*
Y155263D01*
X20200Y152763D02*
Y155263D01*
Y149363D02*
X25800D01*
X20200Y146863D02*
Y149363D01*
X25800Y146863D02*
Y149363D01*
X20200D02*
Y152763D01*
Y146863D02*
X25800D01*
Y149363D02*
Y152763D01*
X20200Y155263D02*
X25800D01*
X3200D02*
X8800D01*
Y149363D02*
Y152763D01*
X3200Y146863D02*
X8800D01*
X3200Y149363D02*
Y152763D01*
X8800Y146863D02*
Y149363D01*
X3200Y146863D02*
Y149363D01*
X8800D01*
X3200Y152763D02*
Y155263D01*
X8800Y152763D02*
Y155263D01*
X3200Y152763D02*
X8800D01*
X11700D02*
X17300D01*
Y155263D01*
X11700Y152763D02*
Y155263D01*
Y149363D02*
X17300D01*
X11700Y146863D02*
Y149363D01*
X17300Y146863D02*
Y149363D01*
X11700D02*
Y152763D01*
Y146863D02*
X17300D01*
Y149363D02*
Y152763D01*
X11700Y155263D02*
X17300D01*
X37200Y129700D02*
Y135300D01*
X39700D01*
X37200Y129700D02*
X39700D01*
X33800D02*
Y135300D01*
X31300Y129700D02*
X33800D01*
X31300Y135300D02*
X33800D01*
Y129700D02*
X37200D01*
X31300D02*
Y135300D01*
X33800D02*
X37200D01*
X39700Y129700D02*
Y135300D01*
X12300Y98200D02*
Y103800D01*
Y98200D02*
X14800D01*
X12300Y103800D02*
X14800D01*
X8900Y98200D02*
Y103800D01*
X6400D02*
X8900D01*
X6400Y98200D02*
X8900D01*
Y103800D02*
X12300D01*
X6400Y98200D02*
Y103800D01*
X8900Y98200D02*
X12300D01*
X14800D02*
Y103800D01*
X12300Y89646D02*
Y95246D01*
Y89646D02*
X14800D01*
X12300Y95246D02*
X14800D01*
X8900Y89646D02*
Y95246D01*
X6400D02*
X8900D01*
X6400Y89646D02*
X8900D01*
Y95246D02*
X12300D01*
X6400Y89646D02*
Y95246D01*
X8900Y89646D02*
X12300D01*
X14800D02*
Y95246D01*
X16200Y60200D02*
Y65800D01*
Y60200D02*
X18700D01*
X16200Y65800D02*
X18700D01*
X12800Y60200D02*
Y65800D01*
X10300D02*
X12800D01*
X10300Y60200D02*
X12800D01*
Y65800D02*
X16200D01*
X10300Y60200D02*
Y65800D01*
X12800Y60200D02*
X16200D01*
X18700D02*
Y65800D01*
X68300Y93700D02*
Y99300D01*
X70800D02*
X74200D01*
X76700Y93700D02*
Y99300D01*
X70800Y93700D02*
X74200D01*
Y99300D02*
X76700D01*
X74200Y93700D02*
X76700D01*
X74200D02*
Y99300D01*
X68300Y93700D02*
X70800D01*
X68300Y99300D02*
X70800D01*
Y93700D02*
Y99300D01*
X109200Y159200D02*
X114800D01*
X109200D02*
Y161700D01*
X114800Y159200D02*
Y161700D01*
X109200Y155800D02*
X114800D01*
Y153300D02*
Y155800D01*
X109200Y153300D02*
Y155800D01*
X114800D02*
Y159200D01*
X109200Y153300D02*
X114800D01*
X109200Y155800D02*
Y159200D01*
Y161700D02*
X114800D01*
X74200Y226300D02*
X79800D01*
Y223800D02*
Y226300D01*
X74200Y223800D02*
Y226300D01*
Y229700D02*
X79800D01*
X74200D02*
Y232200D01*
X79800Y229700D02*
Y232200D01*
X74200Y226300D02*
Y229700D01*
Y232200D02*
X79800D01*
Y226300D02*
Y229700D01*
X74200Y223800D02*
X79800D01*
X86300Y180700D02*
Y186300D01*
X83800Y180700D02*
X86300D01*
X83800Y186300D02*
X86300D01*
X89700Y180700D02*
Y186300D01*
X92200D01*
X89700Y180700D02*
X92200D01*
X86300Y186300D02*
X89700D01*
X92200Y180700D02*
Y186300D01*
X86300Y180700D02*
X89700D01*
X83800D02*
Y186300D01*
X108900Y195369D02*
X114500D01*
X108900D02*
Y197869D01*
X114500Y195369D02*
Y197869D01*
X108900Y191969D02*
X114500D01*
Y189469D02*
Y191969D01*
X108900Y189469D02*
Y191969D01*
X114500D02*
Y195369D01*
X108900Y189469D02*
X114500D01*
X108900Y191969D02*
Y195369D01*
Y197869D02*
X114500D01*
X10200Y59849D02*
X15800D01*
X10200D02*
Y62349D01*
X15800Y59849D02*
Y62349D01*
X10200Y56449D02*
X15800D01*
Y53949D02*
Y56449D01*
X10200Y53949D02*
Y56449D01*
X15800D02*
Y59849D01*
X10200Y53949D02*
X15800D01*
X10200Y56449D02*
Y59849D01*
Y62349D02*
X15800D01*
X89800Y113700D02*
Y119300D01*
X92300Y113700D02*
X95700D01*
X98200D02*
Y119300D01*
X92300D02*
X95700D01*
Y113700D02*
X98200D01*
X95700Y119300D02*
X98200D01*
X95700Y113700D02*
Y119300D01*
X89800D02*
X92300D01*
X89800Y113700D02*
X92300D01*
Y119300D01*
X55300Y57079D02*
Y62679D01*
X57800D02*
X61200D01*
X63700Y57079D02*
Y62679D01*
X57800Y57079D02*
X61200D01*
Y62679D02*
X63700D01*
X61200Y57079D02*
X63700D01*
X61200D02*
Y62679D01*
X55300Y57079D02*
X57800D01*
X55300Y62679D02*
X57800D01*
Y57079D02*
Y62679D01*
X55300Y48579D02*
Y54179D01*
X57800D02*
X61200D01*
X63700Y48579D02*
Y54179D01*
X57800Y48579D02*
X61200D01*
Y54179D02*
X63700D01*
X61200Y48579D02*
X63700D01*
X61200D02*
Y54179D01*
X55300Y48579D02*
X57800D01*
X55300Y54179D02*
X57800D01*
Y48579D02*
Y54179D01*
X63700Y40079D02*
Y45679D01*
X57800Y40079D02*
X61200D01*
X55300D02*
Y45679D01*
X57800D02*
X61200D01*
X55300Y40079D02*
X57800D01*
X55300Y45679D02*
X57800D01*
Y40079D02*
Y45679D01*
X61200D02*
X63700D01*
X61200Y40079D02*
X63700D01*
X61200D02*
Y45679D01*
X82700Y226300D02*
X88300D01*
Y223800D02*
Y226300D01*
X82700Y223800D02*
Y226300D01*
Y229700D02*
X88300D01*
X82700D02*
Y232200D01*
X88300Y229700D02*
Y232200D01*
X82700Y226300D02*
Y229700D01*
Y232200D02*
X88300D01*
Y226300D02*
Y229700D01*
X82700Y223800D02*
X88300D01*
X84800Y196500D02*
Y202100D01*
X87300Y196500D02*
X90700D01*
X93200D02*
Y202100D01*
X87300D02*
X90700D01*
Y196500D02*
X93200D01*
X90700Y202100D02*
X93200D01*
X90700Y196500D02*
Y202100D01*
X84800D02*
X87300D01*
X84800Y196500D02*
X87300D01*
Y202100D01*
D59*
X117500Y262121D02*
X117500Y0D01*
X0D02*
X117500D01*
X0D02*
Y262121D01*
X117500D01*
D90*
X81213Y203500D02*
X82787D01*
X82000Y202713D02*
Y204287D01*
X81000Y182713D02*
Y184287D01*
X80213Y183500D02*
X81787D01*
M02*
