G04*
G04 #@! TF.GenerationSoftware,Altium Limited,Altium Designer,20.0.10 (225)*
G04*
G04 Layer_Color=16711935*
%FSLAX25Y25*%
%MOIN*%
G70*
G01*
G75*
%ADD19R,0.04800X0.06300*%
%ADD20R,0.06300X0.04800*%
%ADD33R,0.05000X0.05000*%
%ADD34C,0.05000*%
%ADD35C,0.13398*%
%ADD36C,0.06824*%
%ADD37C,0.10249*%
%ADD38C,0.06304*%
%ADD39R,0.06304X0.06304*%
%ADD40C,0.03200*%
G04:AMPARAMS|DCode=85|XSize=55.64mil|YSize=31.23mil|CornerRadius=9.81mil|HoleSize=0mil|Usage=FLASHONLY|Rotation=270.000|XOffset=0mil|YOffset=0mil|HoleType=Round|Shape=RoundedRectangle|*
%AMROUNDEDRECTD85*
21,1,0.05564,0.01161,0,0,270.0*
21,1,0.03602,0.03123,0,0,270.0*
1,1,0.01961,-0.00581,-0.01801*
1,1,0.01961,-0.00581,0.01801*
1,1,0.01961,0.00581,0.01801*
1,1,0.01961,0.00581,-0.01801*
%
%ADD85ROUNDEDRECTD85*%
%ADD86R,0.07572X0.04934*%
%ADD87R,0.05600X0.03800*%
%ADD88R,0.04934X0.07572*%
D19*
X76200Y128172D02*
D03*
X68800D02*
D03*
X76200Y136500D02*
D03*
X68800D02*
D03*
X31800Y132500D02*
D03*
X39200D02*
D03*
X19800Y165000D02*
D03*
X27200D02*
D03*
X84300Y183500D02*
D03*
X91700D02*
D03*
X97700Y116500D02*
D03*
X90300D02*
D03*
X92700Y199300D02*
D03*
X85300D02*
D03*
D20*
X103500Y153800D02*
D03*
Y161200D02*
D03*
X49500Y95000D02*
D03*
Y102400D02*
D03*
X41172Y95000D02*
D03*
Y102400D02*
D03*
X41500Y156300D02*
D03*
Y163700D02*
D03*
X54500Y155300D02*
D03*
Y162700D02*
D03*
X13000Y68800D02*
D03*
Y76200D02*
D03*
X112000Y161200D02*
D03*
Y153800D02*
D03*
X77000Y231700D02*
D03*
Y224300D02*
D03*
X111700Y197369D02*
D03*
Y189969D02*
D03*
X13000Y54449D02*
D03*
Y61849D02*
D03*
X85500Y231700D02*
D03*
Y224300D02*
D03*
D33*
X95500Y128284D02*
D03*
D34*
Y151906D02*
D03*
Y157811D02*
D03*
Y140094D02*
D03*
Y134189D02*
D03*
Y146000D02*
D03*
D35*
X82000Y45791D02*
D03*
X37000D02*
D03*
X105500Y249500D02*
D03*
X13000Y13000D02*
D03*
X105000D02*
D03*
D36*
X34598Y32484D02*
D03*
X74500D02*
D03*
X44500Y26500D02*
D03*
X84402D02*
D03*
D37*
X90504Y57799D02*
D03*
X28496D02*
D03*
D38*
X42000Y80791D02*
D03*
X47000Y70791D02*
D03*
X52000Y80791D02*
D03*
X57000Y70791D02*
D03*
X62000Y80791D02*
D03*
X67000Y70791D02*
D03*
X72000Y80791D02*
D03*
D39*
X77000Y70791D02*
D03*
D40*
X40000Y89500D02*
D03*
X68843Y108067D02*
D03*
X97000Y174500D02*
D03*
X74565Y175194D02*
D03*
X69500D02*
D03*
X79629D02*
D03*
X84694D02*
D03*
X20000Y69500D02*
D03*
X21000Y81500D02*
D03*
X82226Y116726D02*
D03*
X67862Y155500D02*
D03*
X61000Y145500D02*
D03*
X106500Y174500D02*
D03*
X71000Y222000D02*
D03*
X82615Y136615D02*
D03*
X12000Y140000D02*
D03*
X43500Y122500D02*
D03*
X76000Y121500D02*
D03*
X84000Y95500D02*
D03*
X57226Y127774D02*
D03*
X53500Y142000D02*
D03*
X45500Y131000D02*
D03*
X7000Y114500D02*
D03*
X15000Y114000D02*
D03*
X47500Y125000D02*
D03*
X19000Y140000D02*
D03*
X31500Y139000D02*
D03*
X37000Y110779D02*
D03*
X20214Y95000D02*
D03*
X20617Y88117D02*
D03*
X57000Y115500D02*
D03*
X52000D02*
D03*
X57000Y111000D02*
D03*
X52000D02*
D03*
X49500Y102400D02*
D03*
X103500Y54000D02*
D03*
Y74000D02*
D03*
X111500Y117000D02*
D03*
X48000Y163500D02*
D03*
X60689Y162500D02*
D03*
X16000Y160000D02*
D03*
X68432Y205000D02*
D03*
X73500Y218000D02*
D03*
X5000Y160000D02*
D03*
X32500Y163500D02*
D03*
X77000Y194500D02*
D03*
X68432Y198500D02*
D03*
X5500Y164000D02*
D03*
X65500Y160500D02*
D03*
X92000Y191500D02*
D03*
X91000Y212500D02*
D03*
X13000Y47000D02*
D03*
X4500Y65000D02*
D03*
X5500Y77000D02*
D03*
X70500Y51500D02*
D03*
X113000Y235500D02*
D03*
X93000Y229500D02*
D03*
X91500Y238000D02*
D03*
X86500Y217000D02*
D03*
X85500Y191300D02*
D03*
X68500Y215000D02*
D03*
X111500Y184500D02*
D03*
X113000Y221000D02*
D03*
X68610Y191500D02*
D03*
D85*
X104760Y204809D02*
D03*
X112240Y214691D02*
D03*
X104760D02*
D03*
X108500D02*
D03*
X112240Y204809D02*
D03*
D86*
X102500Y196748D02*
D03*
Y185252D02*
D03*
D87*
X10400Y121500D02*
D03*
X23600D02*
D03*
X10400Y130500D02*
D03*
X23600D02*
D03*
D88*
X112248Y228500D02*
D03*
X100752D02*
D03*
M02*
