G04*
G04 #@! TF.GenerationSoftware,Altium Limited,Altium Designer,20.0.10 (225)*
G04*
G04 Layer_Physical_Order=1*
G04 Layer_Color=255*
%FSLAX25Y25*%
%MOIN*%
G70*
G01*
G75*
%ADD12C,0.00000*%
%ADD16C,0.00800*%
%ADD33R,0.05000X0.05000*%
%ADD34C,0.05000*%
%ADD41R,0.03937X0.04331*%
%ADD42R,0.04331X0.03937*%
%ADD43R,0.04000X0.05500*%
%ADD44R,0.05500X0.04000*%
%ADD45R,0.09843X0.09843*%
G04:AMPARAMS|DCode=46|XSize=27.95mil|YSize=10.63mil|CornerRadius=3.72mil|HoleSize=0mil|Usage=FLASHONLY|Rotation=0.000|XOffset=0mil|YOffset=0mil|HoleType=Round|Shape=RoundedRectangle|*
%AMROUNDEDRECTD46*
21,1,0.02795,0.00319,0,0,0.0*
21,1,0.02051,0.01063,0,0,0.0*
1,1,0.00744,0.01026,-0.00160*
1,1,0.00744,-0.01026,-0.00160*
1,1,0.00744,-0.01026,0.00160*
1,1,0.00744,0.01026,0.00160*
%
%ADD46ROUNDEDRECTD46*%
G04:AMPARAMS|DCode=47|XSize=27.95mil|YSize=10.63mil|CornerRadius=3.72mil|HoleSize=0mil|Usage=FLASHONLY|Rotation=90.000|XOffset=0mil|YOffset=0mil|HoleType=Round|Shape=RoundedRectangle|*
%AMROUNDEDRECTD47*
21,1,0.02795,0.00319,0,0,90.0*
21,1,0.02051,0.01063,0,0,90.0*
1,1,0.00744,0.00160,0.01026*
1,1,0.00744,0.00160,-0.01026*
1,1,0.00744,-0.00160,-0.01026*
1,1,0.00744,-0.00160,0.01026*
%
%ADD47ROUNDEDRECTD47*%
%ADD48R,0.03819X0.03937*%
%ADD49R,0.00748X0.02795*%
%ADD50R,0.00748X0.03032*%
G04:AMPARAMS|DCode=51|XSize=35.43mil|YSize=29.53mil|CornerRadius=2.22mil|HoleSize=0mil|Usage=FLASHONLY|Rotation=90.000|XOffset=0mil|YOffset=0mil|HoleType=Round|Shape=RoundedRectangle|*
%AMROUNDEDRECTD51*
21,1,0.03543,0.02510,0,0,90.0*
21,1,0.03100,0.02953,0,0,90.0*
1,1,0.00443,0.01255,0.01550*
1,1,0.00443,0.01255,-0.01550*
1,1,0.00443,-0.01255,-0.01550*
1,1,0.00443,-0.01255,0.01550*
%
%ADD51ROUNDEDRECTD51*%
%ADD52C,0.03150*%
G04:AMPARAMS|DCode=53|XSize=35.43mil|YSize=29.53mil|CornerRadius=2.22mil|HoleSize=0mil|Usage=FLASHONLY|Rotation=0.000|XOffset=0mil|YOffset=0mil|HoleType=Round|Shape=RoundedRectangle|*
%AMROUNDEDRECTD53*
21,1,0.03543,0.02510,0,0,0.0*
21,1,0.03100,0.02953,0,0,0.0*
1,1,0.00443,0.01550,-0.01255*
1,1,0.00443,-0.01550,-0.01255*
1,1,0.00443,-0.01550,0.01255*
1,1,0.00443,0.01550,0.01255*
%
%ADD53ROUNDEDRECTD53*%
%ADD54R,0.05906X0.05906*%
%ADD55R,0.06299X0.08622*%
%ADD56R,0.05906X0.10236*%
%ADD57R,0.01575X0.02362*%
%ADD58R,0.03347X0.02953*%
%ADD59C,0.01000*%
%ADD60R,0.37500X0.70000*%
%ADD61C,0.12598*%
%ADD62C,0.06024*%
%ADD63C,0.09449*%
%ADD64C,0.05504*%
%ADD65R,0.05504X0.05504*%
%ADD66C,0.02400*%
D12*
X63714Y218347D02*
X63735Y218621D01*
X63714Y218895D02*
X63321Y219760D01*
X62537Y220298D01*
X61588Y220353D01*
X60748Y219910D01*
X60257Y219096D01*
Y218146D01*
X60748Y217333D01*
X61588Y216890D01*
X62537Y216945D01*
X63321Y217482D01*
X63714Y218347D01*
Y227796D02*
X63735Y228070D01*
X63467Y229007D01*
X62745Y229660D01*
X61786Y229833D01*
X60881Y229472D01*
X60303Y228688D01*
X60228Y227717D01*
X60677Y226852D01*
X61515Y226356D01*
X62489Y226378D01*
X63304Y226912D01*
X63714Y227796D01*
X63735Y213897D02*
X63498Y214783D01*
X62849Y215431D01*
X61963Y215669D01*
X61078Y215431D01*
X60429Y214783D01*
X60192Y213897D01*
X60429Y213011D01*
X61078Y212363D01*
X61963Y212125D01*
X62849Y212363D01*
X63498Y213011D01*
X63735Y213897D01*
X60636Y179653D02*
X61538Y179106D01*
X62591Y179169D01*
X63421Y179819D01*
X63735Y180826D01*
X60537Y179776D02*
X60636Y179653D01*
X9798Y251692D02*
X9517Y252650D01*
X8762Y253304D01*
X7774Y253446D01*
X6866Y253031D01*
X6327Y252191D01*
Y251193D01*
X6866Y250353D01*
X7774Y249939D01*
X8762Y250081D01*
X9517Y250734D01*
X9798Y251692D01*
Y242243D02*
X9546Y243154D01*
X8862Y243806D01*
X7940Y244013D01*
X7043Y243717D01*
X6425Y243001D01*
X6263Y242071D01*
X9798Y237519D02*
X9537Y238444D01*
X8832Y239097D01*
X7889Y239285D01*
X6987Y238953D01*
X6391Y238199D01*
X6276Y237245D01*
X6263Y242071D02*
X6331Y241729D01*
Y223860D02*
X6276Y223620D01*
X6259Y223221D01*
X52045Y168107D02*
X52510Y168326D01*
X51530Y168031D02*
X52045Y168107D01*
X42356Y168052D02*
X42478Y168076D01*
X42082Y168031D02*
X42356Y168052D01*
X37872Y168107D02*
X38780Y168747D01*
X39129Y169802D01*
X37500Y168036D02*
X37872Y168107D01*
X37432Y168032D02*
X37500Y168036D01*
X37357Y168031D02*
X37432Y168032D01*
X39129Y169802D02*
X38830Y170787D01*
X38035Y171439D01*
X37012Y171540D01*
X36105Y171055D01*
X35620Y170148D01*
X35721Y169124D01*
X36373Y168329D01*
X37357Y168031D01*
X27908D02*
X28182Y168052D01*
X28948Y168368D01*
X29487Y168997D01*
X29680Y169802D01*
X27572Y168063D02*
X27908Y168031D01*
X29680Y169802D02*
X29405Y170751D01*
X28664Y171405D01*
X27688Y171560D01*
X26781Y171169D01*
X26224Y170353D01*
X26191Y169365D01*
X26693Y168514D01*
X27572Y168063D01*
X41932Y168037D02*
X42082Y168031D01*
X42478Y168076D02*
X42596Y168107D01*
X43505Y168747D01*
X43853Y169802D01*
X32633Y168031D02*
X33147Y168107D01*
X32432Y168042D02*
X32633Y168031D01*
X43853Y169802D02*
X43565Y170771D01*
X42794Y171424D01*
X41791Y171550D01*
X40883Y171107D01*
X40365Y170239D01*
X40405Y169229D01*
X40991Y168406D01*
X41932Y168037D01*
X34405Y169802D02*
X34120Y170766D01*
X33357Y171419D01*
X32362Y171553D01*
X31453Y171124D01*
X30924Y170270D01*
X30944Y169266D01*
X31507Y168434D01*
X32432Y168042D01*
X18186Y168052D02*
X18258Y168042D01*
X18123Y168063D02*
X18186Y168052D01*
X18258Y168042D02*
X18432Y168031D01*
X18460Y168031D01*
X52510Y168326D02*
X53092Y168965D01*
X53302Y169802D01*
X47320Y168107D02*
X48229Y168747D01*
X48578Y169802D01*
X47271Y168093D02*
X47320Y168107D01*
X18734Y168052D02*
X19499Y168368D01*
X20038Y168997D01*
X20231Y169802D01*
X18460Y168031D02*
X18734Y168052D01*
X6331Y241729D02*
X6876Y240896D01*
X7784Y240488D01*
X8768Y240634D01*
X9519Y241288D01*
X9798Y242243D01*
X63735Y180826D02*
X63484Y181736D01*
X62800Y182388D01*
X61879Y182596D01*
X60982Y182301D01*
X60364Y181588D01*
X60200Y180658D01*
X60537Y179776D01*
X6276Y237245D02*
X6733Y236308D01*
X7638Y235790D01*
X8677Y235871D01*
X9492Y236523D01*
X9798Y237519D01*
Y223346D02*
X9519Y224301D01*
X8768Y224955D01*
X7784Y225101D01*
X6876Y224693D01*
X6331Y223860D01*
X9798Y190275D02*
X9556Y191168D01*
X8897Y191818D01*
X8000Y192046D01*
X7110Y191791D01*
X6470Y191122D01*
X6256Y190221D01*
X6259Y223221D02*
X6654Y222225D01*
X7551Y221639D01*
X8621Y221677D01*
X9474Y222325D01*
X9798Y223346D01*
X20231Y253267D02*
X19950Y254225D01*
X19196Y254878D01*
X18207Y255021D01*
X17299Y254606D01*
X16760Y253766D01*
Y252768D01*
X17299Y251928D01*
X18207Y251513D01*
X19196Y251655D01*
X19950Y252309D01*
X20231Y253267D01*
X24956D02*
X24674Y254225D01*
X23920Y254878D01*
X22932Y255021D01*
X22024Y254606D01*
X21484Y253766D01*
Y252768D01*
X22024Y251928D01*
X22932Y251513D01*
X23920Y251655D01*
X24674Y252309D01*
X24956Y253267D01*
X29680D02*
X29399Y254225D01*
X28644Y254878D01*
X27656Y255021D01*
X26748Y254606D01*
X26209Y253766D01*
Y252768D01*
X26748Y251928D01*
X27656Y251513D01*
X28644Y251655D01*
X29399Y252309D01*
X29680Y253267D01*
X34405D02*
X34123Y254225D01*
X33369Y254878D01*
X32381Y255021D01*
X31473Y254606D01*
X30933Y253766D01*
Y252768D01*
X31473Y251928D01*
X32381Y251513D01*
X33369Y251655D01*
X34123Y252309D01*
X34405Y253267D01*
X39129D02*
X38848Y254225D01*
X38093Y254878D01*
X37105Y255021D01*
X36197Y254606D01*
X35657Y253766D01*
Y252768D01*
X36197Y251928D01*
X37105Y251513D01*
X38093Y251655D01*
X38848Y252309D01*
X39129Y253267D01*
X43853D02*
X43572Y254225D01*
X42818Y254878D01*
X41829Y255021D01*
X40922Y254606D01*
X40382Y253766D01*
Y252768D01*
X40922Y251928D01*
X41829Y251513D01*
X42818Y251655D01*
X43572Y252309D01*
X43853Y253267D01*
X48578D02*
X48296Y254225D01*
X47542Y254878D01*
X46554Y255021D01*
X45646Y254606D01*
X45106Y253766D01*
Y252768D01*
X45646Y251928D01*
X46554Y251513D01*
X47542Y251655D01*
X48296Y252309D01*
X48578Y253267D01*
X53302D02*
X53021Y254225D01*
X52266Y254878D01*
X51278Y255021D01*
X50370Y254606D01*
X49831Y253766D01*
Y252768D01*
X50370Y251928D01*
X51278Y251513D01*
X52266Y251655D01*
X53021Y252309D01*
X53302Y253267D01*
X9798Y228070D02*
X9517Y229028D01*
X8762Y229682D01*
X7774Y229824D01*
X6866Y229409D01*
X6327Y228569D01*
Y227571D01*
X6866Y226731D01*
X7774Y226316D01*
X8762Y226459D01*
X9517Y227112D01*
X9798Y228070D01*
Y232794D02*
X9517Y233752D01*
X8762Y234406D01*
X7774Y234548D01*
X6866Y234134D01*
X6327Y233294D01*
Y232295D01*
X6866Y231456D01*
X7774Y231041D01*
X8762Y231183D01*
X9517Y231837D01*
X9798Y232794D01*
Y246968D02*
X9517Y247926D01*
X8762Y248579D01*
X7774Y248721D01*
X6866Y248307D01*
X6327Y247467D01*
Y246469D01*
X6866Y245629D01*
X7774Y245214D01*
X8762Y245356D01*
X9517Y246010D01*
X9798Y246968D01*
Y171377D02*
X9517Y172335D01*
X8762Y172989D01*
X7774Y173131D01*
X6866Y172716D01*
X6327Y171876D01*
Y170878D01*
X6866Y170038D01*
X7774Y169624D01*
X8762Y169766D01*
X9517Y170419D01*
X9798Y171377D01*
Y176102D02*
X9517Y177059D01*
X8762Y177713D01*
X7774Y177855D01*
X6866Y177441D01*
X6327Y176601D01*
Y175602D01*
X6866Y174763D01*
X7774Y174348D01*
X8762Y174490D01*
X9517Y175144D01*
X9798Y176102D01*
Y180826D02*
X9517Y181784D01*
X8762Y182438D01*
X7774Y182580D01*
X6866Y182165D01*
X6327Y181325D01*
Y180327D01*
X6866Y179487D01*
X7774Y179072D01*
X8762Y179215D01*
X9517Y179868D01*
X9798Y180826D01*
Y194999D02*
X9517Y195957D01*
X8762Y196611D01*
X7774Y196753D01*
X6866Y196338D01*
X6327Y195498D01*
Y194500D01*
X6866Y193660D01*
X7774Y193246D01*
X8762Y193388D01*
X9517Y194041D01*
X9798Y194999D01*
Y199724D02*
X9517Y200681D01*
X8762Y201335D01*
X7774Y201477D01*
X6866Y201063D01*
X6327Y200223D01*
Y199224D01*
X6866Y198385D01*
X7774Y197970D01*
X8762Y198112D01*
X9517Y198766D01*
X9798Y199724D01*
Y204448D02*
X9517Y205406D01*
X8762Y206060D01*
X7774Y206202D01*
X6866Y205787D01*
X6327Y204947D01*
Y203949D01*
X6866Y203109D01*
X7774Y202695D01*
X8762Y202836D01*
X9517Y203490D01*
X9798Y204448D01*
Y209173D02*
X9517Y210130D01*
X8762Y210784D01*
X7774Y210926D01*
X6866Y210511D01*
X6327Y209672D01*
Y208673D01*
X6866Y207834D01*
X7774Y207419D01*
X8762Y207561D01*
X9517Y208215D01*
X9798Y209173D01*
Y213897D02*
X9517Y214855D01*
X8762Y215508D01*
X7774Y215651D01*
X6866Y215236D01*
X6327Y214396D01*
Y213398D01*
X6866Y212558D01*
X7774Y212143D01*
X8762Y212285D01*
X9517Y212939D01*
X9798Y213897D01*
Y218621D02*
X9517Y219579D01*
X8762Y220233D01*
X7774Y220375D01*
X6866Y219960D01*
X6327Y219120D01*
Y218122D01*
X6866Y217282D01*
X7774Y216868D01*
X8762Y217010D01*
X9517Y217664D01*
X9798Y218621D01*
X63735Y190275D02*
X63454Y191233D01*
X62700Y191886D01*
X61711Y192028D01*
X60803Y191614D01*
X60264Y190774D01*
Y189776D01*
X60803Y188936D01*
X61711Y188521D01*
X62700Y188663D01*
X63454Y189317D01*
X63735Y190275D01*
Y176102D02*
X63454Y177059D01*
X62700Y177713D01*
X61711Y177855D01*
X60803Y177441D01*
X60264Y176601D01*
Y175602D01*
X60803Y174763D01*
X61711Y174348D01*
X62700Y174490D01*
X63454Y175144D01*
X63735Y176102D01*
Y251692D02*
X63454Y252650D01*
X62700Y253304D01*
X61711Y253446D01*
X60803Y253031D01*
X60264Y252191D01*
Y251193D01*
X60803Y250353D01*
X61711Y249939D01*
X62700Y250081D01*
X63454Y250734D01*
X63735Y251692D01*
Y246968D02*
X63454Y247926D01*
X62700Y248579D01*
X61711Y248721D01*
X60803Y248307D01*
X60264Y247467D01*
Y246469D01*
X60803Y245629D01*
X61711Y245214D01*
X62700Y245356D01*
X63454Y246010D01*
X63735Y246968D01*
Y242243D02*
X63454Y243201D01*
X62700Y243855D01*
X61711Y243997D01*
X60803Y243582D01*
X60264Y242742D01*
Y241744D01*
X60803Y240904D01*
X61711Y240490D01*
X62700Y240632D01*
X63454Y241285D01*
X63735Y242243D01*
Y237519D02*
X63454Y238477D01*
X62700Y239130D01*
X61711Y239273D01*
X60803Y238858D01*
X60264Y238018D01*
Y237020D01*
X60803Y236180D01*
X61711Y235765D01*
X62700Y235907D01*
X63454Y236561D01*
X63735Y237519D01*
Y232794D02*
X63454Y233752D01*
X62700Y234406D01*
X61711Y234548D01*
X60803Y234134D01*
X60264Y233294D01*
Y232295D01*
X60803Y231456D01*
X61711Y231041D01*
X62700Y231183D01*
X63454Y231837D01*
X63735Y232794D01*
Y223346D02*
X63454Y224304D01*
X62700Y224957D01*
X61711Y225099D01*
X60803Y224685D01*
X60264Y223845D01*
Y222847D01*
X60803Y222007D01*
X61711Y221592D01*
X62700Y221734D01*
X63454Y222388D01*
X63735Y223346D01*
X9453Y189225D02*
X9798Y190275D01*
X47143Y168063D02*
X47271Y168093D01*
X33147Y168107D02*
X34056Y168747D01*
X34405Y169802D01*
X53302D02*
X53004Y170787D01*
X52209Y171439D01*
X51185Y171540D01*
X50278Y171055D01*
X49793Y170148D01*
X49894Y169124D01*
X50546Y168329D01*
X51530Y168031D01*
X46292Y168107D02*
X46806Y168031D01*
X46932Y168035D01*
X47107Y168056D01*
X47143Y168063D01*
X48578Y169802D02*
X48314Y170732D01*
X47603Y171385D01*
X46654Y171567D01*
X45751Y171225D01*
X45161Y170460D01*
X45061Y169500D01*
X45479Y168629D01*
X46292Y168107D01*
X6331Y185036D02*
X6876Y184203D01*
X7784Y183795D01*
X8768Y183941D01*
X9519Y184595D01*
X9798Y185550D01*
X9516Y186511D01*
X8758Y187164D01*
X7767Y187303D01*
X6858Y186882D01*
X6323Y186037D01*
X6331Y185036D01*
X63735Y204448D02*
X63734Y204500D01*
X63735Y199724D02*
X63479Y200641D01*
X62785Y201293D01*
X61853Y201492D01*
X60953Y201179D01*
X60346Y200445D01*
X60206Y199503D01*
X60574Y198624D01*
X61344Y198064D01*
X62294Y197983D01*
X63147Y198406D01*
X63659Y199209D01*
X63734Y204500D02*
X63714Y204722D01*
X63321Y205587D01*
X62537Y206124D01*
X61588Y206180D01*
X60748Y205737D01*
X60257Y204923D01*
Y203973D01*
X60748Y203159D01*
X61588Y202717D01*
X62537Y202772D01*
X63321Y203309D01*
X63714Y204174D01*
X63735Y204448D01*
X63734Y209118D02*
X63735Y209173D01*
X63735Y185500D02*
X63735Y185550D01*
X17945Y168107D02*
X18123Y168063D01*
X20231Y169802D02*
X19968Y170732D01*
X19256Y171385D01*
X18308Y171567D01*
X17404Y171225D01*
X16815Y170460D01*
X16714Y169500D01*
X17132Y168629D01*
X17945Y168107D01*
X23184Y168031D02*
X24070Y168268D01*
X24718Y168917D01*
X24956Y169802D01*
X24692Y170732D01*
X23981Y171385D01*
X23032Y171567D01*
X22129Y171225D01*
X21539Y170460D01*
X21439Y169500D01*
X21857Y168629D01*
X22670Y168107D01*
X22764Y168081D01*
X22910Y168052D01*
X23184Y168031D01*
X63659Y199209D02*
X63721Y199500D01*
X63735Y199724D01*
X63693Y185168D02*
X63714Y185276D01*
X63735Y195000D02*
X63731Y195121D01*
X63406Y196028D01*
X62654Y196631D01*
X61698Y196751D01*
X60820Y196353D01*
X60281Y195554D01*
X60239Y194591D01*
X60708Y193749D01*
X61548Y193277D01*
X62511Y193314D01*
X63312Y193850D01*
X63714Y194725D01*
X63735Y194999D02*
Y195000D01*
X63714Y194725D02*
X63735Y194999D01*
X6287Y189938D02*
X6755Y189041D01*
X7637Y188547D01*
X8646Y188615D01*
X9453Y189225D01*
X6256Y190221D02*
X6287Y189938D01*
X63714Y208898D02*
X63734Y209118D01*
X63735Y209173D02*
X63703Y209509D01*
X63283Y210355D01*
X62487Y210865D01*
X61543Y210894D01*
X60719Y210433D01*
X60248Y209614D01*
X60265Y208669D01*
X60765Y207868D01*
X61605Y207437D01*
X62548Y207500D01*
X63324Y208038D01*
X63714Y208898D01*
X63725Y218813D02*
X63714Y218895D01*
X63735Y218621D02*
X63725Y218813D01*
X63703Y171714D02*
X63659Y171891D01*
X63735Y171377D02*
X63703Y171714D01*
X63659Y171891D02*
X63095Y172740D01*
X62157Y173138D01*
X61155Y172954D01*
X60421Y172248D01*
X60196Y171254D01*
X60556Y170301D01*
X61382Y169704D01*
X62400Y169660D01*
X63274Y170184D01*
X63714Y171103D01*
X63735Y171377D01*
Y185550D02*
X63479Y186468D01*
X62785Y187120D01*
X61853Y187319D01*
X60953Y187006D01*
X60346Y186272D01*
X60206Y185330D01*
X60574Y184451D01*
X61344Y183890D01*
X62294Y183810D01*
X63147Y184232D01*
X63659Y185036D01*
X63693Y185168D01*
X63714Y185276D02*
X63715Y185285D01*
X63735Y185500D01*
D16*
X75311Y169449D02*
Y174014D01*
X74565Y174761D02*
X75311Y174014D01*
X74565Y174761D02*
Y175194D01*
X75337Y169475D02*
Y170718D01*
X75311Y169449D02*
X75337Y169475D01*
X69794Y174706D02*
X73933Y170567D01*
Y168949D02*
Y170567D01*
X82840Y175194D02*
X84694D01*
X78093Y170447D02*
X82840Y175194D01*
X76689Y172012D02*
X79337Y174660D01*
X76689Y170447D02*
Y172012D01*
X64093Y155500D02*
X67862D01*
X68150D01*
X68500Y155150D01*
X63567Y154974D02*
X64093Y155500D01*
X77200Y144250D02*
Y145000D01*
Y144250D02*
X78800Y142650D01*
X79550D01*
X91817Y130384D01*
X93400D01*
X95500Y128284D01*
X94896Y140698D02*
X95500Y140094D01*
X90829Y140698D02*
X94896D01*
X74000Y155689D02*
X90291Y139398D01*
X90291D01*
X74000Y155689D02*
Y164242D01*
X75311Y156216D02*
Y165551D01*
Y156216D02*
X90829Y140698D01*
X90291Y139398D02*
X95500Y134189D01*
X60809Y145691D02*
Y150549D01*
Y145691D02*
X61000Y145500D01*
X68388Y138568D02*
Y141082D01*
X62189Y147281D02*
X68388Y141082D01*
X62189Y147281D02*
Y150551D01*
X84346Y160500D02*
X84500Y160346D01*
X79000Y160500D02*
X84346D01*
X76689Y162811D02*
Y165551D01*
Y162811D02*
X79000Y160500D01*
X84500Y153654D02*
X92615D01*
X94363Y151906D01*
X95500D01*
X106306Y174306D02*
Y174500D01*
X91700Y169000D02*
X101000D01*
X106306Y174306D01*
X84300Y168250D02*
Y169000D01*
X78067Y165551D02*
X81601D01*
X84300Y168250D01*
Y169000D02*
Y170500D01*
X106306Y174500D02*
X106500D01*
X76689Y165551D02*
X78067D01*
X73933D02*
X73959Y165525D01*
Y164283D02*
Y165525D01*
Y164283D02*
X74000Y164242D01*
X76846Y137000D02*
X77231Y136615D01*
X82615D01*
X69957Y137000D02*
X70153D01*
X68388Y138568D02*
X69957Y137000D01*
X63542Y150551D02*
X63567Y150526D01*
Y150551D01*
Y149580D02*
Y150526D01*
Y149580D02*
X63593Y149554D01*
X65996D01*
X69800Y145750D01*
Y145000D02*
Y145750D01*
Y137354D02*
X70153Y137000D01*
X62189Y150551D02*
X63542D01*
X59337Y99940D02*
X67302Y91975D01*
X77752Y78409D02*
Y83174D01*
X74566Y75223D02*
X77752Y78409D01*
X73700Y74091D02*
Y74754D01*
X57537Y99195D02*
X66557Y90175D01*
X73820Y77023D02*
X75952Y79154D01*
X72000Y80791D02*
X72689Y80102D01*
X65973Y84166D02*
Y86320D01*
X53600Y91810D02*
X57136Y88275D01*
X63704Y84443D02*
X64173Y84912D01*
X57453Y106020D02*
X57537Y105935D01*
X68205Y90175D02*
X75952Y82428D01*
X72689Y77491D02*
X73158Y77023D01*
X57881Y90074D02*
X62219D01*
X65213Y82743D02*
Y83406D01*
X61473Y88275D02*
X64173Y85575D01*
X53600Y91810D02*
Y105935D01*
X67000Y70791D02*
Y80956D01*
X67302Y91975D02*
X68951D01*
X77752Y83174D01*
X74169Y75223D02*
X74566D01*
X73700Y74754D02*
X74169Y75223D01*
X57537Y99195D02*
Y105935D01*
X75952Y79154D02*
Y82428D01*
X72689Y77491D02*
Y80102D01*
X62219Y90074D02*
X65973Y86320D01*
X65213Y82743D02*
X67000Y80956D01*
X64173Y84912D02*
Y85575D01*
X52000Y80791D02*
X55652Y84443D01*
X59337Y105935D02*
X59421Y106020D01*
X59337Y99940D02*
Y105935D01*
X73700Y74091D02*
X77000Y70791D01*
X66557Y90175D02*
X68205D01*
X73158Y77023D02*
X73820D01*
X55400Y92556D02*
X57881Y90074D01*
X65213Y83406D02*
X65973Y84166D01*
X57136Y88275D02*
X61473D01*
X55652Y84443D02*
X63704D01*
X55400Y92556D02*
Y105935D01*
X53516Y106020D02*
X53600Y105935D01*
X55400D02*
X55484Y106020D01*
X84000Y95500D02*
X88500D01*
X77200D02*
X84000D01*
X75000Y97700D02*
X77200Y95500D01*
X93000Y100000D02*
Y103300D01*
X88500Y95500D02*
X93000Y100000D01*
X84000Y95500D02*
Y100800D01*
X74158Y103933D02*
X75000Y103091D01*
Y97700D02*
Y103091D01*
X62189Y157189D02*
X65500Y160500D01*
X62189Y154449D02*
Y157189D01*
X63567Y154331D02*
Y154974D01*
X60809Y150549D02*
X60811Y150551D01*
X60785Y154475D02*
X60811Y154449D01*
X60785Y154475D02*
Y162404D01*
X60689Y162500D02*
X60785Y162404D01*
D33*
X95500Y128284D02*
D03*
D34*
Y151906D02*
D03*
Y157811D02*
D03*
Y140094D02*
D03*
Y134189D02*
D03*
Y146000D02*
D03*
D41*
X84500Y160346D02*
D03*
Y153654D02*
D03*
D42*
X70153Y137000D02*
D03*
X76846D02*
D03*
D43*
X84300Y169000D02*
D03*
X91700D02*
D03*
X77200Y145000D02*
D03*
X69800D02*
D03*
X63200Y51379D02*
D03*
X55800D02*
D03*
X6900Y84000D02*
D03*
X14300D02*
D03*
Y101000D02*
D03*
X6900D02*
D03*
X14300Y92446D02*
D03*
X6900D02*
D03*
X18200Y63000D02*
D03*
X10800D02*
D03*
X68800Y96500D02*
D03*
X76200D02*
D03*
X63200Y59879D02*
D03*
X55800D02*
D03*
Y42879D02*
D03*
X63200D02*
D03*
D44*
X84000Y100800D02*
D03*
Y108200D02*
D03*
X93000Y110700D02*
D03*
Y103300D02*
D03*
X39533Y95300D02*
D03*
Y102700D02*
D03*
X31032D02*
D03*
Y95300D02*
D03*
X40000Y154724D02*
D03*
Y147324D02*
D03*
X14500Y147363D02*
D03*
Y154763D02*
D03*
X48328Y154724D02*
D03*
Y147324D02*
D03*
X31500Y147300D02*
D03*
Y154700D02*
D03*
X23000Y147363D02*
D03*
Y154763D02*
D03*
X6000Y147363D02*
D03*
Y154763D02*
D03*
D45*
X54500Y113500D02*
D03*
D46*
X47020Y112516D02*
D03*
X61980Y110547D02*
D03*
Y108579D02*
D03*
X47020Y110547D02*
D03*
Y114484D02*
D03*
Y116453D02*
D03*
Y118421D02*
D03*
X61980D02*
D03*
Y112516D02*
D03*
X47020Y108579D02*
D03*
X61980Y116453D02*
D03*
Y114484D02*
D03*
D47*
X51547Y106020D02*
D03*
X49579D02*
D03*
X59421D02*
D03*
X57453D02*
D03*
X55484D02*
D03*
X53516D02*
D03*
X49579Y120980D02*
D03*
X51547D02*
D03*
X55484D02*
D03*
X59421D02*
D03*
X53516D02*
D03*
X57453D02*
D03*
D48*
X103500Y67000D02*
D03*
Y61213D02*
D03*
D49*
X63567Y150551D02*
D03*
X62189D02*
D03*
X60811D02*
D03*
X59433D02*
D03*
Y154449D02*
D03*
X60811D02*
D03*
X62189D02*
D03*
X78067Y165551D02*
D03*
X76689D02*
D03*
X75311D02*
D03*
X73933D02*
D03*
Y169449D02*
D03*
X75311D02*
D03*
X76689D02*
D03*
D50*
X63567Y154331D02*
D03*
X78067Y169331D02*
D03*
D51*
X63440Y209173D02*
D03*
X6550Y237519D02*
D03*
Y242243D02*
D03*
Y251692D02*
D03*
Y223346D02*
D03*
X63440Y180826D02*
D03*
X6550Y190275D02*
D03*
Y185550D02*
D03*
X63440Y199724D02*
D03*
Y194999D02*
D03*
Y204448D02*
D03*
X6550Y228070D02*
D03*
Y232794D02*
D03*
Y246968D02*
D03*
Y171377D02*
D03*
Y176102D02*
D03*
Y180826D02*
D03*
Y194999D02*
D03*
Y199724D02*
D03*
Y204448D02*
D03*
Y209173D02*
D03*
Y213897D02*
D03*
Y218621D02*
D03*
X63440Y190275D02*
D03*
Y185550D02*
D03*
Y176102D02*
D03*
Y251692D02*
D03*
Y246968D02*
D03*
Y242243D02*
D03*
Y237519D02*
D03*
Y232794D02*
D03*
Y223346D02*
D03*
Y213897D02*
D03*
Y218621D02*
D03*
Y228070D02*
D03*
Y171377D02*
D03*
D52*
X18460Y248739D02*
D03*
X23184D02*
D03*
X27908D02*
D03*
X32633D02*
D03*
X37357D02*
D03*
X42082D02*
D03*
X46806D02*
D03*
X51530D02*
D03*
Y174330D02*
D03*
X46806D02*
D03*
X42082D02*
D03*
X37357D02*
D03*
X32633D02*
D03*
X27908D02*
D03*
X23184D02*
D03*
X18460D02*
D03*
X34995Y211535D02*
D03*
X37751Y239881D02*
D03*
X32239D02*
D03*
X41058Y232794D02*
D03*
X28932Y218621D02*
D03*
Y211535D02*
D03*
Y204448D02*
D03*
Y197362D02*
D03*
X41058Y218621D02*
D03*
Y211535D02*
D03*
Y204448D02*
D03*
Y197362D02*
D03*
X28932Y232794D02*
D03*
X34995Y204448D02*
D03*
Y197362D02*
D03*
X12554Y251692D02*
D03*
Y246968D02*
D03*
Y242243D02*
D03*
Y237519D02*
D03*
X57436Y251692D02*
D03*
Y246968D02*
D03*
Y242243D02*
D03*
Y237519D02*
D03*
X12554Y221338D02*
D03*
X57436D02*
D03*
Y211338D02*
D03*
Y201338D02*
D03*
Y191338D02*
D03*
Y181338D02*
D03*
Y171338D02*
D03*
X12554Y211338D02*
D03*
Y201338D02*
D03*
Y191338D02*
D03*
Y181338D02*
D03*
Y171338D02*
D03*
D53*
X32633Y168326D02*
D03*
X51530D02*
D03*
X37357D02*
D03*
X42082D02*
D03*
X18460D02*
D03*
X23184D02*
D03*
X27908D02*
D03*
X46806D02*
D03*
X18460Y254743D02*
D03*
X23184D02*
D03*
X27908D02*
D03*
X32633D02*
D03*
X37357D02*
D03*
X42082D02*
D03*
X46806D02*
D03*
X51530D02*
D03*
D54*
X74110Y183500D02*
D03*
X87890D02*
D03*
D55*
X104000Y195929D02*
D03*
Y232071D02*
D03*
X79500Y218429D02*
D03*
Y254571D02*
D03*
D56*
X76095Y203500D02*
D03*
X87906D02*
D03*
D57*
X10282Y69500D02*
D03*
X15400Y76980D02*
D03*
X12841D02*
D03*
X10282D02*
D03*
X15400Y69500D02*
D03*
D58*
X74158Y108067D02*
D03*
X68843D02*
D03*
Y103933D02*
D03*
X74158D02*
D03*
D59*
X39533Y90346D02*
Y95300D01*
Y90346D02*
X40000Y89879D01*
Y89500D02*
Y89879D01*
X47020Y112516D02*
X53516D01*
X54500Y113500D01*
X63714Y218347D02*
X64061Y218000D01*
X15400Y69500D02*
X20000D01*
X61980Y116453D02*
X81953D01*
X82226Y116726D01*
X102950Y178050D02*
X106500Y174500D01*
X63471Y185475D02*
X64018Y184927D01*
X70937Y178050D02*
X102950D01*
X65805Y227195D02*
X71000Y222000D01*
X63440Y228070D02*
X63735D01*
X63714Y227796D02*
X64315Y227195D01*
X63440Y228070D02*
X63714Y227796D01*
X70643Y178345D02*
X70937Y178050D01*
X64599Y184347D02*
X64640D01*
X70643Y178345D01*
X64018Y184927D02*
X64599Y184347D01*
X51530Y178121D02*
Y178621D01*
X6000Y147363D02*
X6051D01*
X7551Y145863D01*
Y144449D02*
Y145863D01*
Y144449D02*
X12000Y140000D01*
X43500Y122500D02*
X48925D01*
X49579Y121846D01*
X61980Y112516D02*
X90434D01*
X92250Y110700D01*
X93000D01*
X67866Y104909D02*
X68843Y103933D01*
X62846Y108579D02*
X66516Y104909D01*
X61980Y108579D02*
X62846D01*
X66516Y104909D02*
X67866D01*
X61980Y110547D02*
X71480D01*
X73961Y108067D01*
X77571Y257500D02*
X80000Y255071D01*
X60192Y213897D02*
X63440D01*
X60157D02*
X60192D01*
X60636Y179653D02*
X62463D01*
X60464D02*
X60636D01*
X9798Y251692D02*
X12554D01*
X9798Y242243D02*
X12554D01*
X6550Y251692D02*
X9798D01*
X6550Y242243D02*
X9798D01*
X6263Y242071D02*
X6377D01*
X4160D02*
X6263D01*
X9798Y237519D02*
X12554D01*
X6550D02*
X9798D01*
X6050Y223394D02*
X6276Y223620D01*
X74158Y108067D02*
X83867D01*
X84000Y108200D01*
X68843Y96543D02*
Y103933D01*
X68800Y96500D02*
X68843Y96543D01*
X73961Y108067D02*
X74158D01*
X61980Y114484D02*
X108984D01*
X111500Y117000D01*
X57226Y127774D02*
X57453Y127547D01*
Y120980D02*
Y127547D01*
X54225Y133887D02*
X59500Y128611D01*
Y122063D02*
Y128611D01*
X59453Y122016D02*
X59500Y122063D01*
X54187Y133887D02*
X54225D01*
X59453Y121012D02*
Y122016D01*
X59421Y120980D02*
X59453Y121012D01*
X34150Y145800D02*
X55484Y124466D01*
X33000Y145800D02*
X34150D01*
X55484Y120980D02*
Y124466D01*
X42250Y145824D02*
X54187Y133887D01*
X55806Y135387D02*
X61980Y129212D01*
X55806Y135387D02*
X55806D01*
X61980Y118421D02*
Y129212D01*
X42250Y145824D02*
Y145824D01*
X40750Y147324D02*
X42250Y145824D01*
X40000Y147324D02*
X40750D01*
X48328Y142865D02*
Y147324D01*
Y142865D02*
X55806Y135387D01*
X52045Y168107D02*
X53500Y166652D01*
Y142000D02*
Y166652D01*
X45500Y131000D02*
X45621D01*
X53484Y123137D01*
X51110Y122283D02*
Y123390D01*
X47500Y125000D02*
X49500D01*
X51110Y123390D01*
X51547Y120980D02*
Y121846D01*
X53484Y121012D02*
Y123137D01*
X51110Y122283D02*
X51547Y121846D01*
X31500Y147300D02*
X33000Y145800D01*
X7000Y101100D02*
Y114500D01*
X14300Y101000D02*
X15000Y101700D01*
Y114000D01*
X53484Y121012D02*
X53516Y120980D01*
X19000Y140000D02*
X42547Y116453D01*
X25250Y136254D02*
X42951Y118553D01*
X42951D01*
X43030Y118474D01*
X46988Y118453D02*
X47020Y118421D01*
X45984Y118453D02*
X46988D01*
X43030Y118474D02*
X45963D01*
X45984Y118453D01*
X25250Y136254D02*
Y145863D01*
X23750Y147363D02*
X25250Y145863D01*
X23000Y147363D02*
X23750D01*
X42547Y116453D02*
X47020D01*
X49579Y120980D02*
Y121846D01*
X14500Y147363D02*
X15250D01*
X41405Y114484D02*
X47020D01*
X16750Y139139D02*
Y145863D01*
Y139139D02*
X41405Y114484D01*
X15250Y147363D02*
X16750Y145863D01*
X39533Y102700D02*
X40282D01*
X43602Y106020D01*
X49579D01*
X37200Y110579D02*
X46988D01*
X37000Y110779D02*
X37200Y110579D01*
X30079Y108579D02*
X47020D01*
X22500Y101000D02*
X30079Y108579D01*
X14300Y101000D02*
X22500D01*
X19714Y94500D02*
X20214Y95000D01*
X15800Y94500D02*
X19714D01*
X20235Y87735D02*
X20617Y88117D01*
X14300Y92446D02*
Y93000D01*
X15800Y94500D01*
X46988Y110579D02*
X47020Y110547D01*
X6900Y101000D02*
X7000Y101100D01*
X14300Y84000D02*
Y84750D01*
X17285Y87735D01*
X20235D01*
X31032Y102700D02*
X39533D01*
X31032Y95300D02*
X39533D01*
X51516Y105988D02*
X51547Y106020D01*
X51516Y104720D02*
Y105988D01*
X49500Y102400D02*
Y102704D01*
X51516Y104720D01*
X103500Y54000D02*
Y61213D01*
Y67000D02*
Y74000D01*
X37357Y168326D02*
X38000Y167683D01*
X63000Y169940D02*
Y170937D01*
X18258Y167940D02*
X18846D01*
X17935Y167617D02*
X18258Y167940D01*
X17935Y165935D02*
Y167617D01*
X8263Y156263D02*
X17935Y165935D01*
X6000Y154763D02*
X7500Y156263D01*
X8263D01*
X76775Y194725D02*
X77000Y194500D01*
X1500Y163500D02*
X5000Y160000D01*
X6287Y189938D02*
X6550Y190201D01*
X2432Y225121D02*
X4160Y223394D01*
X47397Y168031D02*
X47928Y167499D01*
X5574Y189003D02*
X6287Y189717D01*
X32633Y168042D02*
Y168326D01*
X5574Y184279D02*
X6183Y184889D01*
X55432Y218621D02*
X60157Y213897D01*
X1500Y185189D02*
X5314Y189003D01*
X32633Y174330D02*
X37357D01*
X63731Y194725D02*
X63735D01*
X19232Y168326D02*
X19528D01*
X63721Y199500D02*
X64721Y198500D01*
X57436Y242243D02*
Y246968D01*
X32633Y168031D02*
Y168042D01*
Y248739D02*
X37357D01*
X18460Y174330D02*
X23184D01*
X51530Y178621D02*
X52030Y178121D01*
X4160Y223394D02*
X6050D01*
X37357Y168326D02*
X37500Y168183D01*
X24208Y237519D02*
X28932Y232794D01*
X37554Y240078D02*
X37751Y239881D01*
X47928Y164072D02*
X48000Y164000D01*
X63735Y194725D02*
X76775D01*
X5314Y189003D02*
X5574D01*
X37751Y236102D02*
Y239881D01*
X37357Y248739D02*
X42082D01*
X46806D02*
X51530D01*
X63714Y204722D02*
X63992Y205000D01*
X6331Y185036D02*
X6550Y185255D01*
X6287Y189717D02*
Y189938D01*
X46806Y168056D02*
Y168093D01*
X63440Y204153D02*
Y204448D01*
X12554Y237519D02*
Y242243D01*
X41058Y197362D02*
X51530Y186889D01*
X52030Y178121D02*
X58932D01*
X46806Y168093D02*
Y168326D01*
X63440Y204448D02*
X63714Y204722D01*
X6550Y185255D02*
Y185550D01*
X45783Y237519D02*
X57436D01*
X42082Y248739D02*
X46806D01*
X47179Y168031D02*
X47397D01*
X63992Y205000D02*
X68432D01*
X18846Y167940D02*
X19232Y168326D01*
X32500Y167898D02*
X32633Y168031D01*
X27908Y174330D02*
X32633D01*
X6287Y189938D02*
Y189938D01*
X37357Y248739D02*
X37554Y248543D01*
X41058Y232794D02*
X45783Y237519D01*
X28932Y211535D02*
Y218621D01*
X12554Y242243D02*
Y246968D01*
X57436Y237519D02*
Y242243D01*
X34995Y211535D02*
X41058D01*
X6550Y190201D02*
Y190275D01*
X57436Y246968D02*
Y251692D01*
X51530Y178621D02*
Y186889D01*
X64315Y227195D02*
X65805D01*
X37357Y174330D02*
X42082D01*
X63714Y194725D02*
X63731D01*
X28932Y211535D02*
X34995D01*
X64061Y218000D02*
X73500D01*
X3500Y166000D02*
Y182308D01*
X6377Y242071D02*
X6550Y242243D01*
X51530Y168326D02*
X51897Y167959D01*
X62463Y179653D02*
X63440Y180629D01*
X23184Y248739D02*
X27908D01*
X37554Y240078D02*
Y248543D01*
X1500Y163500D02*
Y185189D01*
X42082Y174330D02*
X46806D01*
X41105Y204448D02*
X41432Y204121D01*
X63440Y180629D02*
Y180826D01*
X47320Y168031D02*
X47397D01*
X41058Y218621D02*
X55432D01*
X46806Y168031D02*
X47320D01*
X12554Y237519D02*
X24208D01*
X2432Y225121D02*
Y240343D01*
X4160Y242071D01*
X18460Y248739D02*
X23184D01*
X12554Y246968D02*
Y251692D01*
X34995Y204448D02*
Y211535D01*
X23184Y174330D02*
X27908D01*
X34995Y204448D02*
X41058D01*
X27908Y248739D02*
X32633D01*
X46806Y174330D02*
X51530D01*
X64721Y198500D02*
X68432D01*
X47928Y164072D02*
Y167499D01*
X41058Y211535D02*
Y218621D01*
X34995Y197362D02*
X41058D01*
Y204448D02*
X41105D01*
X3500Y182308D02*
X5470Y184279D01*
X46806Y168031D02*
Y168035D01*
X37751Y236102D02*
X41058Y232794D01*
X32239Y236102D02*
Y239881D01*
X28932Y232794D02*
X32239Y236102D01*
X63440Y194999D02*
X63735D01*
X32239Y239881D02*
X37751D01*
X28932Y197362D02*
Y204448D01*
X3500Y166000D02*
X5500Y164000D01*
X32500Y163500D02*
Y167898D01*
X5470Y184279D02*
X5574D01*
X6183Y184889D02*
Y185184D01*
X41058Y218621D02*
Y232794D01*
X58932Y178121D02*
X60464Y179653D01*
X28932Y197362D02*
X34995D01*
X28932Y204448D02*
X34995D01*
X51530Y174330D02*
Y178621D01*
X63000Y164715D02*
Y169940D01*
X63470Y170859D02*
X63714Y171103D01*
X60785Y162500D02*
X63000Y164715D01*
X60689Y162500D02*
X60785D01*
X92000Y187500D02*
Y191500D01*
X90453Y185953D02*
X92000Y187500D01*
X87406Y201500D02*
X89858Y203953D01*
X87906Y203500D02*
X89500Y205095D01*
Y211000D01*
X91000Y212500D01*
X90342Y185953D02*
X90453D01*
X87890Y183500D02*
X90342Y185953D01*
X38000Y156224D02*
Y167683D01*
X39500Y154724D02*
X40000D01*
X38000Y156224D02*
X39500Y154724D01*
X42500Y160000D02*
Y167612D01*
X46078Y156224D02*
Y156422D01*
X47078Y155224D02*
X48328D01*
X42301Y167812D02*
X42500Y167612D01*
X42082Y168031D02*
X42301Y167812D01*
X42500Y160000D02*
X46078Y156422D01*
Y156224D02*
X47078Y155224D01*
X25263Y156263D02*
X27572Y158572D01*
X24500Y156263D02*
X25263D01*
X23000Y154763D02*
X24500Y156263D01*
X27572Y158572D02*
Y168031D01*
X23000Y162500D02*
Y167369D01*
X16000Y156263D02*
X16763D01*
X23000Y162500D01*
X14500Y154763D02*
X16000Y156263D01*
X42448Y167959D02*
X42500Y167908D01*
X42151Y168256D02*
X42405Y168003D01*
X42448Y167959D01*
X42082Y168326D02*
X42151Y168256D01*
X32500Y156200D02*
Y163500D01*
X37653Y168326D02*
X37872Y168107D01*
X37357Y168031D02*
X37437D01*
X37500Y168036D02*
Y168183D01*
X31500Y155200D02*
X32500Y156200D01*
X27572Y168031D02*
Y168063D01*
X27835Y168326D01*
X27908D01*
X63440Y171377D02*
X63735D01*
X23423Y167792D02*
X23741Y168111D01*
X63735Y209173D02*
X72587D01*
X63440D02*
X63735D01*
X72587D02*
X75595Y206165D01*
Y201500D02*
Y206165D01*
X102571Y194500D02*
X104000Y195929D01*
X77000Y194500D02*
X102571D01*
X5500Y77000D02*
X5510Y76990D01*
X10272D01*
X63321Y51500D02*
X70000D01*
X47000Y40000D02*
X55000Y32000D01*
X33476Y63524D02*
X47000Y50000D01*
Y40000D02*
Y50000D01*
X17100Y63500D02*
X24722D01*
X17100Y63000D02*
X17600Y63500D01*
X24722D02*
X24745Y63524D01*
X55000Y32000D02*
X74016D01*
X74500Y32484D01*
X24745Y63524D02*
X33476D01*
X6900Y92446D02*
Y101000D01*
Y84000D02*
Y92446D01*
X10272Y76990D02*
X10282Y76980D01*
X15300Y84000D02*
X15400Y83900D01*
X10282Y63282D02*
Y69500D01*
Y76980D02*
X12841D01*
X15400D02*
Y83900D01*
X79500Y253410D02*
Y254571D01*
X82150Y250760D02*
X82240D01*
X91500Y238000D02*
Y241500D01*
X82240Y250760D02*
X91500Y241500D01*
X79500Y253410D02*
X82150Y250760D01*
X91500Y238000D02*
X96607Y232893D01*
X22969Y167815D02*
X23184Y168031D01*
X96607Y232893D02*
X102481D01*
X81571Y217579D02*
X82150Y217000D01*
X81571Y217579D02*
Y221500D01*
X82150Y217000D02*
X86500D01*
X68500Y215000D02*
X76850D01*
X79500Y217650D02*
Y219429D01*
X76850Y215000D02*
X79500Y217650D01*
X72658Y185953D02*
X75110Y183500D01*
X72547Y185953D02*
X72658D01*
X68714Y189786D02*
X72547Y185953D01*
X68714Y189786D02*
Y191396D01*
X68610Y191500D02*
X68714Y191396D01*
X102474Y234822D02*
X103403Y233893D01*
X55179Y60500D02*
X55800Y59879D01*
X41754Y67246D02*
X48500Y60500D01*
X55179D01*
X55800Y51379D02*
Y59879D01*
X63200Y51379D02*
X63321Y51500D01*
X63244Y257500D02*
X77571D01*
X57436Y251692D02*
X63244Y257500D01*
X41754Y67246D02*
Y80545D01*
X63200Y42879D02*
Y51379D01*
X55800Y42879D02*
Y51379D01*
X63200D02*
Y59879D01*
D60*
X35750Y211621D02*
D03*
D61*
X82000Y45791D02*
D03*
X37000D02*
D03*
X105500Y249500D02*
D03*
X13000Y13000D02*
D03*
X105000D02*
D03*
D62*
X34598Y32484D02*
D03*
X74500D02*
D03*
X44500Y26500D02*
D03*
X84402D02*
D03*
D63*
X90504Y57799D02*
D03*
X28496D02*
D03*
D64*
X42000Y80791D02*
D03*
X47000Y70791D02*
D03*
X52000Y80791D02*
D03*
X57000Y70791D02*
D03*
X62000Y80791D02*
D03*
X67000Y70791D02*
D03*
X72000Y80791D02*
D03*
D65*
X77000Y70791D02*
D03*
D66*
X40000Y89500D02*
D03*
X68843Y108067D02*
D03*
X97000Y174500D02*
D03*
X74565Y175194D02*
D03*
X69500D02*
D03*
X79629D02*
D03*
X84694D02*
D03*
X20000Y69500D02*
D03*
X21000Y81500D02*
D03*
X82226Y116726D02*
D03*
X67862Y155500D02*
D03*
X61000Y145500D02*
D03*
X106500Y174500D02*
D03*
X71000Y222000D02*
D03*
X82615Y136615D02*
D03*
X12000Y140000D02*
D03*
X43500Y122500D02*
D03*
X76000Y121500D02*
D03*
X84000Y95500D02*
D03*
X57226Y127774D02*
D03*
X53500Y142000D02*
D03*
X45500Y131000D02*
D03*
X7000Y114500D02*
D03*
X15000Y114000D02*
D03*
X47500Y125000D02*
D03*
X19000Y140000D02*
D03*
X31500Y139000D02*
D03*
X37000Y110779D02*
D03*
X20214Y95000D02*
D03*
X20617Y88117D02*
D03*
X57000Y115500D02*
D03*
X52000D02*
D03*
X57000Y111000D02*
D03*
X52000D02*
D03*
X49500Y102400D02*
D03*
X103500Y54000D02*
D03*
Y74000D02*
D03*
X111500Y117000D02*
D03*
X48000Y163500D02*
D03*
X60689Y162500D02*
D03*
X16000Y160000D02*
D03*
X68432Y205000D02*
D03*
X73500Y218000D02*
D03*
X5000Y160000D02*
D03*
X32500Y163500D02*
D03*
X77000Y194500D02*
D03*
X68432Y198500D02*
D03*
X5500Y164000D02*
D03*
X65500Y160500D02*
D03*
X92000Y191500D02*
D03*
X91000Y212500D02*
D03*
X13000Y47000D02*
D03*
X4500Y65000D02*
D03*
X5500Y77000D02*
D03*
X70500Y51500D02*
D03*
X113000Y235500D02*
D03*
X93000Y229500D02*
D03*
X91500Y238000D02*
D03*
X86500Y217000D02*
D03*
X85500Y191300D02*
D03*
X68500Y215000D02*
D03*
X111500Y184500D02*
D03*
X113000Y221000D02*
D03*
X68610Y191500D02*
D03*
M02*
