G04*
G04 #@! TF.GenerationSoftware,Altium Limited,Altium Designer,20.0.10 (225)*
G04*
G04 Layer_Color=32768*
%FSLAX25Y25*%
%MOIN*%
G70*
G01*
G75*
%ADD13C,0.00500*%
%ADD14C,0.00600*%
%ADD90C,0.00394*%
%ADD93C,0.00197*%
%ADD94C,0.00200*%
%ADD95C,0.00201*%
G36*
X89010Y164697D02*
Y121397D01*
X114610D01*
Y164697D01*
X89010D01*
D02*
G37*
D13*
X26516Y2307D02*
X92484D01*
X26516D02*
Y89276D01*
X92484D01*
Y2307D02*
Y89276D01*
D14*
X89010Y121397D02*
X114610D01*
Y164697D01*
X89010D02*
X114610D01*
X89010Y121397D02*
Y164697D01*
D90*
X1924Y163700D02*
Y259369D01*
X68066D01*
Y163700D02*
Y259369D01*
X1924Y163700D02*
X68066D01*
D93*
X44657Y103657D02*
X64342D01*
Y123343D01*
X44657D02*
X64342D01*
X44657Y103657D02*
Y123343D01*
X106394Y58260D02*
Y69953D01*
X100606Y58260D02*
Y69953D01*
Y58260D02*
X106394D01*
X100606Y69953D02*
X106394D01*
X57642Y156831D02*
X65358D01*
X57642Y148169D02*
Y156831D01*
Y148169D02*
X65358D01*
Y156831D01*
X79858Y163169D02*
Y171831D01*
X72142Y163169D02*
X79858D01*
X72142D02*
Y171831D01*
X79858D01*
X108134Y201205D02*
X111874D01*
Y226795D01*
X108134D02*
X111874D01*
X108134D02*
Y237366D01*
X99866D02*
X108134D01*
X99866Y226795D02*
Y237366D01*
X96126Y226795D02*
X99866D01*
X96126Y201205D02*
Y226795D01*
Y201205D02*
X99866D01*
Y190634D02*
Y201205D01*
Y190634D02*
X108134D01*
Y201205D01*
X66185Y101472D02*
X76815D01*
Y110528D01*
X66185D02*
X76815D01*
X66185Y101472D02*
Y110528D01*
X83634Y223705D02*
X87374D01*
Y249295D01*
X83634D02*
X87374D01*
X83634D02*
Y259866D01*
X75366D02*
X83634D01*
X75366Y249295D02*
Y259866D01*
X71626Y249295D02*
X75366D01*
X71626Y223705D02*
Y249295D01*
Y223705D02*
X75366D01*
Y213134D02*
Y223705D01*
Y213134D02*
X83634D01*
Y223705D01*
X101807Y201443D02*
Y218057D01*
Y201443D02*
X115193D01*
Y218057D01*
X101807D02*
X115193D01*
X97701Y224122D02*
Y232878D01*
Y224122D02*
X115299D01*
Y232878D01*
X97701D02*
X115299D01*
X106878Y182201D02*
Y199799D01*
X98122Y182201D02*
X106878D01*
X98122D02*
Y199799D01*
X106878D01*
D94*
X87583Y150413D02*
Y163587D01*
X81417Y150413D02*
X87583D01*
X81417D02*
Y163587D01*
X87583D01*
X66913Y140083D02*
X80087D01*
Y133917D02*
Y140083D01*
X66913Y133917D02*
X80087D01*
X66913D02*
Y140083D01*
D95*
X94614Y165496D02*
Y172622D01*
X81425Y165496D02*
Y172622D01*
Y165496D02*
X94614D01*
X81425Y172622D02*
X94614D01*
X66925Y148622D02*
X80114D01*
X66925Y141496D02*
X80114D01*
X66925D02*
Y148622D01*
X80114Y141496D02*
Y148622D01*
X99996Y164114D02*
X107122D01*
X99996Y150925D02*
X107122D01*
X99996D02*
Y164114D01*
X107122Y150925D02*
Y164114D01*
X80496Y97886D02*
X87622D01*
X80496Y111075D02*
X87622D01*
X80496Y97886D02*
Y111075D01*
X87622Y97886D02*
Y111075D01*
X89378Y100425D02*
Y113614D01*
X96504Y100425D02*
Y113614D01*
X89378Y100425D02*
X96504Y100425D01*
X89378Y113614D02*
X96504Y113614D01*
X65886Y131794D02*
X79075D01*
X65886Y124668D02*
X79075D01*
Y131794D01*
X65886Y124668D02*
Y131794D01*
Y140122D02*
X79075D01*
X65886Y132996D02*
X79075D01*
Y140122D01*
X65886Y132996D02*
Y140122D01*
X45996Y105314D02*
X53122D01*
X45996Y92125D02*
X53122D01*
X45996D02*
Y105314D01*
X53122Y92125D02*
Y105314D01*
X44794Y92125D02*
Y105314D01*
X37668Y92125D02*
Y105314D01*
Y92125D02*
X44794D01*
X37668Y105314D02*
X44794D01*
X35910Y105614D02*
X43036D01*
X35910Y92425D02*
X43036D01*
Y105614D01*
X35910Y92425D02*
Y105614D01*
X27410D02*
X34536D01*
X27410Y92425D02*
X34536D01*
Y105614D01*
X27410Y92425D02*
Y105614D01*
X36378Y157638D02*
X43504D01*
X36378Y144449D02*
X43504D01*
Y157638D01*
X36378Y144449D02*
Y157638D01*
X37996Y166614D02*
X45122D01*
X37996Y153425D02*
X45122D01*
X37996D02*
Y166614D01*
X45122Y153425D02*
Y166614D01*
X50996Y165614D02*
X58122D01*
X50996Y152425D02*
X58122D01*
X50996D02*
Y165614D01*
X58122Y152425D02*
Y165614D01*
X44706Y157638D02*
X51832D01*
X44706Y144449D02*
X51832D01*
Y157638D01*
X44706Y144449D02*
Y157638D01*
X16925Y161378D02*
X30114D01*
X16925Y168504D02*
X30114D01*
X16925Y161378D02*
Y168504D01*
X30114Y161378D02*
Y168504D01*
X17214Y80496D02*
Y87622D01*
X4025Y80496D02*
Y87622D01*
Y80496D02*
X17214D01*
X4025Y87622D02*
X17214D01*
X9496Y79114D02*
X16622D01*
X9496Y65925D02*
X16622D01*
X9496D02*
Y79114D01*
X16622Y65925D02*
Y79114D01*
X27878Y144425D02*
Y157614D01*
X35004Y144425D02*
Y157614D01*
X27878Y144425D02*
X35004D01*
X27878Y157614D02*
X35004D01*
X19496Y144449D02*
X26622D01*
X19496Y157638D02*
X26622D01*
X19496Y144449D02*
Y157638D01*
X26622Y144449D02*
Y157638D01*
X9622Y144449D02*
Y157638D01*
X2496Y144449D02*
Y157638D01*
X9622D01*
X2496Y144449D02*
X9622D01*
X10996D02*
X18122D01*
X10996Y157638D02*
X18122D01*
X10996Y144449D02*
Y157638D01*
X18122Y144449D02*
Y157638D01*
X28886Y128996D02*
Y136122D01*
X42075Y128996D02*
Y136122D01*
X28886Y128996D02*
X42075D01*
X28886Y136122D02*
X42075D01*
X3986Y97378D02*
Y104504D01*
X17175Y97378D02*
Y104504D01*
X3986D02*
X17175D01*
X3986Y97378D02*
X17175D01*
X3986Y88824D02*
Y95950D01*
X17175Y88824D02*
Y95950D01*
X3986D02*
X17175D01*
X3986Y88824D02*
X17175D01*
X7886Y59378D02*
Y66504D01*
X21075Y59378D02*
Y66504D01*
X7886D02*
X21075D01*
X7886Y59378D02*
X21075D01*
X65925Y100122D02*
X79114D01*
X65925Y92996D02*
X79114D01*
X65925D02*
Y100122D01*
X79114Y92996D02*
Y100122D01*
X108378Y150886D02*
X115504D01*
X108378Y164075D02*
X115504D01*
Y150886D02*
Y164075D01*
X108378Y150886D02*
Y164075D01*
X73496Y234614D02*
X80622D01*
X73496Y221425D02*
X80622D01*
X73496D02*
Y234614D01*
X80622Y221425D02*
Y234614D01*
X94614Y179878D02*
Y187004D01*
X81425Y179878D02*
Y187004D01*
X94614D01*
X81425Y179878D02*
X94614D01*
X68500Y178106D02*
Y188933D01*
Y178106D02*
X94504D01*
Y188933D01*
X68500D02*
X94504D01*
X108078Y187054D02*
X115204D01*
X108078Y200243D02*
X115204D01*
Y187054D02*
Y200243D01*
X108078Y187054D02*
Y200243D01*
X9378Y51534D02*
X16504D01*
X9378Y64723D02*
X16504D01*
Y51534D02*
Y64723D01*
X9378Y51534D02*
Y64723D01*
X87425Y112878D02*
X100614D01*
X87425Y120004D02*
X100614D01*
X87425Y112878D02*
Y120004D01*
X100614Y112878D02*
Y120004D01*
X52925Y63501D02*
X66114D01*
X52925Y56375D02*
X66114D01*
X52925D02*
Y63501D01*
X66114Y56375D02*
Y63501D01*
X52925Y55001D02*
X66114D01*
X52925Y47875D02*
X66114D01*
X52925D02*
Y55001D01*
X66114Y47875D02*
Y55001D01*
X52886Y39257D02*
X66075D01*
X52886Y46383D02*
X66075D01*
Y39257D02*
Y46383D01*
X52886Y39257D02*
Y46383D01*
X81996Y234614D02*
X89122D01*
X81996Y221425D02*
X89122D01*
X81996D02*
Y234614D01*
X89122Y221425D02*
Y234614D01*
X82425Y195678D02*
X95614D01*
X82425Y202804D02*
X95614D01*
X82425Y195678D02*
Y202804D01*
X95614Y195678D02*
Y202804D01*
M02*
