G04*
G04 #@! TF.GenerationSoftware,Altium Limited,Altium Designer,20.0.10 (225)*
G04*
G04 Layer_Color=128*
%FSLAX25Y25*%
%MOIN*%
G70*
G01*
G75*
%ADD19R,0.04000X0.05500*%
%ADD20R,0.05500X0.04000*%
G04:AMPARAMS|DCode=81|XSize=47.64mil|YSize=23.23mil|CornerRadius=5.81mil|HoleSize=0mil|Usage=FLASHONLY|Rotation=270.000|XOffset=0mil|YOffset=0mil|HoleType=Round|Shape=RoundedRectangle|*
%AMROUNDEDRECTD81*
21,1,0.04764,0.01161,0,0,270.0*
21,1,0.03602,0.02323,0,0,270.0*
1,1,0.01161,-0.00581,-0.01801*
1,1,0.01161,-0.00581,0.01801*
1,1,0.01161,0.00581,0.01801*
1,1,0.01161,0.00581,-0.01801*
%
%ADD81ROUNDEDRECTD81*%
%ADD82R,0.06772X0.04134*%
%ADD83R,0.04800X0.03000*%
%ADD84R,0.04134X0.06772*%
D19*
X76200Y128172D02*
D03*
X68800D02*
D03*
X76200Y136500D02*
D03*
X68800D02*
D03*
X31800Y132500D02*
D03*
X39200D02*
D03*
X19800Y165000D02*
D03*
X27200D02*
D03*
X84300Y183500D02*
D03*
X91700D02*
D03*
X97700Y116500D02*
D03*
X90300D02*
D03*
X92700Y199300D02*
D03*
X85300D02*
D03*
D20*
X103500Y153800D02*
D03*
Y161200D02*
D03*
X49500Y95000D02*
D03*
Y102400D02*
D03*
X41172Y95000D02*
D03*
Y102400D02*
D03*
X41500Y156300D02*
D03*
Y163700D02*
D03*
X54500Y155300D02*
D03*
Y162700D02*
D03*
X13000Y68800D02*
D03*
Y76200D02*
D03*
X112000Y161200D02*
D03*
Y153800D02*
D03*
X77000Y231700D02*
D03*
Y224300D02*
D03*
X111700Y197369D02*
D03*
Y189969D02*
D03*
X13000Y54449D02*
D03*
Y61849D02*
D03*
X85500Y231700D02*
D03*
Y224300D02*
D03*
D81*
X104760Y204809D02*
D03*
X112240Y214691D02*
D03*
X104760D02*
D03*
X108500D02*
D03*
X112240Y204809D02*
D03*
D82*
X102500Y196748D02*
D03*
Y185252D02*
D03*
D83*
X10400Y121500D02*
D03*
X23600D02*
D03*
X10400Y130500D02*
D03*
X23600D02*
D03*
D84*
X112248Y228500D02*
D03*
X100752D02*
D03*
M02*
