G04*
G04 #@! TF.GenerationSoftware,Altium Limited,Altium Designer,20.0.10 (225)*
G04*
G04 Layer_Color=8388736*
%FSLAX25Y25*%
%MOIN*%
G70*
G01*
G75*
%ADD12C,0.00787*%
%ADD29R,0.06300X0.04800*%
%ADD30R,0.04619X0.04737*%
%ADD31R,0.04800X0.06300*%
%ADD32R,0.04934X0.07572*%
%ADD33R,0.02375X0.03162*%
%ADD34R,0.06706X0.11036*%
%ADD35C,0.03950*%
%ADD36R,0.07099X0.09422*%
%ADD37R,0.10642X0.10642*%
G04:AMPARAMS|DCode=38|XSize=35.95mil|YSize=18.63mil|CornerRadius=7.72mil|HoleSize=0mil|Usage=FLASHONLY|Rotation=0.000|XOffset=0mil|YOffset=0mil|HoleType=Round|Shape=RoundedRectangle|*
%AMROUNDEDRECTD38*
21,1,0.03595,0.00319,0,0,0.0*
21,1,0.02051,0.01863,0,0,0.0*
1,1,0.01544,0.01026,-0.00160*
1,1,0.01544,-0.01026,-0.00160*
1,1,0.01544,-0.01026,0.00160*
1,1,0.01544,0.01026,0.00160*
%
%ADD38ROUNDEDRECTD38*%
G04:AMPARAMS|DCode=39|XSize=35.95mil|YSize=18.63mil|CornerRadius=7.72mil|HoleSize=0mil|Usage=FLASHONLY|Rotation=90.000|XOffset=0mil|YOffset=0mil|HoleType=Round|Shape=RoundedRectangle|*
%AMROUNDEDRECTD39*
21,1,0.03595,0.00319,0,0,90.0*
21,1,0.02051,0.01863,0,0,90.0*
1,1,0.01544,0.00160,0.01026*
1,1,0.01544,0.00160,-0.01026*
1,1,0.01544,-0.00160,-0.01026*
1,1,0.01544,-0.00160,0.01026*
%
%ADD39ROUNDEDRECTD39*%
%ADD40R,0.06706X0.06706*%
%ADD41R,0.06304X0.06304*%
%ADD42C,0.06304*%
%ADD43C,0.10249*%
%ADD44C,0.06824*%
%ADD45C,0.13398*%
%ADD46R,0.05000X0.05000*%
%ADD47C,0.05000*%
%ADD48C,0.06706*%
%ADD49C,0.03800*%
G36*
X8119Y177871D02*
X8212Y177864D01*
X8304Y177851D01*
X8395Y177835D01*
X8485Y177813D01*
X8574Y177787D01*
X8662Y177756D01*
X8747Y177720D01*
X8831Y177680D01*
X8912Y177636D01*
X8991Y177587D01*
X9068Y177535D01*
X9142Y177479D01*
X9212Y177418D01*
X9279Y177354D01*
X9343Y177287D01*
X9403Y177217D01*
X9460Y177143D01*
X9512Y177067D01*
X9561Y176988D01*
X9605Y176906D01*
X9645Y176822D01*
X9680Y176736D01*
X9712Y176649D01*
X9738Y176560D01*
X9759Y176470D01*
X9776Y176379D01*
X9788Y176287D01*
X9796Y176194D01*
X9798Y176102D01*
X9796Y176009D01*
X9788Y175916D01*
X9776Y175824D01*
X9759Y175733D01*
X9738Y175643D01*
X9712Y175554D01*
X9680Y175467D01*
X9645Y175381D01*
X9605Y175297D01*
X9561Y175216D01*
X9512Y175137D01*
X9460Y175060D01*
X9403Y174987D01*
X9343Y174916D01*
X9279Y174849D01*
X9212Y174785D01*
X9142Y174725D01*
X9068Y174668D01*
X8991Y174616D01*
X8912Y174567D01*
X8831Y174523D01*
X8747Y174483D01*
X8662Y174448D01*
X8574Y174417D01*
X8485Y174390D01*
X8395Y174369D01*
X8304Y174352D01*
X8212Y174340D01*
X8119Y174332D01*
X8027Y174330D01*
X5074D01*
Y177873D01*
X8027D01*
X8119Y177871D01*
D02*
G37*
G36*
Y173146D02*
X8212Y173139D01*
X8304Y173127D01*
X8395Y173110D01*
X8485Y173089D01*
X8574Y173062D01*
X8662Y173031D01*
X8747Y172996D01*
X8831Y172956D01*
X8912Y172912D01*
X8991Y172863D01*
X9068Y172810D01*
X9142Y172754D01*
X9212Y172694D01*
X9279Y172630D01*
X9343Y172563D01*
X9403Y172492D01*
X9460Y172419D01*
X9512Y172342D01*
X9561Y172263D01*
X9605Y172181D01*
X9645Y172098D01*
X9680Y172012D01*
X9712Y171925D01*
X9738Y171836D01*
X9759Y171746D01*
X9776Y171654D01*
X9788Y171562D01*
X9796Y171470D01*
X9798Y171377D01*
X9796Y171284D01*
X9788Y171192D01*
X9776Y171100D01*
X9759Y171009D01*
X9738Y170919D01*
X9712Y170830D01*
X9680Y170742D01*
X9645Y170657D01*
X9605Y170573D01*
X9561Y170491D01*
X9512Y170412D01*
X9460Y170336D01*
X9403Y170262D01*
X9343Y170192D01*
X9279Y170124D01*
X9212Y170061D01*
X9142Y170000D01*
X9068Y169944D01*
X8991Y169891D01*
X8912Y169843D01*
X8831Y169799D01*
X8747Y169759D01*
X8662Y169723D01*
X8574Y169692D01*
X8485Y169666D01*
X8395Y169644D01*
X8304Y169627D01*
X8212Y169615D01*
X8119Y169608D01*
X8027Y169606D01*
X5074D01*
Y173149D01*
X8027D01*
X8119Y173146D01*
D02*
G37*
G36*
X18552Y171572D02*
X18645Y171564D01*
X18737Y171552D01*
X18828Y171535D01*
X18918Y171514D01*
X19007Y171487D01*
X19094Y171456D01*
X19180Y171421D01*
X19264Y171381D01*
X19345Y171337D01*
X19424Y171288D01*
X19501Y171236D01*
X19575Y171179D01*
X19645Y171119D01*
X19712Y171055D01*
X19776Y170988D01*
X19836Y170917D01*
X19893Y170844D01*
X19945Y170767D01*
X19994Y170688D01*
X20038Y170607D01*
X20078Y170523D01*
X20114Y170437D01*
X20145Y170350D01*
X20171Y170261D01*
X20193Y170171D01*
X20210Y170080D01*
X20222Y169988D01*
X20229Y169895D01*
X20231Y169802D01*
Y166850D01*
X16688D01*
Y169802D01*
X16690Y169895D01*
X16698Y169988D01*
X16710Y170080D01*
X16727Y170171D01*
X16748Y170261D01*
X16775Y170350D01*
X16806Y170437D01*
X16841Y170523D01*
X16881Y170607D01*
X16925Y170688D01*
X16974Y170767D01*
X17026Y170844D01*
X17083Y170917D01*
X17143Y170988D01*
X17207Y171055D01*
X17274Y171119D01*
X17345Y171179D01*
X17418Y171236D01*
X17495Y171288D01*
X17574Y171337D01*
X17655Y171381D01*
X17739Y171421D01*
X17825Y171456D01*
X17912Y171487D01*
X18001Y171514D01*
X18091Y171535D01*
X18182Y171552D01*
X18274Y171564D01*
X18367Y171572D01*
X18460Y171574D01*
X18552Y171572D01*
D02*
G37*
G36*
X21415Y169895D02*
X21422Y169988D01*
X21434Y170080D01*
X21451Y170171D01*
X21473Y170261D01*
X21499Y170350D01*
X21530Y170437D01*
X21565Y170523D01*
X21606Y170607D01*
X21650Y170688D01*
X21698Y170767D01*
X21751Y170844D01*
X21807Y170917D01*
X21867Y170988D01*
X21931Y171055D01*
X21999Y171119D01*
X22069Y171179D01*
X22143Y171236D01*
X22219Y171288D01*
X22298Y171337D01*
X22380Y171381D01*
X22463Y171421D01*
X22549Y171456D01*
X22637Y171487D01*
X22726Y171514D01*
X22816Y171535D01*
X22907Y171552D01*
X22999Y171564D01*
X23091Y171572D01*
X23184Y171574D01*
X23277Y171572D01*
X23369Y171564D01*
X23461Y171552D01*
X23552Y171535D01*
X23643Y171514D01*
X23731Y171487D01*
X23819Y171456D01*
X23905Y171421D01*
X23988Y171381D01*
X24070Y171337D01*
X24149Y171288D01*
X24225Y171236D01*
X24299Y171179D01*
X24370Y171119D01*
X24437Y171055D01*
X24501Y170988D01*
X24561Y170917D01*
X24617Y170844D01*
X24670Y170767D01*
X24718Y170688D01*
X24763Y170607D01*
X24803Y170523D01*
X24838Y170437D01*
X24869Y170350D01*
X24895Y170261D01*
X24917Y170171D01*
X24934Y170080D01*
X24946Y169988D01*
X24953Y169895D01*
X24956Y169802D01*
Y166850D01*
X21412D01*
Y169802D01*
X21415Y169895D01*
D02*
G37*
G36*
X26139D02*
X26147Y169988D01*
X26159Y170080D01*
X26175Y170171D01*
X26197Y170261D01*
X26223Y170350D01*
X26254Y170437D01*
X26290Y170523D01*
X26330Y170607D01*
X26374Y170688D01*
X26423Y170767D01*
X26475Y170844D01*
X26532Y170917D01*
X26592Y170988D01*
X26656Y171055D01*
X26723Y171119D01*
X26794Y171179D01*
X26867Y171236D01*
X26943Y171288D01*
X27023Y171337D01*
X27104Y171381D01*
X27188Y171421D01*
X27273Y171456D01*
X27361Y171487D01*
X27450Y171514D01*
X27540Y171535D01*
X27631Y171552D01*
X27723Y171564D01*
X27816Y171572D01*
X27908Y171574D01*
X28001Y171572D01*
X28094Y171564D01*
X28186Y171552D01*
X28277Y171535D01*
X28367Y171514D01*
X28456Y171487D01*
X28543Y171456D01*
X28629Y171421D01*
X28713Y171381D01*
X28794Y171337D01*
X28873Y171288D01*
X28950Y171236D01*
X29023Y171179D01*
X29094Y171119D01*
X29161Y171055D01*
X29225Y170988D01*
X29285Y170917D01*
X29342Y170844D01*
X29394Y170767D01*
X29443Y170688D01*
X29487Y170607D01*
X29527Y170523D01*
X29562Y170437D01*
X29593Y170350D01*
X29620Y170261D01*
X29641Y170171D01*
X29658Y170080D01*
X29670Y169988D01*
X29678Y169895D01*
X29680Y169802D01*
Y166850D01*
X26137D01*
Y169802D01*
X26139Y169895D01*
D02*
G37*
G36*
X30864D02*
X30871Y169988D01*
X30883Y170080D01*
X30900Y170171D01*
X30922Y170261D01*
X30948Y170350D01*
X30979Y170437D01*
X31014Y170523D01*
X31054Y170607D01*
X31099Y170688D01*
X31147Y170767D01*
X31199Y170844D01*
X31256Y170917D01*
X31316Y170988D01*
X31380Y171055D01*
X31447Y171119D01*
X31518Y171179D01*
X31591Y171236D01*
X31668Y171288D01*
X31747Y171337D01*
X31828Y171381D01*
X31912Y171421D01*
X31998Y171456D01*
X32085Y171487D01*
X32174Y171514D01*
X32265Y171535D01*
X32356Y171552D01*
X32448Y171564D01*
X32540Y171572D01*
X32633Y171574D01*
X32726Y171572D01*
X32818Y171564D01*
X32910Y171552D01*
X33001Y171535D01*
X33091Y171514D01*
X33180Y171487D01*
X33268Y171456D01*
X33353Y171421D01*
X33437Y171381D01*
X33519Y171337D01*
X33598Y171288D01*
X33674Y171236D01*
X33748Y171179D01*
X33818Y171119D01*
X33886Y171055D01*
X33949Y170988D01*
X34010Y170917D01*
X34066Y170844D01*
X34119Y170767D01*
X34167Y170688D01*
X34211Y170607D01*
X34251Y170523D01*
X34287Y170437D01*
X34318Y170350D01*
X34344Y170261D01*
X34366Y170171D01*
X34383Y170080D01*
X34395Y169988D01*
X34402Y169895D01*
X34405Y169802D01*
Y166850D01*
X30861D01*
Y169802D01*
X30864Y169895D01*
D02*
G37*
G36*
X8027Y182598D02*
X8119Y182595D01*
X8212Y182588D01*
X8304Y182576D01*
X8395Y182559D01*
X8485Y182537D01*
X8574Y182511D01*
X8662Y182480D01*
X8747Y182445D01*
X8831Y182405D01*
X8912Y182360D01*
X8991Y182312D01*
X9068Y182259D01*
X9142Y182203D01*
X9212Y182143D01*
X9279Y182079D01*
X9343Y182011D01*
X9403Y181941D01*
X9460Y181867D01*
X9512Y181791D01*
X9561Y181712D01*
X9605Y181630D01*
X9645Y181547D01*
X9680Y181461D01*
X9712Y181374D01*
X9738Y181285D01*
X9759Y181194D01*
X9776Y181103D01*
X9788Y181011D01*
X9796Y180919D01*
X9798Y180826D01*
X9796Y180733D01*
X9788Y180641D01*
X9776Y180549D01*
X9759Y180458D01*
X9738Y180368D01*
X9712Y180279D01*
X9680Y180191D01*
X9645Y180105D01*
X9605Y180022D01*
X9561Y179940D01*
X9512Y179861D01*
X9460Y179785D01*
X9403Y179711D01*
X9343Y179641D01*
X9279Y179573D01*
X9212Y179509D01*
X9142Y179449D01*
X9068Y179393D01*
X8991Y179340D01*
X8912Y179292D01*
X8831Y179247D01*
X8747Y179208D01*
X8662Y179172D01*
X8574Y179141D01*
X8485Y179115D01*
X8395Y179093D01*
X8304Y179076D01*
X8212Y179064D01*
X8119Y179057D01*
X8027Y179054D01*
X5074D01*
Y182598D01*
X8027D01*
D02*
G37*
G36*
Y187322D02*
X8119Y187320D01*
X8212Y187312D01*
X8304Y187300D01*
X8395Y187283D01*
X8485Y187262D01*
X8574Y187235D01*
X8662Y187204D01*
X8747Y187169D01*
X8831Y187129D01*
X8912Y187085D01*
X8991Y187036D01*
X9068Y186984D01*
X9142Y186927D01*
X9212Y186867D01*
X9279Y186803D01*
X9343Y186736D01*
X9403Y186665D01*
X9460Y186592D01*
X9512Y186515D01*
X9561Y186436D01*
X9605Y186355D01*
X9645Y186271D01*
X9680Y186185D01*
X9712Y186098D01*
X9738Y186009D01*
X9759Y185919D01*
X9776Y185828D01*
X9788Y185736D01*
X9796Y185643D01*
X9798Y185550D01*
X9796Y185458D01*
X9788Y185365D01*
X9776Y185273D01*
X9759Y185182D01*
X9738Y185092D01*
X9712Y185003D01*
X9680Y184915D01*
X9645Y184830D01*
X9605Y184746D01*
X9561Y184665D01*
X9512Y184585D01*
X9460Y184509D01*
X9403Y184435D01*
X9343Y184365D01*
X9279Y184298D01*
X9212Y184234D01*
X9142Y184174D01*
X9068Y184117D01*
X8991Y184065D01*
X8912Y184016D01*
X8831Y183972D01*
X8747Y183932D01*
X8662Y183897D01*
X8574Y183865D01*
X8485Y183839D01*
X8395Y183818D01*
X8304Y183801D01*
X8212Y183789D01*
X8119Y183781D01*
X8027Y183779D01*
X5074D01*
Y187322D01*
X8027D01*
D02*
G37*
G36*
Y192046D02*
X8119Y192044D01*
X8212Y192037D01*
X8304Y192025D01*
X8395Y192008D01*
X8485Y191986D01*
X8574Y191960D01*
X8662Y191929D01*
X8747Y191893D01*
X8831Y191853D01*
X8912Y191809D01*
X8991Y191761D01*
X9068Y191708D01*
X9142Y191652D01*
X9212Y191592D01*
X9279Y191528D01*
X9343Y191460D01*
X9403Y191390D01*
X9460Y191316D01*
X9512Y191240D01*
X9561Y191161D01*
X9605Y191079D01*
X9645Y190996D01*
X9680Y190910D01*
X9712Y190822D01*
X9738Y190733D01*
X9759Y190643D01*
X9776Y190552D01*
X9788Y190460D01*
X9796Y190368D01*
X9798Y190275D01*
X9796Y190182D01*
X9788Y190090D01*
X9776Y189998D01*
X9759Y189907D01*
X9738Y189816D01*
X9712Y189727D01*
X9680Y189640D01*
X9645Y189554D01*
X9605Y189471D01*
X9561Y189389D01*
X9512Y189310D01*
X9460Y189234D01*
X9403Y189160D01*
X9343Y189089D01*
X9279Y189022D01*
X9212Y188958D01*
X9142Y188898D01*
X9068Y188842D01*
X8991Y188789D01*
X8912Y188741D01*
X8831Y188696D01*
X8747Y188656D01*
X8662Y188621D01*
X8574Y188590D01*
X8485Y188564D01*
X8395Y188542D01*
X8304Y188525D01*
X8212Y188513D01*
X8119Y188506D01*
X8027Y188503D01*
X5074D01*
Y192046D01*
X8027D01*
D02*
G37*
G36*
Y196771D02*
X8119Y196768D01*
X8212Y196761D01*
X8304Y196749D01*
X8395Y196732D01*
X8485Y196711D01*
X8574Y196684D01*
X8662Y196653D01*
X8747Y196618D01*
X8831Y196578D01*
X8912Y196534D01*
X8991Y196485D01*
X9068Y196433D01*
X9142Y196376D01*
X9212Y196316D01*
X9279Y196252D01*
X9343Y196185D01*
X9403Y196114D01*
X9460Y196041D01*
X9512Y195964D01*
X9561Y195885D01*
X9605Y195804D01*
X9645Y195720D01*
X9680Y195634D01*
X9712Y195547D01*
X9738Y195458D01*
X9759Y195368D01*
X9776Y195276D01*
X9788Y195185D01*
X9796Y195092D01*
X9798Y194999D01*
X9796Y194906D01*
X9788Y194814D01*
X9776Y194722D01*
X9759Y194631D01*
X9738Y194541D01*
X9712Y194452D01*
X9680Y194364D01*
X9645Y194279D01*
X9605Y194195D01*
X9561Y194113D01*
X9512Y194034D01*
X9460Y193958D01*
X9403Y193884D01*
X9343Y193814D01*
X9279Y193746D01*
X9212Y193683D01*
X9142Y193622D01*
X9068Y193566D01*
X8991Y193513D01*
X8912Y193465D01*
X8831Y193421D01*
X8747Y193381D01*
X8662Y193345D01*
X8574Y193314D01*
X8485Y193288D01*
X8395Y193266D01*
X8304Y193249D01*
X8212Y193237D01*
X8119Y193230D01*
X8027Y193228D01*
X5074D01*
Y196771D01*
X8027D01*
D02*
G37*
G36*
Y201495D02*
X8119Y201493D01*
X8212Y201486D01*
X8304Y201473D01*
X8395Y201457D01*
X8485Y201435D01*
X8574Y201409D01*
X8662Y201378D01*
X8747Y201342D01*
X8831Y201302D01*
X8912Y201258D01*
X8991Y201209D01*
X9068Y201157D01*
X9142Y201100D01*
X9212Y201040D01*
X9279Y200976D01*
X9343Y200909D01*
X9403Y200839D01*
X9460Y200765D01*
X9512Y200689D01*
X9561Y200609D01*
X9605Y200528D01*
X9645Y200444D01*
X9680Y200359D01*
X9712Y200271D01*
X9738Y200182D01*
X9759Y200092D01*
X9776Y200001D01*
X9788Y199909D01*
X9796Y199816D01*
X9798Y199724D01*
X9796Y199631D01*
X9788Y199539D01*
X9776Y199446D01*
X9759Y199355D01*
X9738Y199265D01*
X9712Y199176D01*
X9680Y199089D01*
X9645Y199003D01*
X9605Y198919D01*
X9561Y198838D01*
X9512Y198759D01*
X9460Y198682D01*
X9403Y198609D01*
X9343Y198538D01*
X9279Y198471D01*
X9212Y198407D01*
X9142Y198347D01*
X9068Y198290D01*
X8991Y198238D01*
X8912Y198189D01*
X8831Y198145D01*
X8747Y198105D01*
X8662Y198070D01*
X8574Y198039D01*
X8485Y198012D01*
X8395Y197991D01*
X8304Y197974D01*
X8212Y197962D01*
X8119Y197954D01*
X8027Y197952D01*
X5074D01*
Y201495D01*
X8027D01*
D02*
G37*
G36*
Y206220D02*
X8119Y206217D01*
X8212Y206210D01*
X8304Y206198D01*
X8395Y206181D01*
X8485Y206159D01*
X8574Y206133D01*
X8662Y206102D01*
X8747Y206067D01*
X8831Y206027D01*
X8912Y205982D01*
X8991Y205934D01*
X9068Y205881D01*
X9142Y205825D01*
X9212Y205765D01*
X9279Y205701D01*
X9343Y205634D01*
X9403Y205563D01*
X9460Y205489D01*
X9512Y205413D01*
X9561Y205334D01*
X9605Y205252D01*
X9645Y205169D01*
X9680Y205083D01*
X9712Y204996D01*
X9738Y204907D01*
X9759Y204816D01*
X9776Y204725D01*
X9788Y204633D01*
X9796Y204541D01*
X9798Y204448D01*
X9796Y204355D01*
X9788Y204263D01*
X9776Y204171D01*
X9759Y204080D01*
X9738Y203990D01*
X9712Y203901D01*
X9680Y203813D01*
X9645Y203728D01*
X9605Y203644D01*
X9561Y203562D01*
X9512Y203483D01*
X9460Y203407D01*
X9403Y203333D01*
X9343Y203263D01*
X9279Y203195D01*
X9212Y203132D01*
X9142Y203071D01*
X9068Y203015D01*
X8991Y202962D01*
X8912Y202914D01*
X8831Y202870D01*
X8747Y202830D01*
X8662Y202794D01*
X8574Y202763D01*
X8485Y202737D01*
X8395Y202715D01*
X8304Y202698D01*
X8212Y202686D01*
X8119Y202679D01*
X8027Y202676D01*
X5074D01*
Y206220D01*
X8027D01*
D02*
G37*
G36*
Y210944D02*
X8119Y210942D01*
X8212Y210934D01*
X8304Y210922D01*
X8395Y210905D01*
X8485Y210884D01*
X8574Y210857D01*
X8662Y210826D01*
X8747Y210791D01*
X8831Y210751D01*
X8912Y210707D01*
X8991Y210658D01*
X9068Y210606D01*
X9142Y210549D01*
X9212Y210489D01*
X9279Y210425D01*
X9343Y210358D01*
X9403Y210287D01*
X9460Y210214D01*
X9512Y210137D01*
X9561Y210058D01*
X9605Y209977D01*
X9645Y209893D01*
X9680Y209807D01*
X9712Y209720D01*
X9738Y209631D01*
X9759Y209541D01*
X9776Y209450D01*
X9788Y209358D01*
X9796Y209265D01*
X9798Y209173D01*
X9796Y209080D01*
X9788Y208987D01*
X9776Y208895D01*
X9759Y208804D01*
X9738Y208714D01*
X9712Y208625D01*
X9680Y208538D01*
X9645Y208452D01*
X9605Y208368D01*
X9561Y208287D01*
X9512Y208208D01*
X9460Y208131D01*
X9403Y208058D01*
X9343Y207987D01*
X9279Y207920D01*
X9212Y207856D01*
X9142Y207796D01*
X9068Y207739D01*
X8991Y207687D01*
X8912Y207638D01*
X8831Y207594D01*
X8747Y207554D01*
X8662Y207519D01*
X8574Y207488D01*
X8485Y207461D01*
X8395Y207440D01*
X8304Y207423D01*
X8212Y207411D01*
X8119Y207403D01*
X8027Y207401D01*
X5074D01*
Y210944D01*
X8027D01*
D02*
G37*
G36*
X35588Y169895D02*
X35595Y169988D01*
X35607Y170080D01*
X35624Y170171D01*
X35646Y170261D01*
X35672Y170350D01*
X35703Y170437D01*
X35739Y170523D01*
X35779Y170607D01*
X35823Y170688D01*
X35871Y170767D01*
X35924Y170844D01*
X35980Y170917D01*
X36041Y170988D01*
X36105Y171055D01*
X36172Y171119D01*
X36242Y171179D01*
X36316Y171236D01*
X36392Y171288D01*
X36471Y171337D01*
X36553Y171381D01*
X36637Y171421D01*
X36722Y171456D01*
X36810Y171487D01*
X36899Y171514D01*
X36989Y171535D01*
X37080Y171552D01*
X37172Y171564D01*
X37264Y171572D01*
X37357Y171574D01*
X37450Y171572D01*
X37542Y171564D01*
X37634Y171552D01*
X37726Y171535D01*
X37816Y171514D01*
X37905Y171487D01*
X37992Y171456D01*
X38078Y171421D01*
X38162Y171381D01*
X38243Y171337D01*
X38322Y171288D01*
X38399Y171236D01*
X38472Y171179D01*
X38543Y171119D01*
X38610Y171055D01*
X38674Y170988D01*
X38734Y170917D01*
X38791Y170844D01*
X38843Y170767D01*
X38892Y170688D01*
X38936Y170607D01*
X38976Y170523D01*
X39011Y170437D01*
X39042Y170350D01*
X39068Y170261D01*
X39090Y170171D01*
X39107Y170080D01*
X39119Y169988D01*
X39127Y169895D01*
X39129Y169802D01*
Y166850D01*
X35586D01*
Y169802D01*
X35588Y169895D01*
D02*
G37*
G36*
X40312D02*
X40320Y169988D01*
X40332Y170080D01*
X40349Y170171D01*
X40370Y170261D01*
X40397Y170350D01*
X40428Y170437D01*
X40463Y170523D01*
X40503Y170607D01*
X40547Y170688D01*
X40596Y170767D01*
X40648Y170844D01*
X40705Y170917D01*
X40765Y170988D01*
X40829Y171055D01*
X40896Y171119D01*
X40967Y171179D01*
X41040Y171236D01*
X41117Y171288D01*
X41196Y171337D01*
X41277Y171381D01*
X41361Y171421D01*
X41447Y171456D01*
X41534Y171487D01*
X41623Y171514D01*
X41713Y171535D01*
X41805Y171552D01*
X41897Y171564D01*
X41989Y171572D01*
X42082Y171574D01*
X42174Y171572D01*
X42267Y171564D01*
X42359Y171552D01*
X42450Y171535D01*
X42540Y171514D01*
X42629Y171487D01*
X42717Y171456D01*
X42802Y171421D01*
X42886Y171381D01*
X42968Y171337D01*
X43047Y171288D01*
X43123Y171236D01*
X43197Y171179D01*
X43267Y171119D01*
X43334Y171055D01*
X43398Y170988D01*
X43459Y170917D01*
X43515Y170844D01*
X43567Y170767D01*
X43616Y170688D01*
X43660Y170607D01*
X43700Y170523D01*
X43736Y170437D01*
X43767Y170350D01*
X43793Y170261D01*
X43815Y170171D01*
X43832Y170080D01*
X43844Y169988D01*
X43851Y169895D01*
X43853Y169802D01*
Y166850D01*
X40310D01*
Y169802D01*
X40312Y169895D01*
D02*
G37*
G36*
X45037D02*
X45044Y169988D01*
X45056Y170080D01*
X45073Y170171D01*
X45095Y170261D01*
X45121Y170350D01*
X45152Y170437D01*
X45188Y170523D01*
X45228Y170607D01*
X45272Y170688D01*
X45320Y170767D01*
X45373Y170844D01*
X45429Y170917D01*
X45489Y170988D01*
X45553Y171055D01*
X45621Y171119D01*
X45691Y171179D01*
X45765Y171236D01*
X45841Y171288D01*
X45920Y171337D01*
X46002Y171381D01*
X46086Y171421D01*
X46171Y171456D01*
X46259Y171487D01*
X46347Y171514D01*
X46438Y171535D01*
X46529Y171552D01*
X46621Y171564D01*
X46713Y171572D01*
X46806Y171574D01*
X46899Y171572D01*
X46991Y171564D01*
X47083Y171552D01*
X47174Y171535D01*
X47265Y171514D01*
X47354Y171487D01*
X47441Y171456D01*
X47527Y171421D01*
X47610Y171381D01*
X47692Y171337D01*
X47771Y171288D01*
X47847Y171236D01*
X47921Y171179D01*
X47991Y171119D01*
X48059Y171055D01*
X48123Y170988D01*
X48183Y170917D01*
X48239Y170844D01*
X48292Y170767D01*
X48340Y170688D01*
X48385Y170607D01*
X48425Y170523D01*
X48460Y170437D01*
X48491Y170350D01*
X48517Y170261D01*
X48539Y170171D01*
X48556Y170080D01*
X48568Y169988D01*
X48575Y169895D01*
X48578Y169802D01*
Y166850D01*
X45034D01*
Y169802D01*
X45037Y169895D01*
D02*
G37*
G36*
X49761D02*
X49768Y169988D01*
X49781Y170080D01*
X49797Y170171D01*
X49819Y170261D01*
X49845Y170350D01*
X49876Y170437D01*
X49912Y170523D01*
X49952Y170607D01*
X49996Y170688D01*
X50045Y170767D01*
X50097Y170844D01*
X50154Y170917D01*
X50214Y170988D01*
X50278Y171055D01*
X50345Y171119D01*
X50416Y171179D01*
X50489Y171236D01*
X50566Y171288D01*
X50645Y171337D01*
X50726Y171381D01*
X50810Y171421D01*
X50896Y171456D01*
X50983Y171487D01*
X51072Y171514D01*
X51162Y171535D01*
X51253Y171552D01*
X51345Y171564D01*
X51438Y171572D01*
X51530Y171574D01*
X51623Y171572D01*
X51716Y171564D01*
X51808Y171552D01*
X51899Y171535D01*
X51989Y171514D01*
X52078Y171487D01*
X52165Y171456D01*
X52251Y171421D01*
X52335Y171381D01*
X52416Y171337D01*
X52495Y171288D01*
X52572Y171236D01*
X52645Y171179D01*
X52716Y171119D01*
X52783Y171055D01*
X52847Y170988D01*
X52907Y170917D01*
X52964Y170844D01*
X53016Y170767D01*
X53065Y170688D01*
X53109Y170607D01*
X53149Y170523D01*
X53184Y170437D01*
X53215Y170350D01*
X53242Y170261D01*
X53263Y170171D01*
X53280Y170080D01*
X53292Y169988D01*
X53300Y169895D01*
X53302Y169802D01*
Y166850D01*
X49759D01*
Y169802D01*
X49761Y169895D01*
D02*
G37*
G36*
X60194Y171470D02*
X60202Y171562D01*
X60214Y171654D01*
X60231Y171746D01*
X60252Y171836D01*
X60279Y171925D01*
X60310Y172012D01*
X60345Y172098D01*
X60385Y172181D01*
X60429Y172263D01*
X60478Y172342D01*
X60530Y172419D01*
X60587Y172492D01*
X60647Y172563D01*
X60711Y172630D01*
X60778Y172694D01*
X60849Y172754D01*
X60922Y172810D01*
X60999Y172863D01*
X61078Y172912D01*
X61159Y172956D01*
X61243Y172996D01*
X61329Y173031D01*
X61416Y173062D01*
X61505Y173089D01*
X61595Y173110D01*
X61686Y173127D01*
X61778Y173139D01*
X61871Y173146D01*
X61963Y173149D01*
X64916D01*
Y169606D01*
X61963D01*
X61871Y169608D01*
X61778Y169615D01*
X61686Y169627D01*
X61595Y169644D01*
X61505Y169666D01*
X61416Y169692D01*
X61329Y169723D01*
X61243Y169759D01*
X61159Y169799D01*
X61078Y169843D01*
X60999Y169891D01*
X60922Y169944D01*
X60849Y170000D01*
X60778Y170061D01*
X60711Y170124D01*
X60647Y170192D01*
X60587Y170262D01*
X60530Y170336D01*
X60478Y170412D01*
X60429Y170491D01*
X60385Y170573D01*
X60345Y170657D01*
X60310Y170742D01*
X60279Y170830D01*
X60252Y170919D01*
X60231Y171009D01*
X60214Y171100D01*
X60202Y171192D01*
X60194Y171284D01*
X60192Y171377D01*
X60194Y171470D01*
D02*
G37*
G36*
Y176194D02*
X60202Y176287D01*
X60214Y176379D01*
X60231Y176470D01*
X60252Y176560D01*
X60279Y176649D01*
X60310Y176736D01*
X60345Y176822D01*
X60385Y176906D01*
X60429Y176988D01*
X60478Y177067D01*
X60530Y177143D01*
X60587Y177217D01*
X60647Y177287D01*
X60711Y177354D01*
X60778Y177418D01*
X60849Y177479D01*
X60922Y177535D01*
X60999Y177587D01*
X61078Y177636D01*
X61159Y177680D01*
X61243Y177720D01*
X61329Y177756D01*
X61416Y177787D01*
X61505Y177813D01*
X61595Y177835D01*
X61686Y177851D01*
X61778Y177864D01*
X61871Y177871D01*
X61963Y177873D01*
X64916D01*
Y174330D01*
X61963D01*
X61871Y174332D01*
X61778Y174340D01*
X61686Y174352D01*
X61595Y174369D01*
X61505Y174390D01*
X61416Y174417D01*
X61329Y174448D01*
X61243Y174483D01*
X61159Y174523D01*
X61078Y174567D01*
X60999Y174616D01*
X60922Y174668D01*
X60849Y174725D01*
X60778Y174785D01*
X60711Y174849D01*
X60647Y174916D01*
X60587Y174987D01*
X60530Y175060D01*
X60478Y175137D01*
X60429Y175216D01*
X60385Y175297D01*
X60345Y175381D01*
X60310Y175467D01*
X60279Y175554D01*
X60252Y175643D01*
X60231Y175733D01*
X60214Y175824D01*
X60202Y175916D01*
X60194Y176009D01*
X60192Y176102D01*
X60194Y176194D01*
D02*
G37*
G36*
Y180919D02*
X60202Y181011D01*
X60214Y181103D01*
X60231Y181194D01*
X60252Y181285D01*
X60279Y181374D01*
X60310Y181461D01*
X60345Y181547D01*
X60385Y181630D01*
X60429Y181712D01*
X60478Y181791D01*
X60530Y181867D01*
X60587Y181941D01*
X60647Y182011D01*
X60711Y182079D01*
X60778Y182143D01*
X60849Y182203D01*
X60922Y182259D01*
X60999Y182312D01*
X61078Y182360D01*
X61159Y182405D01*
X61243Y182445D01*
X61329Y182480D01*
X61416Y182511D01*
X61505Y182537D01*
X61595Y182559D01*
X61686Y182576D01*
X61778Y182588D01*
X61871Y182595D01*
X61963Y182598D01*
X64916D01*
Y179054D01*
X61963D01*
X61871Y179057D01*
X61778Y179064D01*
X61686Y179076D01*
X61595Y179093D01*
X61505Y179115D01*
X61416Y179141D01*
X61329Y179172D01*
X61243Y179208D01*
X61159Y179247D01*
X61078Y179292D01*
X60999Y179340D01*
X60922Y179393D01*
X60849Y179449D01*
X60778Y179509D01*
X60711Y179573D01*
X60647Y179641D01*
X60587Y179711D01*
X60530Y179785D01*
X60478Y179861D01*
X60429Y179940D01*
X60385Y180022D01*
X60345Y180105D01*
X60310Y180191D01*
X60279Y180279D01*
X60252Y180368D01*
X60231Y180458D01*
X60214Y180549D01*
X60202Y180641D01*
X60194Y180733D01*
X60192Y180826D01*
X60194Y180919D01*
D02*
G37*
G36*
Y185643D02*
X60202Y185736D01*
X60214Y185828D01*
X60231Y185919D01*
X60252Y186009D01*
X60279Y186098D01*
X60310Y186185D01*
X60345Y186271D01*
X60385Y186355D01*
X60429Y186436D01*
X60478Y186515D01*
X60530Y186592D01*
X60587Y186665D01*
X60647Y186736D01*
X60711Y186803D01*
X60778Y186867D01*
X60849Y186927D01*
X60922Y186984D01*
X60999Y187036D01*
X61078Y187085D01*
X61159Y187129D01*
X61243Y187169D01*
X61329Y187204D01*
X61416Y187235D01*
X61505Y187262D01*
X61595Y187283D01*
X61686Y187300D01*
X61778Y187312D01*
X61871Y187320D01*
X61963Y187322D01*
X64916D01*
Y183779D01*
X61963D01*
X61871Y183781D01*
X61778Y183789D01*
X61686Y183801D01*
X61595Y183818D01*
X61505Y183839D01*
X61416Y183865D01*
X61329Y183897D01*
X61243Y183932D01*
X61159Y183972D01*
X61078Y184016D01*
X60999Y184065D01*
X60922Y184117D01*
X60849Y184174D01*
X60778Y184234D01*
X60711Y184298D01*
X60647Y184365D01*
X60587Y184435D01*
X60530Y184509D01*
X60478Y184585D01*
X60429Y184665D01*
X60385Y184746D01*
X60345Y184830D01*
X60310Y184915D01*
X60279Y185003D01*
X60252Y185092D01*
X60231Y185182D01*
X60214Y185273D01*
X60202Y185365D01*
X60194Y185458D01*
X60192Y185550D01*
X60194Y185643D01*
D02*
G37*
G36*
Y190368D02*
X60202Y190460D01*
X60214Y190552D01*
X60231Y190643D01*
X60252Y190733D01*
X60279Y190822D01*
X60310Y190910D01*
X60345Y190996D01*
X60385Y191079D01*
X60429Y191161D01*
X60478Y191240D01*
X60530Y191316D01*
X60587Y191390D01*
X60647Y191460D01*
X60711Y191528D01*
X60778Y191592D01*
X60849Y191652D01*
X60922Y191708D01*
X60999Y191761D01*
X61078Y191809D01*
X61159Y191853D01*
X61243Y191893D01*
X61329Y191929D01*
X61416Y191960D01*
X61505Y191986D01*
X61595Y192008D01*
X61686Y192025D01*
X61778Y192037D01*
X61871Y192044D01*
X61963Y192046D01*
X64916D01*
Y188503D01*
X61963D01*
X61871Y188506D01*
X61778Y188513D01*
X61686Y188525D01*
X61595Y188542D01*
X61505Y188564D01*
X61416Y188590D01*
X61329Y188621D01*
X61243Y188656D01*
X61159Y188696D01*
X61078Y188741D01*
X60999Y188789D01*
X60922Y188842D01*
X60849Y188898D01*
X60778Y188958D01*
X60711Y189022D01*
X60647Y189089D01*
X60587Y189160D01*
X60530Y189234D01*
X60478Y189310D01*
X60429Y189389D01*
X60385Y189471D01*
X60345Y189554D01*
X60310Y189640D01*
X60279Y189727D01*
X60252Y189816D01*
X60231Y189907D01*
X60214Y189998D01*
X60202Y190090D01*
X60194Y190182D01*
X60192Y190275D01*
X60194Y190368D01*
D02*
G37*
G36*
Y195092D02*
X60202Y195185D01*
X60214Y195276D01*
X60231Y195368D01*
X60252Y195458D01*
X60279Y195547D01*
X60310Y195634D01*
X60345Y195720D01*
X60385Y195804D01*
X60429Y195885D01*
X60478Y195964D01*
X60530Y196041D01*
X60587Y196114D01*
X60647Y196185D01*
X60711Y196252D01*
X60778Y196316D01*
X60849Y196376D01*
X60922Y196433D01*
X60999Y196485D01*
X61078Y196534D01*
X61159Y196578D01*
X61243Y196618D01*
X61329Y196653D01*
X61416Y196684D01*
X61505Y196711D01*
X61595Y196732D01*
X61686Y196749D01*
X61778Y196761D01*
X61871Y196768D01*
X61963Y196771D01*
X64916D01*
Y193228D01*
X61963D01*
X61871Y193230D01*
X61778Y193237D01*
X61686Y193249D01*
X61595Y193266D01*
X61505Y193288D01*
X61416Y193314D01*
X61329Y193345D01*
X61243Y193381D01*
X61159Y193421D01*
X61078Y193465D01*
X60999Y193513D01*
X60922Y193566D01*
X60849Y193622D01*
X60778Y193683D01*
X60711Y193746D01*
X60647Y193814D01*
X60587Y193884D01*
X60530Y193958D01*
X60478Y194034D01*
X60429Y194113D01*
X60385Y194195D01*
X60345Y194279D01*
X60310Y194364D01*
X60279Y194452D01*
X60252Y194541D01*
X60231Y194631D01*
X60214Y194722D01*
X60202Y194814D01*
X60194Y194906D01*
X60192Y194999D01*
X60194Y195092D01*
D02*
G37*
G36*
Y199816D02*
X60202Y199909D01*
X60214Y200001D01*
X60231Y200092D01*
X60252Y200182D01*
X60279Y200271D01*
X60310Y200359D01*
X60345Y200444D01*
X60385Y200528D01*
X60429Y200609D01*
X60478Y200689D01*
X60530Y200765D01*
X60587Y200839D01*
X60647Y200909D01*
X60711Y200976D01*
X60778Y201040D01*
X60849Y201100D01*
X60922Y201157D01*
X60999Y201209D01*
X61078Y201258D01*
X61159Y201302D01*
X61243Y201342D01*
X61329Y201378D01*
X61416Y201409D01*
X61505Y201435D01*
X61595Y201457D01*
X61686Y201473D01*
X61778Y201486D01*
X61871Y201493D01*
X61963Y201495D01*
X64916D01*
Y197952D01*
X61963D01*
X61871Y197954D01*
X61778Y197962D01*
X61686Y197974D01*
X61595Y197991D01*
X61505Y198012D01*
X61416Y198039D01*
X61329Y198070D01*
X61243Y198105D01*
X61159Y198145D01*
X61078Y198189D01*
X60999Y198238D01*
X60922Y198290D01*
X60849Y198347D01*
X60778Y198407D01*
X60711Y198471D01*
X60647Y198538D01*
X60587Y198609D01*
X60530Y198682D01*
X60478Y198759D01*
X60429Y198838D01*
X60385Y198919D01*
X60345Y199003D01*
X60310Y199089D01*
X60279Y199176D01*
X60252Y199265D01*
X60231Y199355D01*
X60214Y199446D01*
X60202Y199539D01*
X60194Y199631D01*
X60192Y199724D01*
X60194Y199816D01*
D02*
G37*
G36*
Y204541D02*
X60202Y204633D01*
X60214Y204725D01*
X60231Y204816D01*
X60252Y204907D01*
X60279Y204996D01*
X60310Y205083D01*
X60345Y205169D01*
X60385Y205252D01*
X60429Y205334D01*
X60478Y205413D01*
X60530Y205489D01*
X60587Y205563D01*
X60647Y205634D01*
X60711Y205701D01*
X60778Y205765D01*
X60849Y205825D01*
X60922Y205881D01*
X60999Y205934D01*
X61078Y205982D01*
X61159Y206027D01*
X61243Y206067D01*
X61329Y206102D01*
X61416Y206133D01*
X61505Y206159D01*
X61595Y206181D01*
X61686Y206198D01*
X61778Y206210D01*
X61871Y206217D01*
X61963Y206220D01*
X64916D01*
Y202676D01*
X61963D01*
X61871Y202679D01*
X61778Y202686D01*
X61686Y202698D01*
X61595Y202715D01*
X61505Y202737D01*
X61416Y202763D01*
X61329Y202794D01*
X61243Y202830D01*
X61159Y202870D01*
X61078Y202914D01*
X60999Y202962D01*
X60922Y203015D01*
X60849Y203071D01*
X60778Y203132D01*
X60711Y203195D01*
X60647Y203263D01*
X60587Y203333D01*
X60530Y203407D01*
X60478Y203483D01*
X60429Y203562D01*
X60385Y203644D01*
X60345Y203728D01*
X60310Y203813D01*
X60279Y203901D01*
X60252Y203990D01*
X60231Y204080D01*
X60214Y204171D01*
X60202Y204263D01*
X60194Y204355D01*
X60192Y204448D01*
X60194Y204541D01*
D02*
G37*
G36*
Y209265D02*
X60202Y209358D01*
X60214Y209450D01*
X60231Y209541D01*
X60252Y209631D01*
X60279Y209720D01*
X60310Y209807D01*
X60345Y209893D01*
X60385Y209977D01*
X60429Y210058D01*
X60478Y210137D01*
X60530Y210214D01*
X60587Y210287D01*
X60647Y210358D01*
X60711Y210425D01*
X60778Y210489D01*
X60849Y210549D01*
X60922Y210606D01*
X60999Y210658D01*
X61078Y210707D01*
X61159Y210751D01*
X61243Y210791D01*
X61329Y210826D01*
X61416Y210857D01*
X61505Y210884D01*
X61595Y210905D01*
X61686Y210922D01*
X61778Y210934D01*
X61871Y210942D01*
X61963Y210944D01*
X64916D01*
Y207401D01*
X61963D01*
X61871Y207403D01*
X61778Y207411D01*
X61686Y207423D01*
X61595Y207440D01*
X61505Y207461D01*
X61416Y207488D01*
X61329Y207519D01*
X61243Y207554D01*
X61159Y207594D01*
X61078Y207638D01*
X60999Y207687D01*
X60922Y207739D01*
X60849Y207796D01*
X60778Y207856D01*
X60711Y207920D01*
X60647Y207987D01*
X60587Y208058D01*
X60530Y208131D01*
X60478Y208208D01*
X60429Y208287D01*
X60385Y208368D01*
X60345Y208452D01*
X60310Y208538D01*
X60279Y208625D01*
X60252Y208714D01*
X60231Y208804D01*
X60214Y208895D01*
X60202Y208987D01*
X60194Y209080D01*
X60192Y209173D01*
X60194Y209265D01*
D02*
G37*
G36*
X8027Y215669D02*
X8119Y215666D01*
X8212Y215659D01*
X8304Y215647D01*
X8395Y215630D01*
X8485Y215608D01*
X8574Y215582D01*
X8662Y215551D01*
X8747Y215515D01*
X8831Y215476D01*
X8912Y215431D01*
X8991Y215383D01*
X9068Y215330D01*
X9142Y215274D01*
X9212Y215213D01*
X9279Y215150D01*
X9343Y215082D01*
X9403Y215012D01*
X9460Y214938D01*
X9512Y214862D01*
X9561Y214783D01*
X9605Y214701D01*
X9645Y214617D01*
X9680Y214532D01*
X9712Y214444D01*
X9738Y214355D01*
X9759Y214265D01*
X9776Y214174D01*
X9788Y214082D01*
X9796Y213990D01*
X9798Y213897D01*
X9796Y213804D01*
X9788Y213712D01*
X9776Y213620D01*
X9759Y213529D01*
X9738Y213438D01*
X9712Y213349D01*
X9680Y213262D01*
X9645Y213176D01*
X9605Y213093D01*
X9561Y213011D01*
X9512Y212932D01*
X9460Y212856D01*
X9403Y212782D01*
X9343Y212711D01*
X9279Y212644D01*
X9212Y212580D01*
X9142Y212520D01*
X9068Y212464D01*
X8991Y212411D01*
X8912Y212363D01*
X8831Y212318D01*
X8747Y212278D01*
X8662Y212243D01*
X8574Y212212D01*
X8485Y212186D01*
X8395Y212164D01*
X8304Y212147D01*
X8212Y212135D01*
X8119Y212128D01*
X8027Y212125D01*
X5074D01*
Y215669D01*
X8027D01*
D02*
G37*
G36*
Y220393D02*
X8119Y220391D01*
X8212Y220383D01*
X8304Y220371D01*
X8395Y220354D01*
X8485Y220333D01*
X8574Y220306D01*
X8662Y220275D01*
X8747Y220240D01*
X8831Y220200D01*
X8912Y220156D01*
X8991Y220107D01*
X9068Y220055D01*
X9142Y219998D01*
X9212Y219938D01*
X9279Y219874D01*
X9343Y219807D01*
X9403Y219736D01*
X9460Y219663D01*
X9512Y219586D01*
X9561Y219507D01*
X9605Y219426D01*
X9645Y219342D01*
X9680Y219256D01*
X9712Y219169D01*
X9738Y219080D01*
X9759Y218990D01*
X9776Y218899D01*
X9788Y218807D01*
X9796Y218714D01*
X9798Y218621D01*
X9796Y218529D01*
X9788Y218436D01*
X9776Y218344D01*
X9759Y218253D01*
X9738Y218163D01*
X9712Y218074D01*
X9680Y217986D01*
X9645Y217901D01*
X9605Y217817D01*
X9561Y217736D01*
X9512Y217656D01*
X9460Y217580D01*
X9403Y217506D01*
X9343Y217436D01*
X9279Y217369D01*
X9212Y217305D01*
X9142Y217245D01*
X9068Y217188D01*
X8991Y217136D01*
X8912Y217087D01*
X8831Y217043D01*
X8747Y217003D01*
X8662Y216967D01*
X8574Y216936D01*
X8485Y216910D01*
X8395Y216888D01*
X8304Y216872D01*
X8212Y216859D01*
X8119Y216852D01*
X8027Y216850D01*
X5074D01*
Y220393D01*
X8027D01*
D02*
G37*
G36*
Y225117D02*
X8119Y225115D01*
X8212Y225108D01*
X8304Y225096D01*
X8395Y225079D01*
X8485Y225057D01*
X8574Y225031D01*
X8662Y225000D01*
X8747Y224964D01*
X8831Y224924D01*
X8912Y224880D01*
X8991Y224832D01*
X9068Y224779D01*
X9142Y224723D01*
X9212Y224662D01*
X9279Y224599D01*
X9343Y224531D01*
X9403Y224461D01*
X9460Y224387D01*
X9512Y224311D01*
X9561Y224232D01*
X9605Y224150D01*
X9645Y224066D01*
X9680Y223981D01*
X9712Y223893D01*
X9738Y223804D01*
X9759Y223714D01*
X9776Y223623D01*
X9788Y223531D01*
X9796Y223438D01*
X9798Y223346D01*
X9796Y223253D01*
X9788Y223161D01*
X9776Y223069D01*
X9759Y222977D01*
X9738Y222887D01*
X9712Y222798D01*
X9680Y222711D01*
X9645Y222625D01*
X9605Y222541D01*
X9561Y222460D01*
X9512Y222381D01*
X9460Y222304D01*
X9403Y222231D01*
X9343Y222160D01*
X9279Y222093D01*
X9212Y222029D01*
X9142Y221969D01*
X9068Y221912D01*
X8991Y221860D01*
X8912Y221811D01*
X8831Y221767D01*
X8747Y221727D01*
X8662Y221692D01*
X8574Y221661D01*
X8485Y221634D01*
X8395Y221613D01*
X8304Y221596D01*
X8212Y221584D01*
X8119Y221576D01*
X8027Y221574D01*
X5074D01*
Y225117D01*
X8027D01*
D02*
G37*
G36*
Y229842D02*
X8119Y229839D01*
X8212Y229832D01*
X8304Y229820D01*
X8395Y229803D01*
X8485Y229781D01*
X8574Y229755D01*
X8662Y229724D01*
X8747Y229689D01*
X8831Y229649D01*
X8912Y229604D01*
X8991Y229556D01*
X9068Y229503D01*
X9142Y229447D01*
X9212Y229387D01*
X9279Y229323D01*
X9343Y229256D01*
X9403Y229185D01*
X9460Y229112D01*
X9512Y229035D01*
X9561Y228956D01*
X9605Y228874D01*
X9645Y228791D01*
X9680Y228705D01*
X9712Y228618D01*
X9738Y228529D01*
X9759Y228438D01*
X9776Y228347D01*
X9788Y228255D01*
X9796Y228163D01*
X9798Y228070D01*
X9796Y227977D01*
X9788Y227885D01*
X9776Y227793D01*
X9759Y227702D01*
X9738Y227612D01*
X9712Y227523D01*
X9680Y227435D01*
X9645Y227349D01*
X9605Y227266D01*
X9561Y227184D01*
X9512Y227105D01*
X9460Y227029D01*
X9403Y226955D01*
X9343Y226885D01*
X9279Y226817D01*
X9212Y226753D01*
X9142Y226693D01*
X9068Y226637D01*
X8991Y226584D01*
X8912Y226536D01*
X8831Y226492D01*
X8747Y226452D01*
X8662Y226416D01*
X8574Y226385D01*
X8485Y226359D01*
X8395Y226337D01*
X8304Y226320D01*
X8212Y226308D01*
X8119Y226301D01*
X8027Y226298D01*
X5074D01*
Y229842D01*
X8027D01*
D02*
G37*
G36*
Y234566D02*
X8119Y234564D01*
X8212Y234557D01*
X8304Y234544D01*
X8395Y234527D01*
X8485Y234506D01*
X8574Y234479D01*
X8662Y234449D01*
X8747Y234413D01*
X8831Y234373D01*
X8912Y234329D01*
X8991Y234280D01*
X9068Y234228D01*
X9142Y234171D01*
X9212Y234111D01*
X9279Y234047D01*
X9343Y233980D01*
X9403Y233910D01*
X9460Y233836D01*
X9512Y233759D01*
X9561Y233680D01*
X9605Y233599D01*
X9645Y233515D01*
X9680Y233429D01*
X9712Y233342D01*
X9738Y233253D01*
X9759Y233163D01*
X9776Y233072D01*
X9788Y232980D01*
X9796Y232887D01*
X9798Y232794D01*
X9796Y232702D01*
X9788Y232609D01*
X9776Y232517D01*
X9759Y232426D01*
X9738Y232336D01*
X9712Y232247D01*
X9680Y232160D01*
X9645Y232074D01*
X9605Y231990D01*
X9561Y231909D01*
X9512Y231830D01*
X9460Y231753D01*
X9403Y231680D01*
X9343Y231609D01*
X9279Y231542D01*
X9212Y231478D01*
X9142Y231418D01*
X9068Y231361D01*
X8991Y231309D01*
X8912Y231260D01*
X8831Y231216D01*
X8747Y231176D01*
X8662Y231141D01*
X8574Y231110D01*
X8485Y231083D01*
X8395Y231062D01*
X8304Y231045D01*
X8212Y231033D01*
X8119Y231025D01*
X8027Y231023D01*
X5074D01*
Y234566D01*
X8027D01*
D02*
G37*
G36*
Y239291D02*
X8119Y239288D01*
X8212Y239281D01*
X8304Y239269D01*
X8395Y239252D01*
X8485Y239230D01*
X8574Y239204D01*
X8662Y239173D01*
X8747Y239137D01*
X8831Y239097D01*
X8912Y239053D01*
X8991Y239005D01*
X9068Y238952D01*
X9142Y238896D01*
X9212Y238836D01*
X9279Y238772D01*
X9343Y238704D01*
X9403Y238634D01*
X9460Y238560D01*
X9512Y238484D01*
X9561Y238405D01*
X9605Y238323D01*
X9645Y238240D01*
X9680Y238154D01*
X9712Y238066D01*
X9738Y237978D01*
X9759Y237887D01*
X9776Y237796D01*
X9788Y237704D01*
X9796Y237612D01*
X9798Y237519D01*
X9796Y237426D01*
X9788Y237334D01*
X9776Y237242D01*
X9759Y237151D01*
X9738Y237060D01*
X9712Y236971D01*
X9680Y236884D01*
X9645Y236798D01*
X9605Y236715D01*
X9561Y236633D01*
X9512Y236554D01*
X9460Y236478D01*
X9403Y236404D01*
X9343Y236333D01*
X9279Y236266D01*
X9212Y236202D01*
X9142Y236142D01*
X9068Y236086D01*
X8991Y236033D01*
X8912Y235985D01*
X8831Y235940D01*
X8747Y235900D01*
X8662Y235865D01*
X8574Y235834D01*
X8485Y235808D01*
X8395Y235786D01*
X8304Y235769D01*
X8212Y235757D01*
X8119Y235750D01*
X8027Y235747D01*
X5074D01*
Y239291D01*
X8027D01*
D02*
G37*
G36*
Y244015D02*
X8119Y244013D01*
X8212Y244005D01*
X8304Y243993D01*
X8395Y243976D01*
X8485Y243955D01*
X8574Y243928D01*
X8662Y243897D01*
X8747Y243862D01*
X8831Y243822D01*
X8912Y243778D01*
X8991Y243729D01*
X9068Y243677D01*
X9142Y243620D01*
X9212Y243560D01*
X9279Y243496D01*
X9343Y243429D01*
X9403Y243358D01*
X9460Y243285D01*
X9512Y243208D01*
X9561Y243129D01*
X9605Y243048D01*
X9645Y242964D01*
X9680Y242878D01*
X9712Y242791D01*
X9738Y242702D01*
X9759Y242612D01*
X9776Y242520D01*
X9788Y242428D01*
X9796Y242336D01*
X9798Y242243D01*
X9796Y242151D01*
X9788Y242058D01*
X9776Y241966D01*
X9759Y241875D01*
X9738Y241785D01*
X9712Y241696D01*
X9680Y241609D01*
X9645Y241523D01*
X9605Y241439D01*
X9561Y241357D01*
X9512Y241279D01*
X9460Y241202D01*
X9403Y241128D01*
X9343Y241058D01*
X9279Y240991D01*
X9212Y240927D01*
X9142Y240866D01*
X9068Y240810D01*
X8991Y240757D01*
X8912Y240709D01*
X8831Y240665D01*
X8747Y240625D01*
X8662Y240589D01*
X8574Y240558D01*
X8485Y240532D01*
X8395Y240510D01*
X8304Y240493D01*
X8212Y240481D01*
X8119Y240474D01*
X8027Y240472D01*
X5074D01*
Y244015D01*
X8027D01*
D02*
G37*
G36*
Y248739D02*
X8119Y248737D01*
X8212Y248730D01*
X8304Y248718D01*
X8395Y248701D01*
X8485Y248679D01*
X8574Y248653D01*
X8662Y248622D01*
X8747Y248586D01*
X8831Y248546D01*
X8912Y248502D01*
X8991Y248454D01*
X9068Y248401D01*
X9142Y248345D01*
X9212Y248284D01*
X9279Y248220D01*
X9343Y248153D01*
X9403Y248083D01*
X9460Y248009D01*
X9512Y247933D01*
X9561Y247854D01*
X9605Y247772D01*
X9645Y247688D01*
X9680Y247603D01*
X9712Y247515D01*
X9738Y247426D01*
X9759Y247336D01*
X9776Y247245D01*
X9788Y247153D01*
X9796Y247060D01*
X9798Y246968D01*
X9796Y246875D01*
X9788Y246783D01*
X9776Y246691D01*
X9759Y246599D01*
X9738Y246509D01*
X9712Y246420D01*
X9680Y246333D01*
X9645Y246247D01*
X9605Y246164D01*
X9561Y246082D01*
X9512Y246003D01*
X9460Y245926D01*
X9403Y245853D01*
X9343Y245782D01*
X9279Y245715D01*
X9212Y245651D01*
X9142Y245591D01*
X9068Y245534D01*
X8991Y245482D01*
X8912Y245433D01*
X8831Y245389D01*
X8747Y245349D01*
X8662Y245314D01*
X8574Y245283D01*
X8485Y245256D01*
X8395Y245235D01*
X8304Y245218D01*
X8212Y245206D01*
X8119Y245198D01*
X8027Y245196D01*
X5074D01*
Y248739D01*
X8027D01*
D02*
G37*
G36*
Y253464D02*
X8119Y253461D01*
X8212Y253454D01*
X8304Y253442D01*
X8395Y253425D01*
X8485Y253403D01*
X8574Y253377D01*
X8662Y253346D01*
X8747Y253311D01*
X8831Y253271D01*
X8912Y253226D01*
X8991Y253178D01*
X9068Y253126D01*
X9142Y253069D01*
X9212Y253009D01*
X9279Y252945D01*
X9343Y252878D01*
X9403Y252807D01*
X9460Y252733D01*
X9512Y252657D01*
X9561Y252578D01*
X9605Y252497D01*
X9645Y252413D01*
X9680Y252327D01*
X9712Y252240D01*
X9738Y252151D01*
X9759Y252061D01*
X9776Y251969D01*
X9788Y251877D01*
X9796Y251785D01*
X9798Y251692D01*
X9796Y251600D01*
X9788Y251507D01*
X9776Y251415D01*
X9759Y251324D01*
X9738Y251234D01*
X9712Y251145D01*
X9680Y251057D01*
X9645Y250972D01*
X9605Y250888D01*
X9561Y250806D01*
X9512Y250727D01*
X9460Y250651D01*
X9403Y250577D01*
X9343Y250507D01*
X9279Y250439D01*
X9212Y250376D01*
X9142Y250315D01*
X9068Y250259D01*
X8991Y250206D01*
X8912Y250158D01*
X8831Y250114D01*
X8747Y250074D01*
X8662Y250038D01*
X8574Y250007D01*
X8485Y249981D01*
X8395Y249959D01*
X8304Y249942D01*
X8212Y249930D01*
X8119Y249923D01*
X8027Y249921D01*
X5074D01*
Y253464D01*
X8027D01*
D02*
G37*
G36*
X20231Y256220D02*
Y253267D01*
X20229Y253174D01*
X20222Y253082D01*
X20210Y252990D01*
X20193Y252899D01*
X20171Y252808D01*
X20145Y252719D01*
X20114Y252632D01*
X20078Y252546D01*
X20038Y252463D01*
X19994Y252381D01*
X19945Y252302D01*
X19893Y252226D01*
X19836Y252152D01*
X19776Y252081D01*
X19712Y252014D01*
X19645Y251950D01*
X19575Y251890D01*
X19501Y251834D01*
X19424Y251781D01*
X19345Y251733D01*
X19264Y251688D01*
X19180Y251648D01*
X19094Y251613D01*
X19007Y251582D01*
X18918Y251556D01*
X18828Y251534D01*
X18737Y251517D01*
X18645Y251505D01*
X18552Y251498D01*
X18460Y251495D01*
X18367Y251498D01*
X18274Y251505D01*
X18182Y251517D01*
X18091Y251534D01*
X18001Y251556D01*
X17912Y251582D01*
X17825Y251613D01*
X17739Y251648D01*
X17655Y251688D01*
X17574Y251733D01*
X17495Y251781D01*
X17418Y251834D01*
X17345Y251890D01*
X17274Y251950D01*
X17207Y252014D01*
X17143Y252081D01*
X17083Y252152D01*
X17026Y252226D01*
X16974Y252302D01*
X16925Y252381D01*
X16881Y252463D01*
X16841Y252546D01*
X16806Y252632D01*
X16775Y252719D01*
X16748Y252808D01*
X16727Y252899D01*
X16710Y252990D01*
X16698Y253082D01*
X16690Y253174D01*
X16688Y253267D01*
Y256220D01*
X20231D01*
D02*
G37*
G36*
X24956D02*
Y253267D01*
X24953Y253174D01*
X24946Y253082D01*
X24934Y252990D01*
X24917Y252899D01*
X24895Y252808D01*
X24869Y252719D01*
X24838Y252632D01*
X24803Y252546D01*
X24763Y252463D01*
X24718Y252381D01*
X24670Y252302D01*
X24617Y252226D01*
X24561Y252152D01*
X24501Y252081D01*
X24437Y252014D01*
X24370Y251950D01*
X24299Y251890D01*
X24225Y251834D01*
X24149Y251781D01*
X24070Y251733D01*
X23988Y251688D01*
X23905Y251648D01*
X23819Y251613D01*
X23731Y251582D01*
X23643Y251556D01*
X23552Y251534D01*
X23461Y251517D01*
X23369Y251505D01*
X23277Y251498D01*
X23184Y251495D01*
X23091Y251498D01*
X22999Y251505D01*
X22907Y251517D01*
X22816Y251534D01*
X22726Y251556D01*
X22637Y251582D01*
X22549Y251613D01*
X22463Y251648D01*
X22380Y251688D01*
X22298Y251733D01*
X22219Y251781D01*
X22143Y251834D01*
X22069Y251890D01*
X21999Y251950D01*
X21931Y252014D01*
X21867Y252081D01*
X21807Y252152D01*
X21751Y252226D01*
X21698Y252302D01*
X21650Y252381D01*
X21606Y252463D01*
X21565Y252546D01*
X21530Y252632D01*
X21499Y252719D01*
X21473Y252808D01*
X21451Y252899D01*
X21434Y252990D01*
X21422Y253082D01*
X21415Y253174D01*
X21412Y253267D01*
Y256220D01*
X24956D01*
D02*
G37*
G36*
X29680D02*
Y253267D01*
X29678Y253174D01*
X29670Y253082D01*
X29658Y252990D01*
X29641Y252899D01*
X29620Y252808D01*
X29593Y252719D01*
X29562Y252632D01*
X29527Y252546D01*
X29487Y252463D01*
X29443Y252381D01*
X29394Y252302D01*
X29342Y252226D01*
X29285Y252152D01*
X29225Y252081D01*
X29161Y252014D01*
X29094Y251950D01*
X29023Y251890D01*
X28950Y251834D01*
X28873Y251781D01*
X28794Y251733D01*
X28713Y251688D01*
X28629Y251648D01*
X28543Y251613D01*
X28456Y251582D01*
X28367Y251556D01*
X28277Y251534D01*
X28186Y251517D01*
X28094Y251505D01*
X28001Y251498D01*
X27908Y251495D01*
X27816Y251498D01*
X27723Y251505D01*
X27631Y251517D01*
X27540Y251534D01*
X27450Y251556D01*
X27361Y251582D01*
X27273Y251613D01*
X27188Y251648D01*
X27104Y251688D01*
X27023Y251733D01*
X26943Y251781D01*
X26867Y251834D01*
X26794Y251890D01*
X26723Y251950D01*
X26656Y252014D01*
X26592Y252081D01*
X26532Y252152D01*
X26475Y252226D01*
X26423Y252302D01*
X26374Y252381D01*
X26330Y252463D01*
X26290Y252546D01*
X26254Y252632D01*
X26223Y252719D01*
X26197Y252808D01*
X26175Y252899D01*
X26159Y252990D01*
X26147Y253082D01*
X26139Y253174D01*
X26137Y253267D01*
Y256220D01*
X29680D01*
D02*
G37*
G36*
X34405D02*
Y253267D01*
X34402Y253174D01*
X34395Y253082D01*
X34383Y252990D01*
X34366Y252899D01*
X34344Y252808D01*
X34318Y252719D01*
X34287Y252632D01*
X34251Y252546D01*
X34211Y252463D01*
X34167Y252381D01*
X34119Y252302D01*
X34066Y252226D01*
X34010Y252152D01*
X33949Y252081D01*
X33886Y252014D01*
X33818Y251950D01*
X33748Y251890D01*
X33674Y251834D01*
X33598Y251781D01*
X33519Y251733D01*
X33437Y251688D01*
X33353Y251648D01*
X33268Y251613D01*
X33180Y251582D01*
X33091Y251556D01*
X33001Y251534D01*
X32910Y251517D01*
X32818Y251505D01*
X32726Y251498D01*
X32633Y251495D01*
X32540Y251498D01*
X32448Y251505D01*
X32356Y251517D01*
X32265Y251534D01*
X32174Y251556D01*
X32085Y251582D01*
X31998Y251613D01*
X31912Y251648D01*
X31828Y251688D01*
X31747Y251733D01*
X31668Y251781D01*
X31591Y251834D01*
X31518Y251890D01*
X31447Y251950D01*
X31380Y252014D01*
X31316Y252081D01*
X31256Y252152D01*
X31199Y252226D01*
X31147Y252302D01*
X31099Y252381D01*
X31054Y252463D01*
X31014Y252546D01*
X30979Y252632D01*
X30948Y252719D01*
X30922Y252808D01*
X30900Y252899D01*
X30883Y252990D01*
X30871Y253082D01*
X30864Y253174D01*
X30861Y253267D01*
Y256220D01*
X34405D01*
D02*
G37*
G36*
X60194Y213990D02*
X60202Y214082D01*
X60214Y214174D01*
X60231Y214265D01*
X60252Y214355D01*
X60279Y214444D01*
X60310Y214532D01*
X60345Y214617D01*
X60385Y214701D01*
X60429Y214783D01*
X60478Y214862D01*
X60530Y214938D01*
X60587Y215012D01*
X60647Y215082D01*
X60711Y215150D01*
X60778Y215213D01*
X60849Y215274D01*
X60922Y215330D01*
X60999Y215383D01*
X61078Y215431D01*
X61159Y215476D01*
X61243Y215515D01*
X61329Y215551D01*
X61416Y215582D01*
X61505Y215608D01*
X61595Y215630D01*
X61686Y215647D01*
X61778Y215659D01*
X61871Y215666D01*
X61963Y215669D01*
X64916D01*
Y212125D01*
X61963D01*
X61871Y212128D01*
X61778Y212135D01*
X61686Y212147D01*
X61595Y212164D01*
X61505Y212186D01*
X61416Y212212D01*
X61329Y212243D01*
X61243Y212278D01*
X61159Y212318D01*
X61078Y212363D01*
X60999Y212411D01*
X60922Y212464D01*
X60849Y212520D01*
X60778Y212580D01*
X60711Y212644D01*
X60647Y212711D01*
X60587Y212782D01*
X60530Y212856D01*
X60478Y212932D01*
X60429Y213011D01*
X60385Y213093D01*
X60345Y213176D01*
X60310Y213262D01*
X60279Y213349D01*
X60252Y213438D01*
X60231Y213529D01*
X60214Y213620D01*
X60202Y213712D01*
X60194Y213804D01*
X60192Y213897D01*
X60194Y213990D01*
D02*
G37*
G36*
Y218714D02*
X60202Y218807D01*
X60214Y218899D01*
X60231Y218990D01*
X60252Y219080D01*
X60279Y219169D01*
X60310Y219256D01*
X60345Y219342D01*
X60385Y219426D01*
X60429Y219507D01*
X60478Y219586D01*
X60530Y219663D01*
X60587Y219736D01*
X60647Y219807D01*
X60711Y219874D01*
X60778Y219938D01*
X60849Y219998D01*
X60922Y220055D01*
X60999Y220107D01*
X61078Y220156D01*
X61159Y220200D01*
X61243Y220240D01*
X61329Y220275D01*
X61416Y220306D01*
X61505Y220333D01*
X61595Y220354D01*
X61686Y220371D01*
X61778Y220383D01*
X61871Y220391D01*
X61963Y220393D01*
X64916D01*
Y216850D01*
X61963D01*
X61871Y216852D01*
X61778Y216859D01*
X61686Y216872D01*
X61595Y216888D01*
X61505Y216910D01*
X61416Y216936D01*
X61329Y216967D01*
X61243Y217003D01*
X61159Y217043D01*
X61078Y217087D01*
X60999Y217136D01*
X60922Y217188D01*
X60849Y217245D01*
X60778Y217305D01*
X60711Y217369D01*
X60647Y217436D01*
X60587Y217506D01*
X60530Y217580D01*
X60478Y217656D01*
X60429Y217736D01*
X60385Y217817D01*
X60345Y217901D01*
X60310Y217986D01*
X60279Y218074D01*
X60252Y218163D01*
X60231Y218253D01*
X60214Y218344D01*
X60202Y218436D01*
X60194Y218529D01*
X60192Y218621D01*
X60194Y218714D01*
D02*
G37*
G36*
Y223438D02*
X60202Y223531D01*
X60214Y223623D01*
X60231Y223714D01*
X60252Y223804D01*
X60279Y223893D01*
X60310Y223981D01*
X60345Y224066D01*
X60385Y224150D01*
X60429Y224232D01*
X60478Y224311D01*
X60530Y224387D01*
X60587Y224461D01*
X60647Y224531D01*
X60711Y224599D01*
X60778Y224662D01*
X60849Y224723D01*
X60922Y224779D01*
X60999Y224832D01*
X61078Y224880D01*
X61159Y224924D01*
X61243Y224964D01*
X61329Y225000D01*
X61416Y225031D01*
X61505Y225057D01*
X61595Y225079D01*
X61686Y225096D01*
X61778Y225108D01*
X61871Y225115D01*
X61963Y225117D01*
X64916D01*
Y221574D01*
X61963D01*
X61871Y221576D01*
X61778Y221584D01*
X61686Y221596D01*
X61595Y221613D01*
X61505Y221634D01*
X61416Y221661D01*
X61329Y221692D01*
X61243Y221727D01*
X61159Y221767D01*
X61078Y221811D01*
X60999Y221860D01*
X60922Y221912D01*
X60849Y221969D01*
X60778Y222029D01*
X60711Y222093D01*
X60647Y222160D01*
X60587Y222231D01*
X60530Y222304D01*
X60478Y222381D01*
X60429Y222460D01*
X60385Y222541D01*
X60345Y222625D01*
X60310Y222711D01*
X60279Y222798D01*
X60252Y222887D01*
X60231Y222977D01*
X60214Y223069D01*
X60202Y223161D01*
X60194Y223253D01*
X60192Y223346D01*
X60194Y223438D01*
D02*
G37*
G36*
Y228163D02*
X60202Y228255D01*
X60214Y228347D01*
X60231Y228438D01*
X60252Y228529D01*
X60279Y228618D01*
X60310Y228705D01*
X60345Y228791D01*
X60385Y228874D01*
X60429Y228956D01*
X60478Y229035D01*
X60530Y229112D01*
X60587Y229185D01*
X60647Y229256D01*
X60711Y229323D01*
X60778Y229387D01*
X60849Y229447D01*
X60922Y229503D01*
X60999Y229556D01*
X61078Y229604D01*
X61159Y229649D01*
X61243Y229689D01*
X61329Y229724D01*
X61416Y229755D01*
X61505Y229781D01*
X61595Y229803D01*
X61686Y229820D01*
X61778Y229832D01*
X61871Y229839D01*
X61963Y229842D01*
X64916D01*
Y226298D01*
X61963D01*
X61871Y226301D01*
X61778Y226308D01*
X61686Y226320D01*
X61595Y226337D01*
X61505Y226359D01*
X61416Y226385D01*
X61329Y226416D01*
X61243Y226452D01*
X61159Y226492D01*
X61078Y226536D01*
X60999Y226584D01*
X60922Y226637D01*
X60849Y226693D01*
X60778Y226753D01*
X60711Y226817D01*
X60647Y226885D01*
X60587Y226955D01*
X60530Y227029D01*
X60478Y227105D01*
X60429Y227184D01*
X60385Y227266D01*
X60345Y227349D01*
X60310Y227435D01*
X60279Y227523D01*
X60252Y227612D01*
X60231Y227702D01*
X60214Y227793D01*
X60202Y227885D01*
X60194Y227977D01*
X60192Y228070D01*
X60194Y228163D01*
D02*
G37*
G36*
Y232887D02*
X60202Y232980D01*
X60214Y233072D01*
X60231Y233163D01*
X60252Y233253D01*
X60279Y233342D01*
X60310Y233429D01*
X60345Y233515D01*
X60385Y233599D01*
X60429Y233680D01*
X60478Y233759D01*
X60530Y233836D01*
X60587Y233910D01*
X60647Y233980D01*
X60711Y234047D01*
X60778Y234111D01*
X60849Y234171D01*
X60922Y234228D01*
X60999Y234280D01*
X61078Y234329D01*
X61159Y234373D01*
X61243Y234413D01*
X61329Y234449D01*
X61416Y234479D01*
X61505Y234506D01*
X61595Y234527D01*
X61686Y234544D01*
X61778Y234557D01*
X61871Y234564D01*
X61963Y234566D01*
X64916D01*
Y231023D01*
X61963D01*
X61871Y231025D01*
X61778Y231033D01*
X61686Y231045D01*
X61595Y231062D01*
X61505Y231083D01*
X61416Y231110D01*
X61329Y231141D01*
X61243Y231176D01*
X61159Y231216D01*
X61078Y231260D01*
X60999Y231309D01*
X60922Y231361D01*
X60849Y231418D01*
X60778Y231478D01*
X60711Y231542D01*
X60647Y231609D01*
X60587Y231680D01*
X60530Y231753D01*
X60478Y231830D01*
X60429Y231909D01*
X60385Y231990D01*
X60345Y232074D01*
X60310Y232160D01*
X60279Y232247D01*
X60252Y232336D01*
X60231Y232426D01*
X60214Y232517D01*
X60202Y232609D01*
X60194Y232702D01*
X60192Y232794D01*
X60194Y232887D01*
D02*
G37*
G36*
Y237612D02*
X60202Y237704D01*
X60214Y237796D01*
X60231Y237887D01*
X60252Y237978D01*
X60279Y238066D01*
X60310Y238154D01*
X60345Y238240D01*
X60385Y238323D01*
X60429Y238405D01*
X60478Y238484D01*
X60530Y238560D01*
X60587Y238634D01*
X60647Y238704D01*
X60711Y238772D01*
X60778Y238836D01*
X60849Y238896D01*
X60922Y238952D01*
X60999Y239005D01*
X61078Y239053D01*
X61159Y239097D01*
X61243Y239137D01*
X61329Y239173D01*
X61416Y239204D01*
X61505Y239230D01*
X61595Y239252D01*
X61686Y239269D01*
X61778Y239281D01*
X61871Y239288D01*
X61963Y239291D01*
X64916D01*
Y235747D01*
X61963D01*
X61871Y235750D01*
X61778Y235757D01*
X61686Y235769D01*
X61595Y235786D01*
X61505Y235808D01*
X61416Y235834D01*
X61329Y235865D01*
X61243Y235900D01*
X61159Y235940D01*
X61078Y235985D01*
X60999Y236033D01*
X60922Y236086D01*
X60849Y236142D01*
X60778Y236202D01*
X60711Y236266D01*
X60647Y236333D01*
X60587Y236404D01*
X60530Y236478D01*
X60478Y236554D01*
X60429Y236633D01*
X60385Y236715D01*
X60345Y236798D01*
X60310Y236884D01*
X60279Y236971D01*
X60252Y237060D01*
X60231Y237151D01*
X60214Y237242D01*
X60202Y237334D01*
X60194Y237426D01*
X60192Y237519D01*
X60194Y237612D01*
D02*
G37*
G36*
Y242336D02*
X60202Y242428D01*
X60214Y242520D01*
X60231Y242612D01*
X60252Y242702D01*
X60279Y242791D01*
X60310Y242878D01*
X60345Y242964D01*
X60385Y243048D01*
X60429Y243129D01*
X60478Y243208D01*
X60530Y243285D01*
X60587Y243358D01*
X60647Y243429D01*
X60711Y243496D01*
X60778Y243560D01*
X60849Y243620D01*
X60922Y243677D01*
X60999Y243729D01*
X61078Y243778D01*
X61159Y243822D01*
X61243Y243862D01*
X61329Y243897D01*
X61416Y243928D01*
X61505Y243955D01*
X61595Y243976D01*
X61686Y243993D01*
X61778Y244005D01*
X61871Y244013D01*
X61963Y244015D01*
X64916D01*
Y240472D01*
X61963D01*
X61871Y240474D01*
X61778Y240481D01*
X61686Y240493D01*
X61595Y240510D01*
X61505Y240532D01*
X61416Y240558D01*
X61329Y240589D01*
X61243Y240625D01*
X61159Y240665D01*
X61078Y240709D01*
X60999Y240757D01*
X60922Y240810D01*
X60849Y240866D01*
X60778Y240927D01*
X60711Y240991D01*
X60647Y241058D01*
X60587Y241128D01*
X60530Y241202D01*
X60478Y241279D01*
X60429Y241357D01*
X60385Y241439D01*
X60345Y241523D01*
X60310Y241609D01*
X60279Y241696D01*
X60252Y241785D01*
X60231Y241875D01*
X60214Y241966D01*
X60202Y242058D01*
X60194Y242151D01*
X60192Y242243D01*
X60194Y242336D01*
D02*
G37*
G36*
X39129Y256220D02*
Y253267D01*
X39127Y253174D01*
X39119Y253082D01*
X39107Y252990D01*
X39090Y252899D01*
X39068Y252808D01*
X39042Y252719D01*
X39011Y252632D01*
X38976Y252546D01*
X38936Y252463D01*
X38892Y252381D01*
X38843Y252302D01*
X38791Y252226D01*
X38734Y252152D01*
X38674Y252081D01*
X38610Y252014D01*
X38543Y251950D01*
X38472Y251890D01*
X38399Y251834D01*
X38322Y251781D01*
X38243Y251733D01*
X38162Y251688D01*
X38078Y251648D01*
X37992Y251613D01*
X37905Y251582D01*
X37816Y251556D01*
X37726Y251534D01*
X37634Y251517D01*
X37542Y251505D01*
X37450Y251498D01*
X37357Y251495D01*
X37264Y251498D01*
X37172Y251505D01*
X37080Y251517D01*
X36989Y251534D01*
X36899Y251556D01*
X36810Y251582D01*
X36722Y251613D01*
X36637Y251648D01*
X36553Y251688D01*
X36471Y251733D01*
X36392Y251781D01*
X36316Y251834D01*
X36242Y251890D01*
X36172Y251950D01*
X36105Y252014D01*
X36041Y252081D01*
X35980Y252152D01*
X35924Y252226D01*
X35871Y252302D01*
X35823Y252381D01*
X35779Y252463D01*
X35739Y252546D01*
X35703Y252632D01*
X35672Y252719D01*
X35646Y252808D01*
X35624Y252899D01*
X35607Y252990D01*
X35595Y253082D01*
X35588Y253174D01*
X35586Y253267D01*
Y256220D01*
X39129D01*
D02*
G37*
G36*
X43853D02*
Y253267D01*
X43851Y253174D01*
X43844Y253082D01*
X43832Y252990D01*
X43815Y252899D01*
X43793Y252808D01*
X43767Y252719D01*
X43736Y252632D01*
X43700Y252546D01*
X43660Y252463D01*
X43616Y252381D01*
X43567Y252302D01*
X43515Y252226D01*
X43459Y252152D01*
X43398Y252081D01*
X43334Y252014D01*
X43267Y251950D01*
X43197Y251890D01*
X43123Y251834D01*
X43047Y251781D01*
X42968Y251733D01*
X42886Y251688D01*
X42802Y251648D01*
X42717Y251613D01*
X42629Y251582D01*
X42540Y251556D01*
X42450Y251534D01*
X42359Y251517D01*
X42267Y251505D01*
X42174Y251498D01*
X42082Y251495D01*
X41989Y251498D01*
X41897Y251505D01*
X41805Y251517D01*
X41713Y251534D01*
X41623Y251556D01*
X41534Y251582D01*
X41447Y251613D01*
X41361Y251648D01*
X41277Y251688D01*
X41196Y251733D01*
X41117Y251781D01*
X41040Y251834D01*
X40967Y251890D01*
X40896Y251950D01*
X40829Y252014D01*
X40765Y252081D01*
X40705Y252152D01*
X40648Y252226D01*
X40596Y252302D01*
X40547Y252381D01*
X40503Y252463D01*
X40463Y252546D01*
X40428Y252632D01*
X40397Y252719D01*
X40370Y252808D01*
X40349Y252899D01*
X40332Y252990D01*
X40320Y253082D01*
X40312Y253174D01*
X40310Y253267D01*
Y256220D01*
X43853D01*
D02*
G37*
G36*
X48578D02*
Y253267D01*
X48575Y253174D01*
X48568Y253082D01*
X48556Y252990D01*
X48539Y252899D01*
X48517Y252808D01*
X48491Y252719D01*
X48460Y252632D01*
X48425Y252546D01*
X48385Y252463D01*
X48340Y252381D01*
X48292Y252302D01*
X48239Y252226D01*
X48183Y252152D01*
X48123Y252081D01*
X48059Y252014D01*
X47991Y251950D01*
X47921Y251890D01*
X47847Y251834D01*
X47771Y251781D01*
X47692Y251733D01*
X47610Y251688D01*
X47527Y251648D01*
X47441Y251613D01*
X47354Y251582D01*
X47265Y251556D01*
X47174Y251534D01*
X47083Y251517D01*
X46991Y251505D01*
X46899Y251498D01*
X46806Y251495D01*
X46713Y251498D01*
X46621Y251505D01*
X46529Y251517D01*
X46438Y251534D01*
X46347Y251556D01*
X46259Y251582D01*
X46171Y251613D01*
X46086Y251648D01*
X46002Y251688D01*
X45920Y251733D01*
X45841Y251781D01*
X45765Y251834D01*
X45691Y251890D01*
X45621Y251950D01*
X45553Y252014D01*
X45489Y252081D01*
X45429Y252152D01*
X45373Y252226D01*
X45320Y252302D01*
X45272Y252381D01*
X45228Y252463D01*
X45188Y252546D01*
X45152Y252632D01*
X45121Y252719D01*
X45095Y252808D01*
X45073Y252899D01*
X45056Y252990D01*
X45044Y253082D01*
X45037Y253174D01*
X45034Y253267D01*
Y256220D01*
X48578D01*
D02*
G37*
G36*
X53302D02*
Y253267D01*
X53300Y253174D01*
X53292Y253082D01*
X53280Y252990D01*
X53263Y252899D01*
X53242Y252808D01*
X53215Y252719D01*
X53184Y252632D01*
X53149Y252546D01*
X53109Y252463D01*
X53065Y252381D01*
X53016Y252302D01*
X52964Y252226D01*
X52907Y252152D01*
X52847Y252081D01*
X52783Y252014D01*
X52716Y251950D01*
X52645Y251890D01*
X52572Y251834D01*
X52495Y251781D01*
X52416Y251733D01*
X52335Y251688D01*
X52251Y251648D01*
X52165Y251613D01*
X52078Y251582D01*
X51989Y251556D01*
X51899Y251534D01*
X51808Y251517D01*
X51716Y251505D01*
X51623Y251498D01*
X51530Y251495D01*
X51438Y251498D01*
X51345Y251505D01*
X51253Y251517D01*
X51162Y251534D01*
X51072Y251556D01*
X50983Y251582D01*
X50896Y251613D01*
X50810Y251648D01*
X50726Y251688D01*
X50645Y251733D01*
X50566Y251781D01*
X50489Y251834D01*
X50416Y251890D01*
X50345Y251950D01*
X50278Y252014D01*
X50214Y252081D01*
X50154Y252152D01*
X50097Y252226D01*
X50045Y252302D01*
X49996Y252381D01*
X49952Y252463D01*
X49912Y252546D01*
X49876Y252632D01*
X49845Y252719D01*
X49819Y252808D01*
X49797Y252899D01*
X49781Y252990D01*
X49768Y253082D01*
X49761Y253174D01*
X49759Y253267D01*
Y256220D01*
X53302D01*
D02*
G37*
G36*
X60194Y251785D02*
X60202Y251877D01*
X60214Y251969D01*
X60231Y252061D01*
X60252Y252151D01*
X60279Y252240D01*
X60310Y252327D01*
X60345Y252413D01*
X60385Y252497D01*
X60429Y252578D01*
X60478Y252657D01*
X60530Y252733D01*
X60587Y252807D01*
X60647Y252878D01*
X60711Y252945D01*
X60778Y253009D01*
X60849Y253069D01*
X60922Y253126D01*
X60999Y253178D01*
X61078Y253226D01*
X61159Y253271D01*
X61243Y253311D01*
X61329Y253346D01*
X61416Y253377D01*
X61505Y253403D01*
X61595Y253425D01*
X61686Y253442D01*
X61778Y253454D01*
X61871Y253461D01*
X61963Y253464D01*
X64916D01*
Y249921D01*
X61963D01*
X61871Y249923D01*
X61778Y249930D01*
X61686Y249942D01*
X61595Y249959D01*
X61505Y249981D01*
X61416Y250007D01*
X61329Y250038D01*
X61243Y250074D01*
X61159Y250114D01*
X61078Y250158D01*
X60999Y250206D01*
X60922Y250259D01*
X60849Y250315D01*
X60778Y250376D01*
X60711Y250439D01*
X60647Y250507D01*
X60587Y250577D01*
X60530Y250651D01*
X60478Y250727D01*
X60429Y250806D01*
X60385Y250888D01*
X60345Y250972D01*
X60310Y251057D01*
X60279Y251145D01*
X60252Y251234D01*
X60231Y251324D01*
X60214Y251415D01*
X60202Y251507D01*
X60194Y251600D01*
X60192Y251692D01*
X60194Y251785D01*
D02*
G37*
G36*
Y247060D02*
X60202Y247153D01*
X60214Y247245D01*
X60231Y247336D01*
X60252Y247426D01*
X60279Y247515D01*
X60310Y247603D01*
X60345Y247688D01*
X60385Y247772D01*
X60429Y247854D01*
X60478Y247933D01*
X60530Y248009D01*
X60587Y248083D01*
X60647Y248153D01*
X60711Y248220D01*
X60778Y248284D01*
X60849Y248345D01*
X60922Y248401D01*
X60999Y248454D01*
X61078Y248502D01*
X61159Y248546D01*
X61243Y248586D01*
X61329Y248622D01*
X61416Y248653D01*
X61505Y248679D01*
X61595Y248701D01*
X61686Y248718D01*
X61778Y248730D01*
X61871Y248737D01*
X61963Y248739D01*
X64916D01*
Y245196D01*
X61963D01*
X61871Y245198D01*
X61778Y245206D01*
X61686Y245218D01*
X61595Y245235D01*
X61505Y245256D01*
X61416Y245283D01*
X61329Y245314D01*
X61243Y245349D01*
X61159Y245389D01*
X61078Y245433D01*
X60999Y245482D01*
X60922Y245534D01*
X60849Y245591D01*
X60778Y245651D01*
X60711Y245715D01*
X60647Y245782D01*
X60587Y245853D01*
X60530Y245926D01*
X60478Y246003D01*
X60429Y246082D01*
X60385Y246164D01*
X60345Y246247D01*
X60310Y246333D01*
X60279Y246420D01*
X60252Y246509D01*
X60231Y246599D01*
X60214Y246691D01*
X60202Y246783D01*
X60194Y246875D01*
X60192Y246968D01*
X60194Y247060D01*
D02*
G37*
D12*
X3893Y255432D02*
Y257401D01*
X9798D01*
X66097Y165669D02*
Y167637D01*
X60192Y165669D02*
X66097D01*
D29*
X112500Y81200D02*
D03*
Y73800D02*
D03*
X104000Y81200D02*
D03*
Y73800D02*
D03*
X53328Y157224D02*
D03*
Y149824D02*
D03*
X91500Y109921D02*
D03*
Y117321D02*
D03*
X11000Y157263D02*
D03*
Y149863D02*
D03*
X19500Y157263D02*
D03*
Y149863D02*
D03*
X36500Y157224D02*
D03*
Y149824D02*
D03*
X45000Y157224D02*
D03*
Y149824D02*
D03*
X28000Y157263D02*
D03*
Y149863D02*
D03*
X106500Y110221D02*
D03*
Y117621D02*
D03*
D30*
X104000Y54394D02*
D03*
Y48606D02*
D03*
D31*
X7100Y55000D02*
D03*
X14500D02*
D03*
X16400Y85946D02*
D03*
X9000D02*
D03*
X10800Y94500D02*
D03*
X18200D02*
D03*
X58700Y60379D02*
D03*
X51300D02*
D03*
X58700Y51879D02*
D03*
X51300D02*
D03*
Y43379D02*
D03*
X58700D02*
D03*
X16400Y77500D02*
D03*
X9000D02*
D03*
X95200Y98621D02*
D03*
X87800D02*
D03*
X109700Y102121D02*
D03*
X102300D02*
D03*
D32*
X11252Y106500D02*
D03*
X22748D02*
D03*
D33*
X13500Y62500D02*
D03*
X8382Y69980D02*
D03*
X10941D02*
D03*
X13500D02*
D03*
X8382Y62500D02*
D03*
D34*
X88406Y204500D02*
D03*
X76595D02*
D03*
D35*
X18460Y248739D02*
D03*
X23184D02*
D03*
X27908D02*
D03*
X32633D02*
D03*
X37357D02*
D03*
X42082D02*
D03*
X46806D02*
D03*
X51530D02*
D03*
Y174330D02*
D03*
X46806D02*
D03*
X42082D02*
D03*
X37357D02*
D03*
X32633D02*
D03*
X27908D02*
D03*
X23184D02*
D03*
X18460D02*
D03*
X34995Y211535D02*
D03*
X37751Y239881D02*
D03*
X32239D02*
D03*
X41058Y232794D02*
D03*
X28932Y218621D02*
D03*
Y211535D02*
D03*
Y204448D02*
D03*
Y197362D02*
D03*
X41058Y218621D02*
D03*
Y211535D02*
D03*
Y204448D02*
D03*
Y197362D02*
D03*
X28932Y232794D02*
D03*
X34995Y204448D02*
D03*
Y197362D02*
D03*
X12554Y251692D02*
D03*
Y246968D02*
D03*
Y242243D02*
D03*
Y237519D02*
D03*
X57436Y251692D02*
D03*
Y246968D02*
D03*
Y242243D02*
D03*
Y237519D02*
D03*
X12554Y221338D02*
D03*
X57436D02*
D03*
Y211338D02*
D03*
Y201338D02*
D03*
Y191338D02*
D03*
Y181338D02*
D03*
Y171338D02*
D03*
X12554Y211338D02*
D03*
Y201338D02*
D03*
Y191338D02*
D03*
Y181338D02*
D03*
Y171338D02*
D03*
D36*
X79500Y255571D02*
D03*
Y219429D02*
D03*
X108078Y195500D02*
D03*
Y231642D02*
D03*
D37*
X69500Y102621D02*
D03*
D38*
X62020Y101637D02*
D03*
X76980Y99669D02*
D03*
Y97700D02*
D03*
X62020Y99669D02*
D03*
Y103606D02*
D03*
Y105574D02*
D03*
Y107543D02*
D03*
X76980D02*
D03*
Y101637D02*
D03*
X62020Y97700D02*
D03*
X76980Y105574D02*
D03*
Y103606D02*
D03*
D39*
X66547Y95141D02*
D03*
X64579D02*
D03*
X74421D02*
D03*
X72453D02*
D03*
X70484D02*
D03*
X68516D02*
D03*
X64579Y110102D02*
D03*
X66547D02*
D03*
X70484D02*
D03*
X74421D02*
D03*
X68516D02*
D03*
X72453D02*
D03*
D40*
X92390Y189000D02*
D03*
X78610D02*
D03*
X6500Y140454D02*
D03*
X103000Y127121D02*
D03*
D41*
X77000Y70791D02*
D03*
D42*
X72000Y80791D02*
D03*
X67000Y70791D02*
D03*
X62000Y80791D02*
D03*
X57000Y70791D02*
D03*
X52000Y80791D02*
D03*
X47000Y70791D02*
D03*
X42000Y80791D02*
D03*
D43*
X28496Y57799D02*
D03*
X90504D02*
D03*
D44*
X84402Y26500D02*
D03*
X44500D02*
D03*
X74500Y32484D02*
D03*
X34598D02*
D03*
D45*
X37000Y45791D02*
D03*
X82000D02*
D03*
X105500Y249500D02*
D03*
X13000Y13000D02*
D03*
X105000Y13500D02*
D03*
D46*
X86500Y140905D02*
D03*
D47*
Y146810D02*
D03*
Y152716D02*
D03*
Y158621D02*
D03*
Y164527D02*
D03*
Y170432D02*
D03*
D48*
X26500Y140454D02*
D03*
X16500D02*
D03*
X36500D02*
D03*
X46500D02*
D03*
X56500D02*
D03*
X66500D02*
D03*
X93000Y127121D02*
D03*
D49*
X69500Y182000D02*
D03*
X104000Y40500D02*
D03*
X84500Y127500D02*
D03*
X96000Y73500D02*
D03*
X52500Y90500D02*
D03*
X17500Y71500D02*
D03*
X3500Y62500D02*
D03*
X22902Y83598D02*
D03*
X24500Y94000D02*
D03*
X105500Y95500D02*
D03*
X83000Y92500D02*
D03*
X96500Y197500D02*
D03*
X56000Y111500D02*
D03*
X61000Y115000D02*
D03*
X71000Y118000D02*
D03*
X67036Y133000D02*
D03*
X59000Y122000D02*
D03*
X24000Y135000D02*
D03*
X6000Y95000D02*
D03*
X33518Y92982D02*
D03*
X44534Y104500D02*
D03*
X59418Y153918D02*
D03*
X87000Y215500D02*
D03*
X68000Y227500D02*
D03*
X78000Y245500D02*
D03*
X68500Y213500D02*
D03*
X87500Y180500D02*
D03*
X86828Y221500D02*
D03*
X91000Y243000D02*
D03*
X85000Y245500D02*
D03*
X4500Y158500D02*
D03*
X5500Y164000D02*
D03*
X34000Y163000D02*
D03*
X74000Y170500D02*
D03*
X54500Y95000D02*
D03*
X68500Y189500D02*
D03*
X68432Y205000D02*
D03*
Y198500D02*
D03*
Y219000D02*
D03*
X82000Y98621D02*
D03*
X83000Y180621D02*
D03*
X78500D02*
D03*
M02*
