G04*
G04 #@! TF.GenerationSoftware,Altium Limited,Altium Designer,20.0.10 (225)*
G04*
G04 Layer_Color=32896*
%FSLAX25Y25*%
%MOIN*%
G70*
G01*
G75*
%ADD12C,0.00787*%
%ADD13C,0.00600*%
%ADD14C,0.00500*%
%ADD17C,0.01000*%
%ADD83C,0.00781*%
D12*
X95273Y101428D02*
X94485D01*
X95273D01*
X94260Y159239D02*
X93472D01*
X94260D01*
X2413Y115929D02*
X12650D01*
X642Y117701D02*
X2413Y115929D01*
X642Y130299D02*
X2413Y132091D01*
X31350Y132071D02*
X41980D01*
X31350Y115929D02*
X41980D01*
Y132071D01*
X642Y117701D02*
Y130299D01*
X2413Y132071D02*
X12650D01*
X2413Y114071D02*
X12650D01*
X642Y99701D02*
Y112299D01*
X41980Y97929D02*
Y114071D01*
X31350Y97929D02*
X41980D01*
X31350Y114071D02*
X41980D01*
X642Y112299D02*
X2413Y114091D01*
X642Y99701D02*
X2413Y97929D01*
X12650D01*
D13*
X7300Y45200D02*
X8100D01*
X7300Y50800D02*
X8100D01*
X7300Y53544D02*
X8100D01*
X7300Y59144D02*
X8100D01*
X7300Y82700D02*
X8100D01*
X7300Y88300D02*
X8100D01*
X7300Y74200D02*
X8100D01*
X7300Y79800D02*
X8100D01*
X53100Y167200D02*
X53900D01*
X53100Y172800D02*
X53900D01*
X71700Y143400D02*
Y144200D01*
X77300Y143400D02*
Y144200D01*
X7300Y71354D02*
X8100D01*
X7300Y65754D02*
X8100D01*
X53100Y158872D02*
X53900D01*
X53100Y164472D02*
X53900D01*
X89800Y107421D02*
Y108221D01*
X84200Y107421D02*
Y108221D01*
X103200Y107421D02*
Y108221D01*
X108800Y107421D02*
Y108221D01*
X97100Y133821D02*
X97900D01*
X97100Y139421D02*
X97900D01*
X83100Y192493D02*
X83900D01*
X83100Y198093D02*
X83900D01*
X104128Y225100D02*
Y225900D01*
X98528Y225100D02*
Y225900D01*
X90200Y225100D02*
Y225900D01*
X95800Y225100D02*
Y225900D01*
X83100Y200821D02*
X83900D01*
X83100Y206421D02*
X83900D01*
X81100Y236321D02*
X81900D01*
X81100Y241921D02*
X81900D01*
X81100Y232421D02*
X81900D01*
X81100Y226821D02*
X81900D01*
D14*
X27492Y3291D02*
X91508D01*
Y88291D01*
X27492D02*
X91508D01*
X27492Y3291D02*
Y88291D01*
X92291Y148451D02*
Y151049D01*
X96681Y146601D02*
X99319D01*
X103709Y148451D02*
Y151049D01*
X95653Y167484D02*
Y172365D01*
X102347Y167484D02*
Y172365D01*
D17*
X35501Y9700D02*
X36101Y10299D01*
X37301D01*
X37901Y9700D01*
Y7300D01*
X37301Y6701D01*
X36101D01*
X35501Y7300D01*
X34302Y6701D02*
Y10299D01*
X31903Y6701D01*
Y10299D01*
X23299Y103001D02*
X19701D01*
Y104800D01*
X20300Y105400D01*
X22700D01*
X23299Y104800D01*
Y103001D01*
X20300Y106600D02*
X19701Y107200D01*
Y108399D01*
X20300Y108999D01*
X22700D01*
X23299Y108399D01*
Y107200D01*
X22700Y106600D01*
X22100D01*
X21500Y107200D01*
Y108999D01*
X22618Y121001D02*
X19019D01*
Y122800D01*
X19619Y123400D01*
X22018D01*
X22618Y122800D01*
Y121001D01*
X22018Y124600D02*
X22618Y125200D01*
Y126399D01*
X22018Y126999D01*
X21419D01*
X20819Y126399D01*
X20219Y126999D01*
X19619D01*
X19019Y126399D01*
Y125200D01*
X19619Y124600D01*
X20219D01*
X20819Y125200D01*
X21419Y124600D01*
X22018D01*
X20819Y125200D02*
Y126399D01*
X106000Y119321D02*
X106600Y119921D01*
X107799D01*
X108399Y119321D01*
Y116922D01*
X107799Y116322D01*
X106600D01*
X106000Y116922D01*
X104800Y116322D02*
X103601D01*
X104201D01*
Y119921D01*
X104800Y119321D01*
X95700Y118799D02*
Y118200D01*
X94500Y117000D01*
X93300Y118200D01*
Y118799D01*
X94500Y117000D02*
Y115201D01*
X106700Y155201D02*
Y158799D01*
X104900D01*
X104300Y158200D01*
Y157000D01*
X104900Y156400D01*
X106700D01*
X105500D02*
X104300Y155201D01*
X10899Y36101D02*
X11499Y36701D01*
X12699D01*
X13298Y36101D01*
Y33702D01*
X12699Y33102D01*
X11499D01*
X10899Y33702D01*
X7900Y33102D02*
Y36701D01*
X9700Y34901D01*
X7300D01*
X3702Y36701D02*
X6101D01*
Y34901D01*
X4901Y35501D01*
X4301D01*
X3702Y34901D01*
Y33702D01*
X4301Y33102D01*
X5501D01*
X6101Y33702D01*
X45999Y165701D02*
Y169299D01*
X44200D01*
X43600Y168700D01*
Y167500D01*
X44200Y166900D01*
X45999D01*
X44799D02*
X43600Y165701D01*
X42400Y168700D02*
X41800Y169299D01*
X40601D01*
X40001Y168700D01*
Y168100D01*
X40601Y167500D01*
X40001Y166900D01*
Y166300D01*
X40601Y165701D01*
X41800D01*
X42400Y166300D01*
Y166900D01*
X41800Y167500D01*
X42400Y168100D01*
Y168700D01*
X41800Y167500D02*
X40601D01*
X38801Y168700D02*
X38201Y169299D01*
X37002D01*
X36402Y168700D01*
Y166300D01*
X37002Y165701D01*
X38201D01*
X38801Y166300D01*
Y168700D01*
X73319Y151256D02*
X73277Y154855D01*
X71478Y154834D01*
X70885Y154227D01*
X70899Y153028D01*
X71506Y152435D01*
X73305Y152455D01*
X72105Y152442D02*
X70920Y151228D01*
X67280Y154786D02*
X69679Y154813D01*
X69700Y153014D01*
X68493Y153600D01*
X67893Y153593D01*
X67300Y152986D01*
X67314Y151787D01*
X67921Y151194D01*
X69121Y151208D01*
X69713Y151814D01*
X66080Y154772D02*
X63681Y154744D01*
X63688Y154144D01*
X66115Y151773D01*
X66122Y151173D01*
X13298Y39701D02*
Y43299D01*
X11499D01*
X10899Y42700D01*
Y41500D01*
X11499Y40900D01*
X13298D01*
X12099D02*
X10899Y39701D01*
X7300Y43299D02*
X9700D01*
Y41500D01*
X8500Y42100D01*
X7900D01*
X7300Y41500D01*
Y40300D01*
X7900Y39701D01*
X9100D01*
X9700Y40300D01*
X3702Y43299D02*
X4901Y42700D01*
X6101Y41500D01*
Y40300D01*
X5501Y39701D01*
X4301D01*
X3702Y40300D01*
Y40900D01*
X4301Y41500D01*
X6101D01*
X45999Y159701D02*
Y163299D01*
X44200D01*
X43600Y162700D01*
Y161500D01*
X44200Y160900D01*
X45999D01*
X44799D02*
X43600Y159701D01*
X42400Y162700D02*
X41800Y163299D01*
X40601D01*
X40001Y162700D01*
Y162100D01*
X40601Y161500D01*
X40001Y160900D01*
Y160300D01*
X40601Y159701D01*
X41800D01*
X42400Y160300D01*
Y160900D01*
X41800Y161500D01*
X42400Y162100D01*
Y162700D01*
X41800Y161500D02*
X40601D01*
X95499Y233201D02*
Y236799D01*
X93700D01*
X93100Y236200D01*
Y235000D01*
X93700Y234400D01*
X95499D01*
X94299D02*
X93100Y233201D01*
X90101D02*
Y236799D01*
X91900Y235000D01*
X89501D01*
X104499Y233201D02*
Y236799D01*
X102700D01*
X102100Y236200D01*
Y235000D01*
X102700Y234400D01*
X104499D01*
X103299D02*
X102100Y233201D01*
X100900Y236200D02*
X100300Y236799D01*
X99101D01*
X98501Y236200D01*
Y235600D01*
X99101Y235000D01*
X99701D01*
X99101D01*
X98501Y234400D01*
Y233800D01*
X99101Y233201D01*
X100300D01*
X100900Y233800D01*
X85499Y186701D02*
Y190299D01*
X83700D01*
X83100Y189700D01*
Y188500D01*
X83700Y187900D01*
X85499D01*
X84299D02*
X83100Y186701D01*
X79501D02*
X81900D01*
X79501Y189100D01*
Y189700D01*
X80101Y190299D01*
X81300D01*
X81900Y189700D01*
X95399Y201701D02*
Y205299D01*
X93600D01*
X93000Y204700D01*
Y203500D01*
X93600Y202900D01*
X95399D01*
X94200D02*
X93000Y201701D01*
X91800D02*
X90601D01*
X91201D01*
Y205299D01*
X91800Y204700D01*
X10899Y29502D02*
X11499Y30102D01*
X12699D01*
X13298Y29502D01*
Y27103D01*
X12699Y26503D01*
X11499D01*
X10899Y27103D01*
X7900Y26503D02*
Y30102D01*
X9700Y28302D01*
X7300D01*
X6101Y30102D02*
X3702D01*
Y29502D01*
X6101Y27103D01*
Y26503D01*
X16399Y93200D02*
X16999Y93799D01*
X18199D01*
X18798Y93200D01*
Y90800D01*
X18199Y90201D01*
X16999D01*
X16399Y90800D01*
X13400Y90201D02*
Y93799D01*
X15200Y92000D01*
X12800D01*
X9202Y90201D02*
X11601D01*
X9202Y92600D01*
Y93200D01*
X9801Y93799D01*
X11001D01*
X11601Y93200D01*
X71299Y241200D02*
X71899Y241799D01*
X73099D01*
X73699Y241200D01*
Y238800D01*
X73099Y238201D01*
X71899D01*
X71299Y238800D01*
X68300Y238201D02*
Y241799D01*
X70100Y240000D01*
X67701D01*
X66501Y238201D02*
X65301D01*
X65901D01*
Y241799D01*
X66501Y241200D01*
X71399Y234200D02*
X71999Y234799D01*
X73199D01*
X73799Y234200D01*
Y231800D01*
X73199Y231201D01*
X71999D01*
X71399Y231800D01*
X68400Y231201D02*
Y234799D01*
X70200Y233000D01*
X67800D01*
X66601Y234200D02*
X66001Y234799D01*
X64801D01*
X64201Y234200D01*
Y231800D01*
X64801Y231201D01*
X66001D01*
X66601Y231800D01*
Y234200D01*
X22399Y77700D02*
X22999Y78299D01*
X24199D01*
X24798Y77700D01*
Y75300D01*
X24199Y74701D01*
X22999D01*
X22399Y75300D01*
X21200Y77700D02*
X20600Y78299D01*
X19400D01*
X18800Y77700D01*
Y77100D01*
X19400Y76500D01*
X20000D01*
X19400D01*
X18800Y75900D01*
Y75300D01*
X19400Y74701D01*
X20600D01*
X21200Y75300D01*
X17601Y77700D02*
X17001Y78299D01*
X15801D01*
X15202Y77700D01*
Y77100D01*
X15801Y76500D01*
X16401D01*
X15801D01*
X15202Y75900D01*
Y75300D01*
X15801Y74701D01*
X17001D01*
X17601Y75300D01*
X87600Y136700D02*
X88200Y137299D01*
X89399D01*
X89999Y136700D01*
Y134300D01*
X89399Y133701D01*
X88200D01*
X87600Y134300D01*
X84001Y137299D02*
X86400D01*
Y135500D01*
X85201Y136100D01*
X84601D01*
X84001Y135500D01*
Y134300D01*
X84601Y133701D01*
X85800D01*
X86400Y134300D01*
X99600Y183200D02*
X100200Y183799D01*
X101399D01*
X101999Y183200D01*
Y180800D01*
X101399Y180201D01*
X100200D01*
X99600Y180800D01*
X98400Y183200D02*
X97800Y183799D01*
X96601D01*
X96001Y183200D01*
Y182600D01*
X96601Y182000D01*
X97201D01*
X96601D01*
X96001Y181400D01*
Y180800D01*
X96601Y180201D01*
X97800D01*
X98400Y180800D01*
X78800Y108100D02*
X78201Y108700D01*
Y109899D01*
X78800Y110499D01*
X81200D01*
X81799Y109899D01*
Y108700D01*
X81200Y108100D01*
X81799Y104501D02*
Y106900D01*
X79400Y104501D01*
X78800D01*
X78201Y105101D01*
Y106300D01*
X78800Y106900D01*
D83*
X85663Y15465D02*
Y21791D01*
X82500Y18628D02*
X88826D01*
X79500Y32128D02*
X85826D01*
X43962Y20556D02*
X50288D01*
X34663Y21465D02*
Y27791D01*
X31500Y24628D02*
X37826D01*
M02*
