G04*
G04 #@! TF.GenerationSoftware,Altium Limited,Altium Designer,20.0.10 (225)*
G04*
G04 Layer_Physical_Order=2*
G04 Layer_Color=32768*
%FSLAX25Y25*%
%MOIN*%
G70*
G01*
G75*
%ADD61C,0.04000*%
%ADD62R,0.61500X0.88500*%
%ADD63C,0.07504*%
%ADD64C,0.10299*%
%ADD65C,0.08016*%
%ADD66C,0.16598*%
%ADD67C,0.18200*%
%ADD68C,0.07000*%
G04:AMPARAMS|DCode=69|XSize=90mil|YSize=90mil|CornerRadius=0mil|HoleSize=0mil|Usage=FLASHONLY|Rotation=0.000|XOffset=0mil|YOffset=0mil|HoleType=Round|Shape=Relief|Width=10mil|Gap=10mil|Entries=4|*
%AMTHD69*
7,0,0,0.09000,0.07000,0.01000,45*
%
%ADD69THD69*%
%ADD70C,0.07543*%
%ADD71C,0.05500*%
G04:AMPARAMS|DCode=72|XSize=75mil|YSize=75mil|CornerRadius=0mil|HoleSize=0mil|Usage=FLASHONLY|Rotation=0.000|XOffset=0mil|YOffset=0mil|HoleType=Round|Shape=Relief|Width=10mil|Gap=10mil|Entries=4|*
%AMTHD72*
7,0,0,0.07500,0.05500,0.01000,45*
%
%ADD72THD72*%
D61*
X0Y262121D02*
X118000Y262121D01*
X118000Y-0D02*
X118000Y262121D01*
X0Y0D02*
X118000Y-0D01*
X0Y262121D02*
X0Y0D01*
D62*
X32250Y216250D02*
D03*
D63*
X77000Y70791D02*
D03*
X72000Y80791D02*
D03*
X67000Y70791D02*
D03*
X62000Y80791D02*
D03*
X57000Y70791D02*
D03*
X52000Y80791D02*
D03*
X47000Y70791D02*
D03*
X42000Y80791D02*
D03*
D64*
X28496Y57799D02*
D03*
X90504D02*
D03*
D65*
X84402Y26500D02*
D03*
X44500D02*
D03*
X74500Y32484D02*
D03*
X34598D02*
D03*
D66*
X37000Y45791D02*
D03*
X82000D02*
D03*
D67*
X105500Y249500D02*
D03*
X13000Y13000D02*
D03*
X105000Y13500D02*
D03*
D68*
X86500Y140905D02*
D03*
Y146810D02*
D03*
Y158621D02*
D03*
Y164527D02*
D03*
Y170432D02*
D03*
D69*
Y152716D02*
D03*
D70*
X26500Y140454D02*
D03*
X6500D02*
D03*
X16500D02*
D03*
X36500D02*
D03*
X46500D02*
D03*
X56500D02*
D03*
X66500D02*
D03*
X103000Y127121D02*
D03*
X93000D02*
D03*
D71*
X69500Y182000D02*
D03*
X104000Y40500D02*
D03*
X96000Y73500D02*
D03*
X52500Y90500D02*
D03*
X17500Y71500D02*
D03*
X22902Y83598D02*
D03*
X24500Y94000D02*
D03*
X83000Y92500D02*
D03*
X96500Y197500D02*
D03*
X56000Y111500D02*
D03*
X61000Y115000D02*
D03*
X71000Y118000D02*
D03*
X67036Y133000D02*
D03*
X59000Y122000D02*
D03*
X24000Y135000D02*
D03*
X6000Y95000D02*
D03*
X33518Y92982D02*
D03*
X59418Y153918D02*
D03*
X87000Y215500D02*
D03*
X68000Y227500D02*
D03*
X68500Y213500D02*
D03*
X87500Y180500D02*
D03*
X86828Y221500D02*
D03*
X85000Y245500D02*
D03*
X4500Y158500D02*
D03*
X5500Y164000D02*
D03*
X34000Y163000D02*
D03*
X74000Y170500D02*
D03*
X54500Y95000D02*
D03*
X68500Y189500D02*
D03*
X68432Y205000D02*
D03*
Y198500D02*
D03*
Y219000D02*
D03*
X82000Y98621D02*
D03*
X83000Y180621D02*
D03*
X78500D02*
D03*
D72*
X84500Y127500D02*
D03*
X3500Y62500D02*
D03*
X105500Y95500D02*
D03*
X44534Y104500D02*
D03*
X78000Y245500D02*
D03*
X91000Y243000D02*
D03*
M02*
