G04*
G04 #@! TF.GenerationSoftware,Altium Limited,Altium Designer,20.0.10 (225)*
G04*
G04 Layer_Color=16711935*
%FSLAX25Y25*%
%MOIN*%
G70*
G01*
G75*
%ADD10C,0.00000*%
%ADD17C,0.01000*%
%ADD84C,0.00394*%
D10*
X109700Y81700D02*
X115300D01*
Y75800D02*
Y79200D01*
X109700Y73300D02*
X115300D01*
X109700Y75800D02*
Y79200D01*
X115300Y73300D02*
Y75800D01*
X109700Y73300D02*
Y75800D01*
X115300D01*
X109700Y79200D02*
Y81700D01*
X115300Y79200D02*
Y81700D01*
X109700Y79200D02*
X115300D01*
X101200Y81700D02*
X106800D01*
Y75800D02*
Y79200D01*
X101200Y73300D02*
X106800D01*
X101200Y75800D02*
Y79200D01*
X106800Y73300D02*
Y75800D01*
X101200Y73300D02*
Y75800D01*
X106800D01*
X101200Y79200D02*
Y81700D01*
X106800Y79200D02*
Y81700D01*
X101200Y79200D02*
X106800D01*
X15000Y52200D02*
Y57800D01*
X9100Y52200D02*
X12500D01*
X6600D02*
Y57800D01*
X9100D02*
X12500D01*
X6600Y52200D02*
X9100D01*
X6600Y57800D02*
X9100D01*
Y52200D02*
Y57800D01*
X12500D02*
X15000D01*
X12500Y52200D02*
X15000D01*
X12500D02*
Y57800D01*
X3500Y45200D02*
Y50800D01*
X6000Y45200D02*
X9400D01*
X11900D02*
Y50800D01*
X6000D02*
X9400D01*
Y45200D02*
X11900D01*
X9400Y50800D02*
X11900D01*
X9400Y45200D02*
Y50800D01*
X3500D02*
X6000D01*
X3500Y45200D02*
X6000D01*
Y50800D01*
X3500Y53544D02*
Y59144D01*
X6000Y53544D02*
X9400D01*
X11900D02*
Y59144D01*
X6000D02*
X9400D01*
Y53544D02*
X11900D01*
X9400Y59144D02*
X11900D01*
X9400Y53544D02*
Y59144D01*
X3500D02*
X6000D01*
X3500Y53544D02*
X6000D01*
Y59144D01*
X3500Y82700D02*
Y88300D01*
X6000Y82700D02*
X9400D01*
X11900D02*
Y88300D01*
X6000D02*
X9400D01*
Y82700D02*
X11900D01*
X9400Y88300D02*
X11900D01*
X9400Y82700D02*
Y88300D01*
X3500D02*
X6000D01*
X3500Y82700D02*
X6000D01*
Y88300D01*
X16900Y83146D02*
Y88746D01*
X11000Y83146D02*
X14400D01*
X8500D02*
Y88746D01*
X11000D02*
X14400D01*
X8500Y83146D02*
X11000D01*
X8500Y88746D02*
X11000D01*
Y83146D02*
Y88746D01*
X14400D02*
X16900D01*
X14400Y83146D02*
X16900D01*
X14400D02*
Y88746D01*
X3500Y74200D02*
Y79800D01*
X6000Y74200D02*
X9400D01*
X11900D02*
Y79800D01*
X6000D02*
X9400D01*
Y74200D02*
X11900D01*
X9400Y79800D02*
X11900D01*
X9400Y74200D02*
Y79800D01*
X3500D02*
X6000D01*
X3500Y74200D02*
X6000D01*
Y79800D01*
X18700Y91700D02*
Y97300D01*
X12800Y91700D02*
X16200D01*
X10300D02*
Y97300D01*
X12800D02*
X16200D01*
X10300Y91700D02*
X12800D01*
X10300Y97300D02*
X12800D01*
Y91700D02*
Y97300D01*
X16200D02*
X18700D01*
X16200Y91700D02*
X18700D01*
X16200D02*
Y97300D01*
X50528Y151824D02*
X56128D01*
X50528Y149324D02*
Y151824D01*
X56128Y149324D02*
Y151824D01*
X50528Y155224D02*
X56128D01*
Y157724D01*
X50528Y155224D02*
Y157724D01*
X56128Y151824D02*
Y155224D01*
X50528Y157724D02*
X56128D01*
X50528Y151824D02*
Y155224D01*
Y149324D02*
X56128D01*
X49300Y167200D02*
Y172800D01*
X51800Y167200D02*
X55200D01*
X57700D02*
Y172800D01*
X51800D02*
X55200D01*
Y167200D02*
X57700D01*
X55200Y172800D02*
X57700D01*
X55200Y167200D02*
Y172800D01*
X49300D02*
X51800D01*
X49300Y167200D02*
X51800D01*
Y172800D01*
X71700Y142100D02*
X77300D01*
Y139600D02*
Y142100D01*
X71700Y139600D02*
Y142100D01*
Y145500D02*
X77300D01*
X71700D02*
Y148000D01*
X77300Y145500D02*
Y148000D01*
X71700Y142100D02*
Y145500D01*
Y148000D02*
X77300D01*
Y142100D02*
Y145500D01*
X71700Y139600D02*
X77300D01*
X50800Y57579D02*
Y63179D01*
X53300D02*
X56700D01*
X59200Y57579D02*
Y63179D01*
X53300Y57579D02*
X56700D01*
Y63179D02*
X59200D01*
X56700Y57579D02*
X59200D01*
X56700D02*
Y63179D01*
X50800Y57579D02*
X53300D01*
X50800Y63179D02*
X53300D01*
Y57579D02*
Y63179D01*
X50800Y49079D02*
Y54679D01*
X53300D02*
X56700D01*
X59200Y49079D02*
Y54679D01*
X53300Y49079D02*
X56700D01*
Y54679D02*
X59200D01*
X56700Y49079D02*
X59200D01*
X56700D02*
Y54679D01*
X50800Y49079D02*
X53300D01*
X50800Y54679D02*
X53300D01*
Y49079D02*
Y54679D01*
X59200Y40579D02*
Y46179D01*
X53300Y40579D02*
X56700D01*
X50800D02*
Y46179D01*
X53300D02*
X56700D01*
X50800Y40579D02*
X53300D01*
X50800Y46179D02*
X53300D01*
Y40579D02*
Y46179D01*
X56700D02*
X59200D01*
X56700Y40579D02*
X59200D01*
X56700D02*
Y46179D01*
X11000Y74700D02*
Y80300D01*
X8500D02*
X11000D01*
X8500Y74700D02*
X11000D01*
X14400D02*
Y80300D01*
Y74700D02*
X16900D01*
X14400Y80300D02*
X16900D01*
X11000Y74700D02*
X14400D01*
X16900D02*
Y80300D01*
X11000D02*
X14400D01*
X8500Y74700D02*
Y80300D01*
X11900Y65754D02*
Y71354D01*
X6000D02*
X9400D01*
X3500Y65754D02*
Y71354D01*
X6000Y65754D02*
X9400D01*
X3500Y71354D02*
X6000D01*
X3500Y65754D02*
X6000D01*
Y71354D01*
X9400Y65754D02*
X11900D01*
X9400Y71354D02*
X11900D01*
X9400Y65754D02*
Y71354D01*
X49300Y158872D02*
Y164472D01*
X51800Y158872D02*
X55200D01*
X57700D02*
Y164472D01*
X51800D02*
X55200D01*
Y158872D02*
X57700D01*
X55200Y164472D02*
X57700D01*
X55200Y158872D02*
Y164472D01*
X49300D02*
X51800D01*
X49300Y158872D02*
X51800D01*
Y164472D01*
X84200Y103621D02*
X89800D01*
Y106121D02*
Y109521D01*
X84200Y112021D02*
X89800D01*
X84200Y106121D02*
Y109521D01*
X89800D02*
Y112021D01*
X84200Y109521D02*
Y112021D01*
Y109521D02*
X89800D01*
X84200Y103621D02*
Y106121D01*
X89800Y103621D02*
Y106121D01*
X84200D02*
X89800D01*
X88700Y111921D02*
X94300D01*
X88700Y109421D02*
Y111921D01*
X94300Y109421D02*
Y111921D01*
X88700Y115321D02*
X94300D01*
Y117821D01*
X88700Y115321D02*
Y117821D01*
X94300Y111921D02*
Y115321D01*
X88700Y117821D02*
X94300D01*
X88700Y111921D02*
Y115321D01*
Y109421D02*
X94300D01*
X103200Y112021D02*
X108800D01*
X103200Y106121D02*
Y109521D01*
Y103621D02*
X108800D01*
Y106121D02*
Y109521D01*
X103200Y103621D02*
Y106121D01*
X108800Y103621D02*
Y106121D01*
X103200D02*
X108800D01*
Y109521D02*
Y112021D01*
X103200Y109521D02*
Y112021D01*
Y109521D02*
X108800D01*
X99200Y133821D02*
Y139421D01*
X101700D01*
X99200Y133821D02*
X101700D01*
X95800D02*
Y139421D01*
X93300Y133821D02*
X95800D01*
X93300Y139421D02*
X95800D01*
Y133821D02*
X99200D01*
X93300D02*
Y139421D01*
X95800D02*
X99200D01*
X101700Y133821D02*
Y139421D01*
X93200Y95821D02*
Y101421D01*
Y95821D02*
X95700D01*
X93200Y101421D02*
X95700D01*
X89800Y95821D02*
Y101421D01*
X87300D02*
X89800D01*
X87300Y95821D02*
X89800D01*
Y101421D02*
X93200D01*
X87300Y95821D02*
Y101421D01*
X89800Y95821D02*
X93200D01*
X95700D02*
Y101421D01*
X79300Y192493D02*
Y198093D01*
X81800Y192493D02*
X85200D01*
X87700D02*
Y198093D01*
X81800D02*
X85200D01*
Y192493D02*
X87700D01*
X85200Y198093D02*
X87700D01*
X85200Y192493D02*
Y198093D01*
X79300D02*
X81800D01*
X79300Y192493D02*
X81800D01*
Y198093D01*
X8200Y155263D02*
X13800D01*
Y157763D01*
X8200Y155263D02*
Y157763D01*
Y151863D02*
X13800D01*
X8200Y149363D02*
Y151863D01*
X13800Y149363D02*
Y151863D01*
X8200D02*
Y155263D01*
Y149363D02*
X13800D01*
Y151863D02*
Y155263D01*
X8200Y157763D02*
X13800D01*
X16700D02*
X22300D01*
Y151863D02*
Y155263D01*
X16700Y149363D02*
X22300D01*
X16700Y151863D02*
Y155263D01*
X22300Y149363D02*
Y151863D01*
X16700Y149363D02*
Y151863D01*
X22300D01*
X16700Y155263D02*
Y157763D01*
X22300Y155263D02*
Y157763D01*
X16700Y155263D02*
X22300D01*
X33700Y151824D02*
X39300D01*
X33700Y149324D02*
Y151824D01*
X39300Y149324D02*
Y151824D01*
X33700Y155224D02*
X39300D01*
Y157724D01*
X33700Y155224D02*
Y157724D01*
X39300Y151824D02*
Y155224D01*
X33700Y157724D02*
X39300D01*
X33700Y151824D02*
Y155224D01*
Y149324D02*
X39300D01*
X42200Y151824D02*
X47800D01*
X42200Y149324D02*
Y151824D01*
X47800Y149324D02*
Y151824D01*
X42200Y155224D02*
X47800D01*
Y157724D01*
X42200Y155224D02*
Y157724D01*
X47800Y151824D02*
Y155224D01*
X42200Y157724D02*
X47800D01*
X42200Y151824D02*
Y155224D01*
Y149324D02*
X47800D01*
X25200Y157763D02*
X30800D01*
Y151863D02*
Y155263D01*
X25200Y149363D02*
X30800D01*
X25200Y151863D02*
Y155263D01*
X30800Y149363D02*
Y151863D01*
X25200Y149363D02*
Y151863D01*
X30800D01*
X25200Y155263D02*
Y157763D01*
X30800Y155263D02*
Y157763D01*
X25200Y155263D02*
X30800D01*
X98528Y221300D02*
X104128D01*
Y223800D02*
Y227200D01*
X98528Y229700D02*
X104128D01*
X98528Y223800D02*
Y227200D01*
X104128D02*
Y229700D01*
X98528Y227200D02*
Y229700D01*
Y227200D02*
X104128D01*
X98528Y221300D02*
Y223800D01*
X104128Y221300D02*
Y223800D01*
X98528D02*
X104128D01*
X90200D02*
X95800D01*
Y221300D02*
Y223800D01*
X90200Y221300D02*
Y223800D01*
Y227200D02*
X95800D01*
X90200D02*
Y229700D01*
X95800Y227200D02*
Y229700D01*
X90200Y223800D02*
Y227200D01*
Y229700D02*
X95800D01*
Y223800D02*
Y227200D01*
X90200Y221300D02*
X95800D01*
X79300Y200821D02*
Y206421D01*
X81800Y200821D02*
X85200D01*
X87700D02*
Y206421D01*
X81800D02*
X85200D01*
Y200821D02*
X87700D01*
X85200Y206421D02*
X87700D01*
X85200Y200821D02*
Y206421D01*
X79300D02*
X81800D01*
X79300Y200821D02*
X81800D01*
Y206421D01*
X77300Y236321D02*
Y241921D01*
X79800Y236321D02*
X83200D01*
X85700D02*
Y241921D01*
X79800D02*
X83200D01*
Y236321D02*
X85700D01*
X83200Y241921D02*
X85700D01*
X83200Y236321D02*
Y241921D01*
X77300D02*
X79800D01*
X77300Y236321D02*
X79800D01*
Y241921D01*
X110200Y99321D02*
Y104921D01*
X104300Y99321D02*
X107700D01*
X101800D02*
Y104921D01*
X104300D02*
X107700D01*
X101800Y99321D02*
X104300D01*
X101800Y104921D02*
X104300D01*
Y99321D02*
Y104921D01*
X107700D02*
X110200D01*
X107700Y99321D02*
X110200D01*
X107700D02*
Y104921D01*
X103700Y112221D02*
X109300D01*
X103700Y109721D02*
Y112221D01*
X109300Y109721D02*
Y112221D01*
X103700Y115621D02*
X109300D01*
Y118121D01*
X103700Y115621D02*
Y118121D01*
X109300Y112221D02*
Y115621D01*
X103700Y118121D02*
X109300D01*
X103700Y112221D02*
Y115621D01*
Y109721D02*
X109300D01*
X79800Y226821D02*
Y232421D01*
X77300Y226821D02*
X79800D01*
X77300Y232421D02*
X79800D01*
X83200Y226821D02*
Y232421D01*
X85700D01*
X83200Y226821D02*
X85700D01*
X79800Y232421D02*
X83200D01*
X85700Y226821D02*
Y232421D01*
X79800Y226821D02*
X83200D01*
X77300D02*
Y232421D01*
D17*
X0Y0D02*
X118000D01*
X118000Y262000D02*
X118000Y0D01*
X0D02*
Y262121D01*
X118000D01*
D84*
X21213Y124000D02*
X22787D01*
X22000Y123213D02*
Y124787D01*
X82500Y203713D02*
Y205287D01*
X81713Y204500D02*
X83287D01*
X22000Y105213D02*
Y106787D01*
X21213Y106000D02*
X22787D01*
X84713Y189000D02*
X86287D01*
X85500Y188213D02*
Y189787D01*
M02*
