M48
;Layer_Color=9474304
;FILE_FORMAT=2:5
INCH,TZ
;TYPE=PLATED
T1F00S00C0.01500
T2F00S00C0.03000
T3F00S00C0.03504
T4F00S00C0.03543
T5F00S00C0.04016
T6F00S00C0.06299
;TYPE=NON_PLATED
T7F00S00C0.12598
T8F00S00C0.14200
%
T01
X104000Y40500
X96000Y73500
X105500Y95500
X83000Y92500
X82000Y98621
X71000Y118000
X61000Y115000
X56000Y111500
X59000Y122000
X67036Y133000
X84500Y127500
X59418Y153918
X74000Y170500
X34000Y163000
X5500Y164000
X4500Y158500
X24000Y135000
X24500Y94000
X33518Y92982
X22902Y83598
X17500Y71500
X3500Y62500
X6000Y95000
X44534Y104500
X54500Y95000
X52500Y90500
X69500Y182000
X68500Y189500
X68432Y198500
Y205000
X68500Y213500
X68432Y219000
X68000Y227500
X86828Y221500
X87000Y215500
X91000Y243000
X85000Y245500
X78000
X78500Y180621
X83000
X87500Y180500
X96500Y197500
T02
X86500Y140905
Y146810
Y152716
Y158621
Y164527
Y170432
T03
X47000Y70791
X57000
X67000
X77000
X72000Y80791
X62000
X52000
X42000
T04
X103000Y127121
X93000
X66500Y140454
X56500
X46500
X36500
X26500
X16500
X6500
T05
X34598Y32484
X44500Y26500
X74500Y32484
X84402Y26500
T06
X28496Y57799
X90504
T07
X37000Y45791
X82000
T08
X13000Y13000
X105000Y13500
X105500Y249500
M30
