G04*
G04 #@! TF.GenerationSoftware,Altium Limited,Altium Designer,20.0.10 (225)*
G04*
G04 Layer_Physical_Order=4*
G04 Layer_Color=16711680*
%FSLAX25Y25*%
%MOIN*%
G70*
G01*
G75*
%ADD17C,0.01000*%
%ADD18R,0.05500X0.04000*%
%ADD20R,0.04000X0.05500*%
%ADD28R,0.05906X0.05906*%
%ADD46R,0.05000X0.05000*%
%ADD47C,0.05000*%
%ADD54R,0.05504X0.05504*%
%ADD55C,0.05504*%
%ADD56C,0.09449*%
%ADD57C,0.06024*%
%ADD58C,0.12598*%
%ADD59C,0.05906*%
%ADD60C,0.03000*%
%ADD75R,0.09449X0.12992*%
%ADD76R,0.02953X0.03347*%
G04:AMPARAMS|DCode=77|XSize=47.64mil|YSize=23.23mil|CornerRadius=5.81mil|HoleSize=0mil|Usage=FLASHONLY|Rotation=270.000|XOffset=0mil|YOffset=0mil|HoleType=Round|Shape=RoundedRectangle|*
%AMROUNDEDRECTD77*
21,1,0.04764,0.01161,0,0,270.0*
21,1,0.03602,0.02323,0,0,270.0*
1,1,0.01161,-0.00581,-0.01801*
1,1,0.01161,-0.00581,0.01801*
1,1,0.01161,0.00581,0.01801*
1,1,0.01161,0.00581,-0.01801*
%
%ADD77ROUNDEDRECTD77*%
%ADD78R,0.06772X0.04134*%
D17*
X52500Y90500D02*
X79000D01*
X96000Y73500D01*
X85811Y127883D02*
X93800Y135871D01*
X84500Y127500D02*
X84883Y127883D01*
X84750Y113021D02*
X86250Y111521D01*
X84500Y127500D02*
X84750Y127250D01*
X84883Y127883D02*
X85811D01*
X86250Y111521D02*
X87000D01*
X84750Y113021D02*
Y127250D01*
X12900Y58594D02*
X13094D01*
X49500Y95000D01*
X54500D01*
X3500Y62500D02*
Y68054D01*
Y56844D02*
Y62500D01*
X11400Y57094D02*
X12900Y58594D01*
X11400Y48000D02*
Y57094D01*
X3500Y68054D02*
X4000Y68554D01*
X3500Y56844D02*
X4000Y56344D01*
Y68554D02*
Y77000D01*
Y48000D02*
Y56344D01*
X11400Y68554D02*
X19554D01*
X59000Y108000D01*
Y113000D01*
X61000Y115000D01*
X31098Y83598D02*
X54000Y106500D01*
X22902Y83598D02*
X31098D01*
X25041Y94000D02*
X26050Y92991D01*
X24500Y94000D02*
X25041D01*
X26050Y92991D02*
X33509D01*
X33518Y92982D01*
X105500Y95500D02*
Y103621D01*
X106000Y104121D01*
X83000Y92500D02*
X108500D01*
X111000Y95000D01*
X6500Y140454D02*
X11954Y135000D01*
X24000D01*
X107621Y181000D02*
X110000Y178621D01*
X92379Y181000D02*
X107621D01*
X88379Y177000D02*
X92379Y181000D01*
X26000Y130000D02*
X32000Y136000D01*
X26000Y121000D02*
Y130000D01*
X32000Y136000D02*
X69664D01*
X16996Y111996D02*
X26000Y121000D01*
X96500Y197500D02*
X99078Y200078D01*
X100578Y221800D02*
X101328D01*
X99078Y200078D02*
Y220300D01*
X100578Y221800D01*
X54586Y110672D02*
X54630D01*
X54000Y110086D02*
X54586Y110672D01*
X55459Y111500D02*
X56000D01*
X54000Y106500D02*
Y110086D01*
X54630Y110672D02*
X55459Y111500D01*
X51500Y107000D02*
Y111000D01*
X58500Y118000D02*
X71000D01*
X51500Y111000D02*
X58500Y118000D01*
X7000Y122319D02*
X8319Y121000D01*
X111000Y95000D02*
Y107271D01*
X106750Y111521D02*
X111000Y107271D01*
X49500Y147500D02*
X74500D01*
X34000Y163000D02*
X49500Y147500D01*
X72250Y138600D02*
X74555Y140905D01*
X86500D01*
X69664Y136000D02*
X72250Y138586D01*
Y138600D01*
X67000Y132965D02*
X67036Y133000D01*
X67000Y130000D02*
Y132965D01*
X59000Y122000D02*
X67000Y130000D01*
X11800Y77200D02*
X12000Y77000D01*
X8319Y106000D02*
Y107772D01*
X12543Y111996D01*
X16996D01*
X4000Y77000D02*
Y85500D01*
X85500Y229321D02*
X95000D01*
X94260Y154782D02*
Y172251D01*
Y154691D02*
Y154782D01*
X6000Y100681D02*
X8319Y103000D01*
X6000Y95000D02*
Y100681D01*
X31500Y87000D02*
X51500Y107000D01*
X12900Y87000D02*
X31500D01*
X35500Y95243D02*
Y102819D01*
X33518Y93260D02*
X35500Y95243D01*
X33518Y92982D02*
Y93260D01*
X5787Y126532D02*
X8319Y124000D01*
X5787Y126532D02*
Y132213D01*
X1500Y136500D02*
Y149500D01*
Y136500D02*
X5787Y132213D01*
X11400Y85500D02*
X12900Y87000D01*
X57492Y155844D02*
X59418Y153918D01*
Y153918D02*
Y153918D01*
X57492Y155844D02*
Y161380D01*
X57200Y161672D02*
X57492Y161380D01*
X35500Y102819D02*
X35681Y103000D01*
Y106000D02*
Y124000D01*
X11400Y77000D02*
Y85000D01*
Y85500D01*
X87000Y203821D02*
X87200Y203621D01*
X87000Y203821D02*
Y215500D01*
X77800Y222700D02*
Y229621D01*
Y222700D02*
X79800Y220700D01*
Y203621D02*
Y220700D01*
Y195293D02*
Y203621D01*
X87500Y180500D02*
Y194993D01*
X87200Y195293D02*
X87500Y194993D01*
X68000Y227432D02*
X74800Y220632D01*
X68000Y227432D02*
Y227500D01*
X78000Y239321D02*
Y245500D01*
X77800Y239121D02*
X78000Y239321D01*
X77800Y229621D02*
Y239121D01*
X74800Y188821D02*
Y220632D01*
X68500Y206000D02*
Y213500D01*
Y206000D02*
X69500Y205000D01*
X85000Y239321D02*
X85200Y239121D01*
X85000Y239321D02*
Y245500D01*
X93000Y229200D02*
X101328D01*
X92700Y221500D02*
X93000Y221800D01*
X86828Y221500D02*
X92700D01*
X21000Y175000D02*
X89879D01*
X4500Y158500D02*
X21000Y175000D01*
X5500Y164000D02*
X18500Y177000D01*
X88379D01*
X48300Y171500D02*
X49800Y170000D01*
X1500Y149500D02*
X23500Y171500D01*
X48300D01*
X89879Y175000D02*
X93879Y179000D01*
X49800Y161672D02*
Y170000D01*
X57200D02*
X57700Y170500D01*
X74000D01*
X74034Y170466D01*
X86466D01*
X86500Y170432D01*
X68466Y189534D02*
Y198466D01*
Y189534D02*
X68500Y189500D01*
X68432Y198500D02*
X68466Y198466D01*
X85200Y229621D02*
X85500Y229321D01*
X82000Y98621D02*
X82383Y99004D01*
X84383D01*
X86500Y101121D01*
X69500Y219000D02*
X72559Y215941D01*
Y186562D02*
Y215941D01*
X74800Y188821D02*
X83000Y180621D01*
X72559Y186562D02*
X78500Y180621D01*
X102750Y221921D02*
X103500D01*
X85200Y229621D02*
Y239121D01*
X93800Y135871D02*
Y136621D01*
X93879Y179000D02*
X106621D01*
X108000Y177621D01*
X104500Y132121D02*
X108000Y135621D01*
X98000Y132121D02*
X104500D01*
X93000Y127121D02*
X98000Y132121D01*
X108000Y135621D02*
Y177621D01*
X110000Y134121D02*
Y178621D01*
X94584Y110582D02*
Y110779D01*
X98717Y105464D02*
Y105661D01*
X87788Y170529D02*
X88193Y170935D01*
X100567Y174106D02*
X102016D01*
X104500Y161474D02*
Y171621D01*
X97681Y175672D02*
X99000D01*
X100567Y174106D01*
X102016D02*
X104500Y171621D01*
X101740Y158714D02*
X104500Y161474D01*
X93605Y155437D02*
X94260Y154782D01*
X101740Y154691D02*
Y158714D01*
X94260Y172251D02*
X97681Y175672D01*
X98000Y163177D02*
X99000Y164176D01*
X98000Y154691D02*
Y163177D01*
X99000Y165121D02*
X101770Y165743D01*
X99000Y164176D02*
X101770Y165743D01*
X101740Y151362D02*
Y154691D01*
X98000Y151207D02*
Y154691D01*
X101500Y125621D02*
X110000Y134121D01*
X86500Y103621D02*
X87000Y104121D01*
X86500Y101121D02*
Y103621D01*
X106000Y111521D02*
X106750D01*
X98717Y105464D02*
X104657D01*
X88342D02*
X94584D01*
X87542Y110779D02*
X94584D01*
X98717D02*
X105457D01*
X89677Y150621D02*
X97414D01*
X98000Y151207D01*
X86500Y152716D02*
X87582D01*
X89677Y150621D01*
X89086Y148621D02*
X99000D01*
X86500Y146810D02*
X87275D01*
X99000Y148621D02*
X101740Y151362D01*
X87275Y146810D02*
X89086Y148621D01*
X91576Y140905D02*
X94260Y143589D01*
X86500Y140905D02*
X91576D01*
X94260Y143589D02*
Y144809D01*
X101740Y137162D02*
Y144809D01*
X101200Y136621D02*
X101740Y137162D01*
D18*
X74500Y147500D02*
D03*
Y140100D02*
D03*
X87000Y104121D02*
D03*
Y111521D02*
D03*
X106000D02*
D03*
Y104121D02*
D03*
X101328Y221800D02*
D03*
Y229200D02*
D03*
X93000D02*
D03*
Y221800D02*
D03*
D20*
X4000Y48000D02*
D03*
X11400D02*
D03*
Y56344D02*
D03*
X4000D02*
D03*
X11400Y85500D02*
D03*
X4000D02*
D03*
X11400Y77000D02*
D03*
X4000D02*
D03*
X49800Y170000D02*
D03*
X57200D02*
D03*
X11400Y68554D02*
D03*
X4000D02*
D03*
X57200Y161672D02*
D03*
X49800D02*
D03*
X101200Y136621D02*
D03*
X93800D02*
D03*
X87200Y195293D02*
D03*
X79800D02*
D03*
X87200Y203621D02*
D03*
X79800D02*
D03*
X77800Y239121D02*
D03*
X85200D02*
D03*
X77800Y229621D02*
D03*
X85200D02*
D03*
D28*
X6500Y140454D02*
D03*
X103000Y127121D02*
D03*
D46*
X86500Y140905D02*
D03*
D47*
Y146810D02*
D03*
Y152716D02*
D03*
Y158621D02*
D03*
Y164527D02*
D03*
Y170432D02*
D03*
D54*
X77000Y70791D02*
D03*
D55*
X72000Y80791D02*
D03*
X67000Y70791D02*
D03*
X62000Y80791D02*
D03*
X57000Y70791D02*
D03*
X52000Y80791D02*
D03*
X47000Y70791D02*
D03*
X42000Y80791D02*
D03*
D56*
X28496Y57799D02*
D03*
X90504D02*
D03*
D57*
X84402Y26500D02*
D03*
X44500D02*
D03*
X74500Y32484D02*
D03*
X34598D02*
D03*
D58*
X37000Y45791D02*
D03*
X82000D02*
D03*
X105500Y249500D02*
D03*
X13000Y13000D02*
D03*
X105000Y13500D02*
D03*
D59*
X26500Y140454D02*
D03*
X16500D02*
D03*
X36500D02*
D03*
X46500D02*
D03*
X56500D02*
D03*
X66500D02*
D03*
X93000Y127121D02*
D03*
D60*
X69500Y182000D02*
D03*
X104000Y40500D02*
D03*
X84500Y127500D02*
D03*
X96000Y73500D02*
D03*
X52500Y90500D02*
D03*
X17500Y71500D02*
D03*
X3500Y62500D02*
D03*
X22902Y83598D02*
D03*
X24500Y94000D02*
D03*
X105500Y95500D02*
D03*
X83000Y92500D02*
D03*
X96500Y197500D02*
D03*
X56000Y111500D02*
D03*
X61000Y115000D02*
D03*
X71000Y118000D02*
D03*
X67036Y133000D02*
D03*
X59000Y122000D02*
D03*
X24000Y135000D02*
D03*
X6000Y95000D02*
D03*
X33518Y92982D02*
D03*
X44534Y104500D02*
D03*
X59418Y153918D02*
D03*
X87000Y215500D02*
D03*
X68000Y227500D02*
D03*
X78000Y245500D02*
D03*
X68500Y213500D02*
D03*
X87500Y180500D02*
D03*
X86828Y221500D02*
D03*
X91000Y243000D02*
D03*
X85000Y245500D02*
D03*
X4500Y158500D02*
D03*
X5500Y164000D02*
D03*
X34000Y163000D02*
D03*
X74000Y170500D02*
D03*
X54500Y95000D02*
D03*
X68500Y189500D02*
D03*
X68432Y205000D02*
D03*
Y198500D02*
D03*
Y219000D02*
D03*
X82000Y98621D02*
D03*
X83000Y180621D02*
D03*
X78500D02*
D03*
D75*
X35681Y124000D02*
D03*
X8319D02*
D03*
Y106000D02*
D03*
X35681D02*
D03*
D76*
X94584Y105464D02*
D03*
Y110779D02*
D03*
X98717D02*
D03*
Y105464D02*
D03*
D77*
X101740Y154691D02*
D03*
X94260D02*
D03*
Y144809D02*
D03*
X98000Y154691D02*
D03*
X101740Y144809D02*
D03*
D78*
X99000Y164176D02*
D03*
Y175672D02*
D03*
M02*
