G04*
G04 #@! TF.GenerationSoftware,Altium Limited,Altium Designer,20.0.10 (225)*
G04*
G04 Layer_Color=12632256*
%FSLAX25Y25*%
%MOIN*%
G70*
G01*
G75*
%ADD28R,0.05906X0.05906*%
%ADD46R,0.05000X0.05000*%
%ADD47C,0.05000*%
%ADD54R,0.05504X0.05504*%
%ADD55C,0.05504*%
%ADD56C,0.09449*%
%ADD57C,0.06024*%
%ADD58C,0.12598*%
%ADD59C,0.05906*%
D28*
X6500Y140454D02*
D03*
X103000Y127121D02*
D03*
D46*
X86500Y140905D02*
D03*
D47*
Y146810D02*
D03*
Y152716D02*
D03*
Y158621D02*
D03*
Y164527D02*
D03*
Y170432D02*
D03*
D54*
X77000Y70791D02*
D03*
D55*
X72000Y80791D02*
D03*
X67000Y70791D02*
D03*
X62000Y80791D02*
D03*
X57000Y70791D02*
D03*
X52000Y80791D02*
D03*
X47000Y70791D02*
D03*
X42000Y80791D02*
D03*
D56*
X28496Y57799D02*
D03*
X90504D02*
D03*
D57*
X84402Y26500D02*
D03*
X44500D02*
D03*
X74500Y32484D02*
D03*
X34598D02*
D03*
D58*
X37000Y45791D02*
D03*
X82000D02*
D03*
X105500Y249500D02*
D03*
X13000Y13000D02*
D03*
X105000Y13500D02*
D03*
D59*
X26500Y140454D02*
D03*
X16500D02*
D03*
X36500D02*
D03*
X46500D02*
D03*
X56500D02*
D03*
X66500D02*
D03*
X93000Y127121D02*
D03*
M02*
