G04*
G04 #@! TF.GenerationSoftware,Altium Limited,Altium Designer,20.0.10 (225)*
G04*
G04 Layer_Color=16711935*
%FSLAX25Y25*%
%MOIN*%
G70*
G01*
G75*
%ADD29R,0.06300X0.04800*%
%ADD31R,0.04800X0.06300*%
%ADD40R,0.06706X0.06706*%
%ADD41R,0.06304X0.06304*%
%ADD42C,0.06304*%
%ADD43C,0.10249*%
%ADD44C,0.06824*%
%ADD45C,0.13398*%
%ADD46R,0.05000X0.05000*%
%ADD47C,0.05000*%
%ADD48C,0.06706*%
%ADD49C,0.03800*%
%ADD79R,0.10249X0.13792*%
%ADD80R,0.03753X0.04147*%
G04:AMPARAMS|DCode=81|XSize=55.64mil|YSize=31.23mil|CornerRadius=9.81mil|HoleSize=0mil|Usage=FLASHONLY|Rotation=270.000|XOffset=0mil|YOffset=0mil|HoleType=Round|Shape=RoundedRectangle|*
%AMROUNDEDRECTD81*
21,1,0.05564,0.01161,0,0,270.0*
21,1,0.03602,0.03123,0,0,270.0*
1,1,0.01961,-0.00581,-0.01801*
1,1,0.01961,-0.00581,0.01801*
1,1,0.01961,0.00581,0.01801*
1,1,0.01961,0.00581,-0.01801*
%
%ADD81ROUNDEDRECTD81*%
%ADD82R,0.07572X0.04934*%
D29*
X74500Y147500D02*
D03*
Y140100D02*
D03*
X87000Y104121D02*
D03*
Y111521D02*
D03*
X106000D02*
D03*
Y104121D02*
D03*
X101328Y221800D02*
D03*
Y229200D02*
D03*
X93000D02*
D03*
Y221800D02*
D03*
D31*
X4000Y48000D02*
D03*
X11400D02*
D03*
Y56344D02*
D03*
X4000D02*
D03*
X11400Y85500D02*
D03*
X4000D02*
D03*
X11400Y77000D02*
D03*
X4000D02*
D03*
X49800Y170000D02*
D03*
X57200D02*
D03*
X11400Y68554D02*
D03*
X4000D02*
D03*
X57200Y161672D02*
D03*
X49800D02*
D03*
X101200Y136621D02*
D03*
X93800D02*
D03*
X87200Y195293D02*
D03*
X79800D02*
D03*
X87200Y203621D02*
D03*
X79800D02*
D03*
X77800Y239121D02*
D03*
X85200D02*
D03*
X77800Y229621D02*
D03*
X85200D02*
D03*
D40*
X6500Y140454D02*
D03*
X103000Y127121D02*
D03*
D41*
X77000Y70791D02*
D03*
D42*
X72000Y80791D02*
D03*
X67000Y70791D02*
D03*
X62000Y80791D02*
D03*
X57000Y70791D02*
D03*
X52000Y80791D02*
D03*
X47000Y70791D02*
D03*
X42000Y80791D02*
D03*
D43*
X28496Y57799D02*
D03*
X90504D02*
D03*
D44*
X84402Y26500D02*
D03*
X44500D02*
D03*
X74500Y32484D02*
D03*
X34598D02*
D03*
D45*
X37000Y45791D02*
D03*
X82000D02*
D03*
X105500Y249500D02*
D03*
X13000Y13000D02*
D03*
X105000Y13500D02*
D03*
D46*
X86500Y140905D02*
D03*
D47*
Y146810D02*
D03*
Y152716D02*
D03*
Y158621D02*
D03*
Y164527D02*
D03*
Y170432D02*
D03*
D48*
X26500Y140454D02*
D03*
X16500D02*
D03*
X36500D02*
D03*
X46500D02*
D03*
X56500D02*
D03*
X66500D02*
D03*
X93000Y127121D02*
D03*
D49*
X69500Y182000D02*
D03*
X104000Y40500D02*
D03*
X84500Y127500D02*
D03*
X96000Y73500D02*
D03*
X52500Y90500D02*
D03*
X17500Y71500D02*
D03*
X3500Y62500D02*
D03*
X22902Y83598D02*
D03*
X24500Y94000D02*
D03*
X105500Y95500D02*
D03*
X83000Y92500D02*
D03*
X96500Y197500D02*
D03*
X56000Y111500D02*
D03*
X61000Y115000D02*
D03*
X71000Y118000D02*
D03*
X67036Y133000D02*
D03*
X59000Y122000D02*
D03*
X24000Y135000D02*
D03*
X6000Y95000D02*
D03*
X33518Y92982D02*
D03*
X44534Y104500D02*
D03*
X59418Y153918D02*
D03*
X87000Y215500D02*
D03*
X68000Y227500D02*
D03*
X78000Y245500D02*
D03*
X68500Y213500D02*
D03*
X87500Y180500D02*
D03*
X86828Y221500D02*
D03*
X91000Y243000D02*
D03*
X85000Y245500D02*
D03*
X4500Y158500D02*
D03*
X5500Y164000D02*
D03*
X34000Y163000D02*
D03*
X74000Y170500D02*
D03*
X54500Y95000D02*
D03*
X68500Y189500D02*
D03*
X68432Y205000D02*
D03*
Y198500D02*
D03*
Y219000D02*
D03*
X82000Y98621D02*
D03*
X83000Y180621D02*
D03*
X78500D02*
D03*
D79*
X35681Y124000D02*
D03*
X8319D02*
D03*
Y106000D02*
D03*
X35681D02*
D03*
D80*
X94584Y105464D02*
D03*
Y110779D02*
D03*
X98717D02*
D03*
Y105464D02*
D03*
D81*
X101740Y154691D02*
D03*
X94260D02*
D03*
Y144809D02*
D03*
X98000Y154691D02*
D03*
X101740Y144809D02*
D03*
D82*
X99000Y164176D02*
D03*
Y175672D02*
D03*
M02*
