G04*
G04 #@! TF.GenerationSoftware,Altium Limited,Altium Designer,20.0.10 (225)*
G04*
G04 Layer_Color=65535*
%FSLAX25Y25*%
%MOIN*%
G70*
G01*
G75*
%ADD10C,0.00000*%
%ADD11C,0.02953*%
%ADD12C,0.00787*%
%ADD13C,0.00600*%
%ADD14C,0.00500*%
%ADD15C,0.00800*%
%ADD16C,0.00591*%
%ADD17C,0.01000*%
D10*
X14090Y67224D02*
X13500Y67815D01*
X12910Y67224D01*
X13500Y66634D01*
X14090Y67224D01*
D11*
X69050Y163700D02*
X68558Y164552D01*
X67574D01*
X67082Y163700D01*
X67574Y162848D01*
X68558D01*
X69050Y163700D01*
D12*
X79894Y213500D02*
X79106D01*
X79894D01*
X62610Y92976D02*
X61823D01*
X62610D01*
X108472Y189571D02*
X107684D01*
X108472D01*
X72067Y197807D02*
X79547D01*
X72067Y211193D02*
X79547D01*
X72067Y197807D02*
Y211193D01*
X94114Y199382D02*
Y209618D01*
X85453Y197807D02*
X92146D01*
X92146Y211193D02*
X94114Y209618D01*
X92146Y197807D02*
X94114Y199382D01*
X85453Y211193D02*
X92146D01*
X71500Y135454D02*
Y145454D01*
X1500Y135454D02*
X71500D01*
X1500D02*
Y145454D01*
X71500D01*
X88000Y122121D02*
Y132121D01*
X108000D01*
Y122121D02*
Y132121D01*
X88000Y122121D02*
X108000D01*
X74083Y184472D02*
X81563D01*
X74083Y193528D02*
X81563D01*
X74083Y184472D02*
Y193528D01*
X98098Y186047D02*
Y191953D01*
X89437Y184472D02*
X96130D01*
Y193528D02*
X98098Y191953D01*
X96130Y184472D02*
X98098Y186047D01*
X89437Y193528D02*
X96130D01*
D13*
X115300Y77100D02*
Y77900D01*
X109700Y77100D02*
Y77900D01*
X106800Y77100D02*
Y77900D01*
X101200Y77100D02*
Y77900D01*
X10400Y52200D02*
X11200D01*
X10400Y57800D02*
X11200D01*
X12300Y83146D02*
X13100D01*
X12300Y88746D02*
X13100D01*
X14100Y91700D02*
X14900D01*
X14100Y97300D02*
X14900D01*
X56128Y153124D02*
Y153924D01*
X50528Y153124D02*
Y153924D01*
X54600Y63179D02*
X55400D01*
X54600Y57579D02*
X55400D01*
X54600Y54679D02*
X55400D01*
X54600Y49079D02*
X55400D01*
X54600Y40579D02*
X55400D01*
X54600Y46179D02*
X55400D01*
X12300Y74700D02*
X13100D01*
X12300Y80300D02*
X13100D01*
X75010Y138405D02*
X80010Y140905D01*
X75010Y138405D02*
Y143405D01*
X80010Y140905D01*
X105110Y134519D02*
Y176819D01*
X80510D02*
X105110D01*
X80510Y134519D02*
Y176819D01*
Y134519D02*
X105110D01*
X94300Y113221D02*
Y114021D01*
X88700Y113221D02*
Y114021D01*
X91100Y101421D02*
X91900D01*
X91100Y95821D02*
X91900D01*
X8200Y153163D02*
Y153963D01*
X13800Y153163D02*
Y153963D01*
X22300Y153163D02*
Y153963D01*
X16700Y153163D02*
Y153963D01*
X39300Y153124D02*
Y153924D01*
X33700Y153124D02*
Y153924D01*
X47800Y153124D02*
Y153924D01*
X42200Y153124D02*
Y153924D01*
X30800Y153163D02*
Y153963D01*
X25200Y153163D02*
Y153963D01*
X105600Y99321D02*
X106400D01*
X105600Y104921D02*
X106400D01*
X109300Y113521D02*
Y114321D01*
X103700Y113521D02*
Y114321D01*
D14*
X14559Y103154D02*
X19441D01*
X14559Y109846D02*
X19441D01*
X72610Y225689D02*
X86390D01*
Y249311D01*
X72610D02*
X86390D01*
X72610Y225689D02*
Y249311D01*
X75799Y94747D02*
X77374D01*
Y96322D01*
X75799Y110495D02*
X77374D01*
Y108921D02*
Y110495D01*
X61626D02*
X63201D01*
X61626Y108921D02*
Y110495D01*
Y94747D02*
X63201D01*
X61626D02*
Y96322D01*
X101188Y201760D02*
Y225382D01*
X114968D01*
Y201760D02*
Y225382D01*
X101188Y201760D02*
X114968D01*
D15*
X15272Y63878D02*
Y68602D01*
X6610Y63878D02*
Y68602D01*
D16*
X5861Y255432D02*
X15901D01*
X54089D02*
X64129D01*
X54089Y167637D02*
X64129D01*
X5861D02*
X15901D01*
X64129D02*
Y168818D01*
Y254251D02*
Y255432D01*
X5861Y254251D02*
Y255432D01*
Y167637D02*
Y168818D01*
D17*
X3300Y147701D02*
Y151299D01*
X5100D01*
X5700Y150700D01*
Y149500D01*
X5100Y148900D01*
X3300D01*
X112700Y131200D02*
X112100Y131799D01*
X110900D01*
X110300Y131200D01*
Y128800D01*
X110900Y128201D01*
X112100D01*
X112700Y128800D01*
X102200Y170201D02*
Y173799D01*
Y172000D01*
X99800D01*
Y170201D01*
Y173799D01*
X76300Y91799D02*
Y88201D01*
Y89400D01*
X78700Y91799D01*
X76900Y90000D01*
X78700Y88201D01*
X66732Y255700D02*
X69132Y253300D01*
X66732D02*
X69132Y255700D01*
X66732Y254500D02*
X69132D01*
X67932Y253300D02*
Y255700D01*
X63201Y41701D02*
Y45299D01*
X65001D01*
X65601Y44700D01*
Y43500D01*
X65001Y42900D01*
X63201D01*
X64401D02*
X65601Y41701D01*
X66800Y45299D02*
X69200D01*
Y44700D01*
X66800Y42300D01*
Y41701D01*
X72199D02*
Y45299D01*
X70399Y43500D01*
X72799D01*
X39601Y60200D02*
X39001Y60799D01*
X37801D01*
X37201Y60200D01*
Y57800D01*
X37801Y57201D01*
X39001D01*
X39601Y57800D01*
X43200Y60799D02*
X40800D01*
Y59000D01*
X42000Y59600D01*
X42600D01*
X43200Y59000D01*
Y57800D01*
X42600Y57201D01*
X41400D01*
X40800Y57800D01*
X44399Y60200D02*
X44999Y60799D01*
X46199D01*
X46799Y60200D01*
Y59600D01*
X46199Y59000D01*
X46799Y58400D01*
Y57800D01*
X46199Y57201D01*
X44999D01*
X44399Y57800D01*
Y58400D01*
X44999Y59000D01*
X44399Y59600D01*
Y60200D01*
X44999Y59000D02*
X46199D01*
X65601Y52700D02*
X65001Y53299D01*
X63801D01*
X63201Y52700D01*
Y50300D01*
X63801Y49701D01*
X65001D01*
X65601Y50300D01*
X69200Y53299D02*
X66800D01*
Y51500D01*
X68000Y52100D01*
X68600D01*
X69200Y51500D01*
Y50300D01*
X68600Y49701D01*
X67400D01*
X66800Y50300D01*
X70399Y53299D02*
X72799D01*
Y52700D01*
X70399Y50300D01*
Y49701D01*
X24997Y116701D02*
X21398D01*
Y118501D01*
X21998Y119101D01*
X23198D01*
X23798Y118501D01*
Y116701D01*
Y117901D02*
X24997Y119101D01*
X21398Y122700D02*
Y120300D01*
X23198D01*
X22598Y121500D01*
Y122100D01*
X23198Y122700D01*
X24397D01*
X24997Y122100D01*
Y120900D01*
X24397Y120300D01*
X24997Y125699D02*
X21398D01*
X23198Y123899D01*
Y126298D01*
X54799Y119702D02*
X51201D01*
Y121501D01*
X51800Y122101D01*
X53000D01*
X53600Y121501D01*
Y119702D01*
Y120901D02*
X54799Y122101D01*
X51201Y125700D02*
Y123300D01*
X53000D01*
X52400Y124500D01*
Y125100D01*
X53000Y125700D01*
X54200D01*
X54799Y125100D01*
Y123900D01*
X54200Y123300D01*
X51800Y126899D02*
X51201Y127499D01*
Y128699D01*
X51800Y129298D01*
X52400D01*
X53000Y128699D01*
Y128099D01*
Y128699D01*
X53600Y129298D01*
X54200D01*
X54799Y128699D01*
Y127499D01*
X54200Y126899D01*
X48799Y119702D02*
X45201D01*
Y121501D01*
X45800Y122101D01*
X47000D01*
X47600Y121501D01*
Y119702D01*
Y120901D02*
X48799Y122101D01*
X45201Y125700D02*
Y123300D01*
X47000D01*
X46400Y124500D01*
Y125100D01*
X47000Y125700D01*
X48200D01*
X48799Y125100D01*
Y123900D01*
X48200Y123300D01*
X48799Y129298D02*
Y126899D01*
X46400Y129298D01*
X45800D01*
X45201Y128699D01*
Y127499D01*
X45800Y126899D01*
X13199Y116701D02*
X9600D01*
Y118501D01*
X10200Y119101D01*
X11399D01*
X11999Y118501D01*
Y116701D01*
Y117901D02*
X13199Y119101D01*
X9600Y122700D02*
Y120300D01*
X11399D01*
X10799Y121500D01*
Y122100D01*
X11399Y122700D01*
X12599D01*
X13199Y122100D01*
Y120900D01*
X12599Y120300D01*
X13199Y123899D02*
Y125099D01*
Y124499D01*
X9600D01*
X10200Y123899D01*
X7299Y116701D02*
X3701D01*
Y118501D01*
X4300Y119101D01*
X5500D01*
X6100Y118501D01*
Y116701D01*
Y117901D02*
X7299Y119101D01*
Y122100D02*
X3701D01*
X5500Y120300D01*
Y122700D01*
X6700Y123899D02*
X7299Y124499D01*
Y125699D01*
X6700Y126298D01*
X4300D01*
X3701Y125699D01*
Y124499D01*
X4300Y123899D01*
X4900D01*
X5500Y124499D01*
Y126298D01*
X19098Y116701D02*
X15499D01*
Y118501D01*
X16099Y119101D01*
X17299D01*
X17898Y118501D01*
Y116701D01*
Y117901D02*
X19098Y119101D01*
Y122100D02*
X15499D01*
X17299Y120300D01*
Y122700D01*
X16099Y123899D02*
X15499Y124499D01*
Y125699D01*
X16099Y126298D01*
X16699D01*
X17299Y125699D01*
X17898Y126298D01*
X18498D01*
X19098Y125699D01*
Y124499D01*
X18498Y123899D01*
X17898D01*
X17299Y124499D01*
X16699Y123899D01*
X16099D01*
X17299Y124499D02*
Y125699D01*
X22202Y97201D02*
Y100799D01*
X24001D01*
X24601Y100200D01*
Y99000D01*
X24001Y98400D01*
X22202D01*
X23401D02*
X24601Y97201D01*
X28200Y100799D02*
X25800D01*
Y99000D01*
X27000Y99600D01*
X27600D01*
X28200Y99000D01*
Y97800D01*
X27600Y97201D01*
X26400D01*
X25800Y97800D01*
X31798Y100799D02*
X29399D01*
Y99000D01*
X30599Y99600D01*
X31199D01*
X31798Y99000D01*
Y97800D01*
X31199Y97201D01*
X29999D01*
X29399Y97800D01*
X90001Y216799D02*
Y213201D01*
X91800D01*
X92400Y213800D01*
Y216200D01*
X91800Y216799D01*
X90001D01*
X93600Y216200D02*
X94200Y216799D01*
X95399D01*
X95999Y216200D01*
Y215600D01*
X95399Y215000D01*
X94799D01*
X95399D01*
X95999Y214400D01*
Y213800D01*
X95399Y213201D01*
X94200D01*
X93600Y213800D01*
X100001Y188299D02*
Y184701D01*
X101800D01*
X102400Y185300D01*
Y187700D01*
X101800Y188299D01*
X100001D01*
X105999Y184701D02*
X103600D01*
X105999Y187100D01*
Y187700D01*
X105399Y188299D01*
X104200D01*
X103600Y187700D01*
X19300Y68799D02*
Y65800D01*
X19900Y65201D01*
X21100D01*
X21700Y65800D01*
Y68799D01*
X112799Y87701D02*
X109201D01*
Y89501D01*
X109800Y90101D01*
X111000D01*
X111600Y89501D01*
Y87701D01*
Y88901D02*
X112799Y90101D01*
X109800Y91300D02*
X109201Y91900D01*
Y93100D01*
X109800Y93700D01*
X110400D01*
X111000Y93100D01*
X111600Y93700D01*
X112200D01*
X112799Y93100D01*
Y91900D01*
X112200Y91300D01*
X111600D01*
X111000Y91900D01*
X110400Y91300D01*
X109800D01*
X111000Y91900D02*
Y93100D01*
X109800Y94899D02*
X109201Y95499D01*
Y96699D01*
X109800Y97299D01*
X110400D01*
X111000Y96699D01*
Y96099D01*
Y96699D01*
X111600Y97299D01*
X112200D01*
X112799Y96699D01*
Y95499D01*
X112200Y94899D01*
X87701Y90201D02*
Y93799D01*
X89501D01*
X90101Y93200D01*
Y92000D01*
X89501Y91400D01*
X87701D01*
X88901D02*
X90101Y90201D01*
X93700Y93799D02*
X92500Y93200D01*
X91300Y92000D01*
Y90800D01*
X91900Y90201D01*
X93100D01*
X93700Y90800D01*
Y91400D01*
X93100Y92000D01*
X91300D01*
X94899Y93200D02*
X95499Y93799D01*
X96699D01*
X97299Y93200D01*
Y90800D01*
X96699Y90201D01*
X95499D01*
X94899Y90800D01*
Y93200D01*
X5299Y70201D02*
X1701D01*
Y72001D01*
X2300Y72601D01*
X3500D01*
X4100Y72001D01*
Y70201D01*
Y71401D02*
X5299Y72601D01*
X1701Y76200D02*
Y73800D01*
X3500D01*
X2900Y75000D01*
Y75600D01*
X3500Y76200D01*
X4700D01*
X5299Y75600D01*
Y74400D01*
X4700Y73800D01*
Y77399D02*
X5299Y77999D01*
Y79199D01*
X4700Y79799D01*
X2300D01*
X1701Y79199D01*
Y77999D01*
X2300Y77399D01*
X2900D01*
X3500Y77999D01*
Y79799D01*
X101799Y109202D02*
X98201D01*
Y111001D01*
X98800Y111601D01*
X100000D01*
X100600Y111001D01*
Y109202D01*
Y110401D02*
X101799Y111601D01*
Y114600D02*
X98201D01*
X100000Y112800D01*
Y115200D01*
X98201Y116399D02*
Y118798D01*
X98800D01*
X101200Y116399D01*
X101799D01*
X86799Y109202D02*
X83201D01*
Y111001D01*
X83800Y111601D01*
X85000D01*
X85600Y111001D01*
Y109202D01*
Y110401D02*
X86799Y111601D01*
Y114600D02*
X83201D01*
X85000Y112800D01*
Y115200D01*
X83201Y118798D02*
X83800Y117599D01*
X85000Y116399D01*
X86200D01*
X86799Y116999D01*
Y118199D01*
X86200Y118798D01*
X85600D01*
X85000Y118199D01*
Y116399D01*
X5299Y82502D02*
X1701D01*
Y84301D01*
X2300Y84901D01*
X3500D01*
X4100Y84301D01*
Y82502D01*
Y83701D02*
X5299Y84901D01*
Y86100D02*
Y87300D01*
Y86700D01*
X1701D01*
X2300Y86100D01*
Y89099D02*
X1701Y89699D01*
Y90899D01*
X2300Y91499D01*
X2900D01*
X3500Y90899D01*
Y90299D01*
Y90899D01*
X4100Y91499D01*
X4700D01*
X5299Y90899D01*
Y89699D01*
X4700Y89099D01*
X6301Y46579D02*
Y50178D01*
X8100D01*
X8700Y49578D01*
Y48379D01*
X8100Y47779D01*
X6301D01*
X7501D02*
X8700Y46579D01*
X9900Y47179D02*
X10500Y46579D01*
X11699D01*
X12299Y47179D01*
Y49578D01*
X11699Y50178D01*
X10500D01*
X9900Y49578D01*
Y48978D01*
X10500Y48379D01*
X12299D01*
X110900Y52299D02*
X108501D01*
Y50500D01*
X109701D01*
X108501D01*
Y48701D01*
X112100Y52299D02*
Y48701D01*
X114499D01*
X111800Y62101D02*
X111201Y61501D01*
Y60301D01*
X111800Y59702D01*
X114200D01*
X114799Y60301D01*
Y61501D01*
X114200Y62101D01*
X114799Y65100D02*
X111201D01*
X113000Y63300D01*
Y65700D01*
X114799Y68699D02*
X111201D01*
X113000Y66899D01*
Y69298D01*
X103300Y62101D02*
X102701Y61501D01*
Y60301D01*
X103300Y59702D01*
X105700D01*
X106299Y60301D01*
Y61501D01*
X105700Y62101D01*
X106299Y65100D02*
X102701D01*
X104500Y63300D01*
Y65700D01*
X103300Y66899D02*
X102701Y67499D01*
Y68699D01*
X103300Y69298D01*
X103900D01*
X104500Y68699D01*
Y68099D01*
Y68699D01*
X105100Y69298D01*
X105700D01*
X106299Y68699D01*
Y67499D01*
X105700Y66899D01*
X4800Y105900D02*
X4201Y105300D01*
Y104101D01*
X4800Y103501D01*
X7200D01*
X7799Y104101D01*
Y105300D01*
X7200Y105900D01*
X7799Y108899D02*
X4201D01*
X6000Y107100D01*
Y109499D01*
X105778Y210572D02*
X109377D01*
Y212371D01*
X108777Y212971D01*
X108178D01*
X107578Y212371D01*
Y210572D01*
Y212371D01*
X106978Y212971D01*
X106378D01*
X105778Y212371D01*
Y210572D01*
X109377Y216570D02*
Y214171D01*
X106978Y216570D01*
X106378D01*
X105778Y215970D01*
Y214771D01*
X106378Y214171D01*
X77701Y234601D02*
X81299D01*
Y236400D01*
X80700Y237000D01*
X80100D01*
X79500Y236400D01*
Y234601D01*
Y236400D01*
X78900Y237000D01*
X78300D01*
X77701Y236400D01*
Y234601D01*
X81299Y238200D02*
Y239399D01*
Y238799D01*
X77701D01*
X78300Y238200D01*
M02*
