G04*
G04 #@! TF.GenerationSoftware,Altium Limited,Altium Designer,20.0.10 (225)*
G04*
G04 Layer_Color=16711935*
%FSLAX25Y25*%
%MOIN*%
G70*
G01*
G75*
%ADD12C,0.00787*%
%ADD14C,0.00500*%
%ADD15C,0.00800*%
%ADD85C,0.00100*%
%ADD86C,0.00197*%
G36*
X7791Y63875D02*
X8970D01*
Y61910D01*
X7791D01*
Y63875D01*
D02*
G37*
G36*
X12909Y63875D02*
X14095D01*
Y61910D01*
X12909D01*
Y63875D01*
D02*
G37*
G36*
X7791Y70577D02*
X8970D01*
Y68602D01*
X7791D01*
Y70577D01*
D02*
G37*
G36*
X10350Y70575D02*
X11532D01*
Y68602D01*
X10350D01*
Y70575D01*
D02*
G37*
G36*
X12909Y70578D02*
X14096D01*
Y68602D01*
X12909D01*
Y70578D01*
D02*
G37*
D12*
X95273Y101428D02*
X94485D01*
X95273D01*
X94260Y159239D02*
X93472D01*
X94260D01*
D14*
X105890Y48035D02*
Y54965D01*
X102110Y48035D02*
Y54965D01*
X105890D01*
X102110Y48035D02*
X105890D01*
X72610Y225689D02*
X86390D01*
Y249311D01*
X72610D02*
X86390D01*
X72610Y225689D02*
Y249311D01*
X93501Y112058D02*
X99800D01*
X93501Y104184D02*
X99800D01*
X93501D02*
Y112058D01*
X99800Y104184D02*
Y112058D01*
X92291Y152900D02*
X103709D01*
X92291Y146601D02*
X103709D01*
X92291D02*
Y152900D01*
X103709Y146601D02*
Y152900D01*
X61626Y94747D02*
X77374D01*
Y110495D01*
X61626D02*
X77374D01*
X61626Y94747D02*
Y110495D01*
X101188Y201760D02*
Y225382D01*
X114968D01*
Y201760D02*
Y225382D01*
X101188Y201760D02*
X114968D01*
D15*
X6610Y68602D02*
X15272D01*
X6610Y63878D02*
X15272D01*
D85*
X75010Y138405D02*
X80010Y140905D01*
X75010Y138405D02*
Y143405D01*
X80010Y140905D01*
X104610Y135019D02*
Y176319D01*
X81010D02*
X104610D01*
X81010Y135019D02*
Y176319D01*
Y135019D02*
X104610D01*
D86*
X34995Y209566D02*
Y213503D01*
X33026Y211535D02*
X36963D01*
M02*
